<svg width="40" height="40" viewBox="0 0 40 40" fill="none" xmlns="http://www.w3.org/2000/svg">
<path d="M19.9 39.8C30.8905 39.8 39.8 30.8905 39.8 19.9C39.8 8.90953 30.8905 0 19.9 0C8.90953 0 0 8.90953 0 19.9C0 30.8905 8.90953 39.8 19.9 39.8Z" fill="#01A2BE"/>
<path d="M22.1002 32.57V21.51H25.8202L26.5302 16.92H22.1202V13.92C22.0903 13.5772 22.1378 13.2321 22.259 12.91C22.3803 12.588 22.5723 12.2973 22.8208 12.0593C23.0693 11.8213 23.3681 11.6421 23.6951 11.535C24.0221 11.4278 24.369 11.3953 24.7102 11.44H26.7102V7.51001C25.5359 7.3205 24.3495 7.2169 23.1602 7.20001C19.5302 7.20001 17.1602 9.40001 17.1602 13.38V16.87H13.1602V21.51H17.1602V32.57H22.1002Z" fill="white"/>
</svg>
