<svg width="41" height="39" viewBox="0 0 41 39" fill="none" xmlns="http://www.w3.org/2000/svg">
<path d="M20.2299 3.51002C20.4932 3.50886 20.7514 3.58249 20.9745 3.72234C21.1975 3.8622 21.3763 4.06253 21.4899 4.30002L25.6099 12.65L25.8599 13.15L26.4099 13.23L35.6299 14.57C35.8892 14.6088 36.1324 14.719 36.3325 14.8884C36.5325 15.0577 36.6814 15.2794 36.7624 15.5287C36.8434 15.778 36.8534 16.0449 36.7911 16.2995C36.7288 16.5541 36.5968 16.7863 36.4099 16.97L29.7399 23.47L29.3399 23.86L29.4299 24.42L31.0099 33.59C31.0458 33.7904 31.0376 33.9963 30.9858 34.1931C30.934 34.39 30.8398 34.5732 30.7099 34.73C30.5057 34.9845 30.2185 35.159 29.8985 35.223C29.5786 35.2869 29.2463 35.2364 28.9599 35.08L20.7199 30.74L20.2299 30.48L19.7299 30.74L11.4899 35.08C11.2871 35.1898 11.0605 35.2482 10.8299 35.25C10.6231 35.246 10.4196 35.1975 10.2333 35.1077C10.0469 35.018 9.88205 34.8892 9.74994 34.73C9.61568 34.5758 9.51877 34.3928 9.46674 34.1951C9.41471 33.9974 9.40896 33.7903 9.44994 33.59L11.0199 24.38L11.1099 23.82L10.7099 23.43L4.03994 16.93C3.85303 16.7463 3.72104 16.5141 3.65877 16.2595C3.59651 16.0049 3.60644 15.738 3.68745 15.4887C3.76846 15.2395 3.91734 15.0177 4.11739 14.8484C4.31743 14.679 4.56072 14.5688 4.81994 14.53L14.0399 13.19L14.5899 13.11L14.8399 12.61L18.9599 4.26002C19.0762 4.02249 19.257 3.82245 19.4816 3.68275C19.7061 3.54306 19.9655 3.46934 20.2299 3.47002M20.2299 -0.039978C19.6964 -0.0389173 19.1743 0.113989 18.7245 0.400865C18.2747 0.687741 17.9159 1.09673 17.6899 1.58002L12.9699 11.14L2.42994 12.67C1.90664 12.7453 1.4149 12.9657 1.01044 13.3061C0.605979 13.6466 0.304976 14.0936 0.141544 14.5963C-0.0218874 15.0991 -0.0412127 15.6376 0.0857587 16.1509C0.21273 16.6641 0.480921 17.1314 0.859936 17.5L8.48994 24.94L6.68994 35.44C6.58801 35.9641 6.63749 36.5064 6.83259 37.0033C7.02769 37.5003 7.36032 37.9314 7.79155 38.2462C8.22278 38.5609 8.73476 38.7463 9.26755 38.7807C9.80033 38.815 10.3319 38.6968 10.7999 38.44L20.2299 33.49L29.6599 38.38C30.0651 38.6007 30.5186 38.7176 30.9799 38.72C31.3922 38.717 31.7989 38.6246 32.172 38.4491C32.545 38.2736 32.8756 38.0193 33.1408 37.7037C33.4061 37.388 33.5997 37.0186 33.7083 36.6209C33.8169 36.2232 33.8379 35.8067 33.7699 35.4L31.9599 24.9L39.5899 17.46C39.9689 17.0914 40.2371 16.6241 40.3641 16.1109C40.4911 15.5976 40.4718 15.0591 40.3083 14.5563C40.1449 14.0536 39.8439 13.6066 39.4394 13.2661C39.035 12.9257 38.5432 12.7053 38.0199 12.63L27.4799 11.14L22.7699 1.58002C22.5383 1.10421 22.177 0.703476 21.7276 0.423954C21.2783 0.144432 20.7591 -0.00251761 20.2299 2.19345e-05V-0.039978Z" fill="#EFEFEF"/>
</svg>
