<svg width="32" height="35" viewBox="0 0 32 35" fill="none" xmlns="http://www.w3.org/2000/svg">
<path d="M31.9998 18.1816C31.9998 16.8275 31.8816 15.4733 31.818 14.1011C31.8411 14.0123 31.8411 13.9191 31.818 13.8303C31.8091 13.3202 31.7727 12.8109 31.709 12.3046V12.1331C31.5838 9.5725 31.1131 7.04023 30.3094 4.6041C30.0876 3.78882 29.7347 3.01446 29.2642 2.31106V2.25689C29.1567 2.01615 28.9913 1.80535 28.7825 1.64302C28.2547 0.843936 27.4393 0.275462 26.5033 0.0539375C25.5673 -0.167587 24.5815 -0.0254155 23.7476 0.451374C22.6847 1.01152 21.7233 1.74379 20.9029 2.61802C20.6366 2.79706 20.403 3.01992 20.2122 3.27702C19.5286 3.94508 18.8794 4.64714 18.2673 5.38046C17.5173 5.27933 16.7613 5.22802 16.0043 5.22695C15.2474 5.2274 14.4913 5.27871 13.7413 5.38046C13.1261 4.64706 12.4739 3.94501 11.7873 3.27702C11.5999 3.02009 11.3693 2.79718 11.1057 2.61802C10.2801 1.7457 9.31608 1.01376 8.25198 0.451374C7.41808 -0.0254155 6.43225 -0.167587 5.49626 0.0539375C4.56028 0.275462 3.74492 0.843936 3.21705 1.64302C3.04187 1.80343 2.90521 2.00089 2.81717 2.2208C2.81717 2.2208 2.77172 2.2208 2.81717 2.27497C2.35098 2.98073 1.99836 3.75433 1.77201 4.56796C0.971166 7.00445 0.503478 9.5368 0.381494 12.097V12.2685C0.314692 12.7746 0.275254 13.2839 0.263346 13.7942C0.244731 13.8835 0.244731 13.9757 0.263346 14.065C0.199728 15.4282 0.108844 16.7733 0.0815788 18.1455C0.0633019 18.4853 0.0633019 18.8258 0.0815788 19.1656C0.0815788 19.4815 0.0815788 19.7885 0.0815788 20.0683C0.0815788 28.2834 7.24318 34.9368 16.0861 34.9368C24.9291 34.9368 32.0816 28.2834 32.0816 20.0683C32.0816 19.7614 32.0816 19.4545 32.0816 19.1656C32.0757 18.8362 32.0483 18.5075 31.9998 18.1816Z" fill="#01A2BE"/>
</svg>
