<svg width="32" height="25" viewBox="0 0 32 25" fill="none" xmlns="http://www.w3.org/2000/svg">
<g clip-path="url(#clip0_96_977)">
<path d="M30.3199 10.94H4.70991L13.0699 2.58003C13.3537 2.29625 13.5131 1.91136 13.5131 1.51003C13.5131 1.1087 13.3537 0.723815 13.0699 0.440033C12.9294 0.299519 12.7626 0.188053 12.579 0.112007C12.3954 0.0359613 12.1986 -0.00317383 11.9999 -0.00317383C11.5986 -0.00317383 11.2137 0.156251 10.9299 0.440033L0.41991 10.95C0.158869 11.3277 0.019043 11.7759 0.019043 12.235C0.019043 12.6941 0.158869 13.1424 0.41991 13.52L10.9299 24.04C11.2137 24.3238 11.5986 24.4832 11.9999 24.4832C12.4012 24.4832 12.7861 24.3238 13.0699 24.04C13.3537 23.7563 13.5131 23.3714 13.5131 22.97C13.5131 22.5687 13.3537 22.1838 13.0699 21.9L5.13991 13.97H30.3199C30.5374 14.0057 30.7601 13.9936 30.9724 13.9346C31.1848 13.8756 31.3818 13.7712 31.5498 13.6285C31.7177 13.4858 31.8527 13.3083 31.9452 13.1082C32.0377 12.9082 32.0857 12.6904 32.0857 12.47C32.0857 12.2496 32.0377 12.0319 31.9452 11.8318C31.8527 11.6318 31.7177 11.4543 31.5498 11.3116C31.3818 11.1689 31.1848 11.0644 30.9724 11.0055C30.7601 10.9465 30.5374 10.9344 30.3199 10.97V10.94Z" fill="#01A2BE"/>
</g>
<defs>
<clipPath id="clip0_96_977">
<rect width="31.84" height="24.48" fill="white"/>
</clipPath>
</defs>
</svg>
