<svg width="40" height="39" viewBox="0 0 40 39" fill="none" xmlns="http://www.w3.org/2000/svg">
<g clip-path="url(#clip0_92_925)">
<path d="M12.7199 16.37C13.7361 16.37 14.5599 15.5462 14.5599 14.53C14.5599 13.5138 13.7361 12.69 12.7199 12.69C11.7037 12.69 10.8799 13.5138 10.8799 14.53C10.8799 15.5462 11.7037 16.37 12.7199 16.37Z" fill="#01A2BE"/>
<path d="M38.9201 20.92L36.9201 17.36C36.8604 17.2547 36.8225 17.1384 36.8088 17.0181C36.7951 16.8978 36.8057 16.776 36.8401 16.66L37.9701 12.72C38.0164 12.5334 38.0038 12.3371 37.934 12.158C37.8641 11.9789 37.7405 11.8259 37.5801 11.72L34.1201 9.52996C34.0179 9.46275 33.93 9.37604 33.8614 9.2748C33.7927 9.17356 33.7447 9.05977 33.7201 8.93996L32.8901 4.93996C32.8516 4.74559 32.7506 4.56913 32.6026 4.43737C32.4546 4.30561 32.2677 4.22577 32.0701 4.20996L27.9901 3.86996C27.8681 3.86122 27.7491 3.8274 27.6407 3.77062C27.5323 3.71384 27.4368 3.63532 27.3601 3.53996L24.7201 0.329957C24.5924 0.178718 24.4193 0.0727064 24.2266 0.0276684C24.0338 -0.0173696 23.8317 0.000967987 23.6501 0.0799574L19.8801 1.67996C19.7683 1.72927 19.6474 1.75474 19.5251 1.75474C19.4029 1.75474 19.282 1.72927 19.1701 1.67996L15.3901 0.0799574C15.2091 0.00286495 15.0079 -0.013468 14.8168 0.0334076C14.6257 0.0802832 14.455 0.187842 14.3301 0.339958L11.7301 3.50996C11.6535 3.60532 11.5579 3.68384 11.4495 3.74062C11.3411 3.7974 11.2222 3.83122 11.1001 3.83996L7.02014 4.17996C6.82208 4.19413 6.63426 4.27341 6.48594 4.40545C6.33763 4.53748 6.23714 4.71486 6.20014 4.90996L5.37014 8.90996C5.34554 9.02977 5.29755 9.14356 5.22891 9.2448C5.16027 9.34604 5.07234 9.43275 4.97014 9.49996L1.51014 11.69C1.34977 11.7959 1.22616 11.9489 1.15632 12.128C1.08648 12.3071 1.07384 12.5034 1.12014 12.69L2.22014 16.66C2.25457 16.776 2.26523 16.8978 2.25149 17.0181C2.23774 17.1384 2.19987 17.2547 2.14014 17.36L0.140142 20.92C0.0360221 21.0848 -0.0124039 21.2787 0.00199879 21.4732C0.0164015 21.6676 0.0928711 21.8523 0.220142 22L3.05014 25C3.13443 25.0893 3.19997 25.1946 3.24291 25.3097C3.28584 25.4247 3.3053 25.5472 3.30014 25.67L3.22014 29.73C3.21438 29.9278 3.27257 30.1222 3.38606 30.2843C3.49955 30.4464 3.6623 30.5677 3.85014 30.63L7.73014 31.93C7.84623 31.9673 7.95329 32.0284 8.04452 32.1093C8.13576 32.1902 8.20919 32.2892 8.26014 32.4L9.99014 36.08C10.0744 36.2657 10.2192 36.4173 10.4009 36.51C10.5826 36.6026 10.7903 36.6308 10.9901 36.59L14.9901 35.94C15.2365 35.9077 15.486 35.9683 15.6901 36.11L18.9701 38.57C19.1281 38.6861 19.3191 38.7488 19.5151 38.7488C19.7112 38.7488 19.9022 38.6861 20.0601 38.57L23.3401 36.11C23.5416 35.9707 23.7871 35.9102 24.0301 35.94L28.0301 36.59C28.23 36.6308 28.4377 36.6026 28.6194 36.51C28.8011 36.4173 28.9459 36.2657 29.0301 36.08L30.7901 32.38C30.8446 32.2698 30.9204 32.1716 31.0131 32.0909C31.1058 32.0102 31.2135 31.9487 31.3301 31.91L35.2201 30.63C35.4079 30.5688 35.5704 30.4475 35.6824 30.2848C35.7944 30.1222 35.8499 29.9272 35.8401 29.73L35.6901 25.63C35.685 25.5072 35.7044 25.3847 35.7474 25.2697C35.7903 25.1546 35.8559 25.0493 35.9401 24.96L38.7701 21.96C38.9023 21.825 38.988 21.6514 39.015 21.4645C39.042 21.2775 39.0087 21.0868 38.9201 20.92ZM7.99014 14.52C7.99014 13.5845 8.26755 12.67 8.78729 11.8921C9.30703 11.1143 10.0458 10.508 10.91 10.15C11.7743 9.792 12.7254 9.69833 13.6429 9.88084C14.5604 10.0634 15.4033 10.5138 16.0648 11.1753C16.7263 11.8368 17.1767 12.6797 17.3593 13.5972C17.5418 14.5147 17.4481 15.4658 17.0901 16.3301C16.7321 17.1943 16.1258 17.9331 15.348 18.4528C14.5701 18.9725 13.6556 19.25 12.7201 19.25C12.0986 19.2513 11.483 19.1298 10.9085 18.8926C10.334 18.6554 9.81207 18.307 9.37259 17.8675C8.9331 17.428 8.58475 16.9061 8.34751 16.3316C8.11027 15.7571 7.98882 15.1415 7.99014 14.52ZM16.6801 26.31C16.4768 26.6502 16.1508 26.8997 15.7692 27.007C15.3876 27.1143 14.9794 27.0713 14.6285 26.8869C14.2776 26.7025 14.0107 26.3907 13.8827 26.0155C13.7547 25.6404 13.7752 25.2304 13.9401 24.87L21.4101 10.63C21.6024 10.2653 21.9317 9.99193 22.3255 9.87003C22.5205 9.80967 22.7255 9.78832 22.9288 9.80718C23.132 9.82604 23.3296 9.88475 23.5101 9.97996C23.6907 10.0752 23.8508 10.205 23.9811 10.3621C24.1115 10.5191 24.2097 10.7003 24.2701 10.8953C24.3304 11.0903 24.3518 11.2953 24.3329 11.4986C24.3141 11.7018 24.2554 11.8994 24.1601 12.08L16.6801 26.31ZM24.9901 28.15C24.0546 28.15 23.1401 27.8725 22.3623 27.3528C21.5844 26.8331 20.9782 26.0943 20.6202 25.2301C20.2622 24.3658 20.1685 23.4147 20.351 22.4972C20.5335 21.5797 20.984 20.7368 21.6455 20.0753C22.307 19.4138 23.1498 18.9634 24.0674 18.7808C24.9849 18.5983 25.9359 18.692 26.8002 19.05C27.6645 19.408 28.4033 20.0143 28.923 20.7921C29.4427 21.57 29.7201 22.4845 29.7201 23.42C29.7201 24.6744 29.2218 25.8775 28.3348 26.7646C27.4477 27.6516 26.2446 28.15 24.9901 28.15Z" fill="#01A2BE"/>
<path d="M24.9899 25.47C26.1221 25.47 27.0399 24.5522 27.0399 23.42C27.0399 22.2878 26.1221 21.37 24.9899 21.37C23.8578 21.37 22.9399 22.2878 22.9399 23.42C22.9399 24.5522 23.8578 25.47 24.9899 25.47Z" fill="#01A2BE"/>
</g>
<defs>
<clipPath id="clip0_92_925">
<rect width="39.04" height="38.77" fill="white"/>
</clipPath>
</defs>
</svg>
