<svg width="35" height="36" viewBox="0 0 35 36" fill="none" xmlns="http://www.w3.org/2000/svg">
<g clip-path="url(#clip0_110_4354)">
<path d="M32.93 15.07C31.2099 14.4398 29.3307 14.3906 27.58 14.93C26.39 15.24 25.25 15.73 24.07 16.1C23.3497 16.3645 22.5782 16.4597 21.8152 16.3782C21.0522 16.2967 20.3182 16.0407 19.67 15.63C19.5324 15.5522 19.3842 15.4949 19.23 15.46V6.4C19.2348 6.35346 19.2348 6.30654 19.23 6.26C19.2731 5.90567 19.1892 5.54754 18.9934 5.24915C18.7975 4.95076 18.5022 4.7314 18.16 4.63L12.65 3.03H21.46V9.86C21.4244 10.0775 21.4365 10.3002 21.4954 10.5125C21.5544 10.7249 21.6589 10.9219 21.8016 11.0898C21.9443 11.2578 22.1218 11.3928 22.3218 11.4853C22.5218 11.5778 22.7396 11.6258 22.96 11.6258C23.1804 11.6258 23.3982 11.5778 23.5982 11.4853C23.7982 11.3928 23.9757 11.2578 24.1184 11.0898C24.2611 10.9219 24.3656 10.7249 24.4246 10.5125C24.4835 10.3002 24.4956 10.0775 24.46 9.86V1.51C24.4574 1.11033 24.2974 0.727779 24.0148 0.445165C23.7322 0.162551 23.3497 0.00262086 22.95 0H1.51C1.11033 0.00262086 0.727779 0.162551 0.445165 0.445165C0.162551 0.727779 0.00262086 1.11033 0 1.51V33.86C0 33.86 0 33.95 0 33.99C0 34.03 0 34.07 0 34.12C0.00262086 34.5197 0.162551 34.9022 0.445165 35.1848C0.727779 35.4675 1.11033 35.6274 1.51 35.63H22.86C23.1705 35.6283 23.473 35.5316 23.7269 35.3528C23.9808 35.174 24.1738 34.9218 24.28 34.63C24.4203 34.3937 24.4962 34.1248 24.5 33.85V25.51C24.4417 25.1542 24.2589 24.8307 23.9841 24.5973C23.7093 24.3639 23.3605 24.2358 23 24.2358C22.6395 24.2358 22.2907 24.3639 22.0159 24.5973C21.7411 24.8307 21.5583 25.1542 21.5 25.51V32.6H19.23V19.45C20.1634 19.8169 21.157 20.0068 22.16 20.01C22.6757 19.9881 23.1898 19.9381 23.7 19.86C24.8447 19.642 25.9639 19.3069 27.04 18.86C27.9129 18.4886 28.8307 18.2331 29.77 18.1C30.4061 18.0467 31.0455 18.1533 31.63 18.41C31.8509 18.5198 32.0921 18.5825 32.3385 18.5941C32.5849 18.6057 32.831 18.566 33.0612 18.4775C33.2914 18.3889 33.5007 18.2535 33.6758 18.0798C33.8509 17.9062 33.9881 17.698 34.0785 17.4685C34.1689 17.239 34.2106 16.9932 34.201 16.7468C34.1914 16.5003 34.1307 16.2585 34.0227 16.0368C33.9147 15.815 33.7618 15.6181 33.5737 15.4586C33.3856 15.2991 33.1664 15.1803 32.93 15.11V15.07ZM16.23 32.6H3.03V3.38L16.23 7.22V32.6Z" fill="#01A2BE"/>
</g>
<defs>
<clipPath id="clip0_110_4354">
<rect width="34.19" height="35.63" fill="white"/>
</clipPath>
</defs>
</svg>
