<svg width="40" height="39" viewBox="0 0 40 39" fill="none" xmlns="http://www.w3.org/2000/svg">
<path d="M36.0601 30.4224H3.88006C1.77033 30.4224 0.0600586 32.1304 0.0600586 34.2374C0.0600586 36.3443 1.77033 38.0524 3.88006 38.0524H36.0601C38.1698 38.0524 39.8801 36.3443 39.8801 34.2374C39.8801 32.1304 38.1698 30.4224 36.0601 30.4224Z" fill="#01A2BE"/>
<path d="M36.0601 17.5125H3.88006C1.77033 17.5125 0.0600586 19.2205 0.0600586 21.3275C0.0600586 23.4344 1.77033 25.1425 3.88006 25.1425H36.0601C38.1698 25.1425 39.8801 23.4344 39.8801 21.3275C39.8801 19.2205 38.1698 17.5125 36.0601 17.5125Z" fill="#01A2BE"/>
<path d="M39.9501 8.54256C39.9501 8.54256 39.9501 8.45256 39.9501 8.41256C39.9501 8.37256 39.9501 8.41256 39.9501 8.35256C39.9501 8.15256 39.9501 7.94256 39.9501 7.74256C39.8901 6.67256 39.8301 5.59256 39.7301 4.52256C39.6527 3.49039 39.4096 2.47742 39.0101 1.52256C38.8714 1.19965 38.6898 0.896925 38.4701 0.622557C38.2554 0.330256 37.9376 0.130461 37.5812 0.063622C37.2247 -0.00321711 36.8561 0.0678934 36.5501 0.262557C36.1551 0.498853 35.7893 0.78079 35.4601 1.10256C34.4725 2.06666 33.5939 3.13642 32.8401 4.29256C32.7809 4.38585 32.7274 4.4827 32.6801 4.58256H7.25012C7.20671 4.48074 7.1531 4.38358 7.09012 4.29256C6.35794 3.12246 5.4958 2.03891 4.52012 1.06256C4.18947 0.738304 3.82 0.456165 3.42012 0.222557C3.11565 0.0284934 2.74869 -0.0423006 2.39388 0.0245748C2.03907 0.0914501 1.72306 0.290972 1.51012 0.582557C1.28787 0.856964 1.10292 1.15959 0.960122 1.48256C0.559442 2.4365 0.319529 3.45022 0.250122 4.48256C0.140122 5.55256 0.0901216 6.63256 0.0201216 7.70256C-0.0358928 8.27886 0.0253367 8.86055 0.200121 9.41256C0.245084 9.54449 0.309094 9.66914 0.390121 9.78256C0.669531 10.5 1.15866 11.1165 1.79371 11.5518C2.42875 11.987 3.18023 12.2208 3.95012 12.2226H36.1101C37.0639 12.2182 37.9814 11.8563 38.6813 11.2082C39.3812 10.5602 39.8125 9.67322 39.8901 8.72256C39.9153 8.6644 39.9353 8.60417 39.9501 8.54256Z" fill="#01A2BE"/>
</svg>
