<svg width="40" height="36" viewBox="0 0 40 36" fill="none" xmlns="http://www.w3.org/2000/svg">
<path d="M38.13 7.44705H9.85L8.85 3.00705C8.80367 2.78146 8.70039 2.57147 8.55 2.39705C8.4366 2.12655 8.24638 1.89524 8.00289 1.73172C7.75939 1.5682 7.4733 1.47966 7.18 1.47705H1.5C1.10218 1.47705 0.720644 1.63509 0.43934 1.91639C0.158035 2.1977 0 2.57923 0 2.97705C0 3.37488 0.158035 3.75641 0.43934 4.03771C0.720644 4.31902 1.10218 4.47705 1.5 4.47705H6.2L11 25.8571C11.0348 26.2311 11.2078 26.5787 11.4852 26.832C11.7625 27.0853 12.1244 27.2262 12.5 27.2271H33.6C33.8672 27.2267 34.1297 27.1563 34.3613 27.023C34.5929 26.8896 34.7855 26.698 34.92 26.467C35.0437 26.3148 35.1324 26.1373 35.18 25.9471L39.44 9.47705C39.5345 9.25957 39.5735 9.022 39.5534 8.78573C39.5332 8.54945 39.4547 8.32188 39.3247 8.12352C39.1948 7.92515 39.0176 7.76221 38.809 7.64936C38.6005 7.53651 38.3671 7.4773 38.13 7.47705V7.44705ZM11.74 15.9371H16.98V18.757H12.37L11.74 15.9371ZM20 15.9371H25.95V18.757H20V15.9371ZM29 15.9371H34.5L33.77 18.757H28.97L29 15.9371ZM36 10.3271L35.31 12.9871H28.97V10.3271H36ZM26 10.3271V12.9871H20V10.3271H26ZM17 10.3271V12.9871H11.5C11.3709 12.9867 11.2427 13.0069 11.12 13.0471L10.5 10.3271H17ZM13.6 24.2071L13.05 21.7071H17V24.2071H13.6ZM20.02 24.2071V21.7071H25.97V24.2071H20.02ZM29.02 24.2071V21.7071H33.08L32.43 24.2071H29.02Z" fill="#01A2BE"/>
<path d="M15.5801 28.1172C14.8024 28.1152 14.0416 28.344 13.394 28.7747C12.7464 29.2053 12.2412 29.8184 11.9422 30.5363C11.6432 31.2543 11.5639 32.0448 11.7144 32.8078C11.8649 33.5708 12.2385 34.272 12.7877 34.8226C13.3369 35.3732 14.0371 35.7485 14.7997 35.9009C15.5624 36.0534 16.3531 35.9762 17.0718 35.679C17.7905 35.3818 18.4048 34.8781 18.8371 34.2316C19.2694 33.5851 19.5001 32.8249 19.5001 32.0472C19.5015 31.5316 19.401 31.0208 19.2046 30.544C19.0082 30.0673 18.7197 29.6339 18.3555 29.2689C17.9914 28.9038 17.5588 28.6142 17.0826 28.4165C16.6063 28.2189 16.0958 28.1172 15.5801 28.1172ZM15.5801 34.1172C15.1648 34.1172 14.7588 33.994 14.4134 33.7633C14.0681 33.5325 13.7989 33.2046 13.64 32.8208C13.481 32.4371 13.4395 32.0149 13.5205 31.6075C13.6015 31.2002 13.8015 30.826 14.0952 30.5323C14.3889 30.2386 14.7631 30.0386 15.1704 29.9576C15.5778 29.8765 16 29.9181 16.3838 30.0771C16.7675 30.236 17.0955 30.5052 17.3262 30.8505C17.557 31.1958 17.6801 31.6019 17.6801 32.0172C17.6801 32.5742 17.4589 33.1083 17.0651 33.5021C16.6712 33.896 16.1371 34.1172 15.5801 34.1172Z" fill="#01A2BE"/>
<path d="M31.4 28.1172C30.6218 28.1152 29.8606 28.3443 29.2128 28.7754C28.565 29.2064 28.0597 29.8201 27.761 30.5386C27.4623 31.2571 27.3837 32.0482 27.535 32.8114C27.6863 33.5747 28.0608 34.2759 28.611 34.8261C29.1613 35.3763 29.8624 35.7508 30.6257 35.9022C31.389 36.0535 32.18 35.9748 32.8985 35.6761C33.617 35.3774 34.2307 34.8722 34.6618 34.2243C35.0929 33.5765 35.3219 32.8153 35.3199 32.0372C35.3199 30.9975 34.907 30.0005 34.1718 29.2653C33.4367 28.5302 32.4396 28.1172 31.4 28.1172ZM31.4 34.1172C30.9846 34.1172 30.5786 33.994 30.2333 33.7633C29.8879 33.5325 29.6187 33.2046 29.4598 32.8208C29.3009 32.4371 29.2593 32.0149 29.3403 31.6075C29.4213 31.2002 29.6213 30.826 29.915 30.5323C30.2087 30.2386 30.5829 30.0386 30.9903 29.9576C31.3976 29.8765 31.8199 29.9181 32.2036 30.0771C32.5873 30.236 32.9153 30.5052 33.146 30.8505C33.3768 31.1958 33.4999 31.6019 33.4999 32.0172C33.4973 32.5733 33.2752 33.106 32.882 33.4992C32.4887 33.8925 31.9561 34.1146 31.4 34.1172Z" fill="#01A2BE"/>
<path d="M19.4999 5.73718H27.5799C27.5901 5.574 27.5901 5.41035 27.5799 5.24718C27.5799 5.14718 27.5799 5.03718 27.5799 4.92718C27.575 4.89737 27.575 4.86698 27.5799 4.83718C27.6577 3.58763 27.5465 2.33351 27.2499 1.11718C27.1687 0.844689 27.0363 0.590157 26.8599 0.367175C26.7456 0.198639 26.5721 0.0793265 26.3738 0.0329979C26.1755 -0.0133308 25.967 0.0167234 25.7899 0.117175C25.331 0.402922 24.9334 0.776795 24.6199 1.21718L24.5599 1.28718C23.905 1.11004 23.2148 1.11004 22.5599 1.28718L22.4999 1.23718C22.1943 0.791542 21.8035 0.410878 21.3499 0.117175C21.1774 0.0127026 20.9722 -0.0236716 20.7743 0.0151656C20.5764 0.0540027 20.4001 0.165258 20.2799 0.327175C20.1035 0.550157 19.9711 0.804689 19.8899 1.07718C19.5691 2.30332 19.4376 3.57129 19.4999 4.83718C19.5048 4.86698 19.5048 4.89737 19.4999 4.92718C19.4999 5.03718 19.4999 5.14718 19.4999 5.24718C19.4897 5.41035 19.4897 5.574 19.4999 5.73718Z" fill="#01A2BE"/>
</svg>
