<svg width="46" height="46" viewBox="0 0 46 46" fill="none" xmlns="http://www.w3.org/2000/svg">
<path d="M43.4219 20.2229C43.9502 20.2229 44.4568 20.0094 44.8304 19.6295C45.2039 19.2495 45.4138 18.7341 45.4138 18.1967C45.4138 17.6593 45.2039 17.1439 44.8304 16.7639C44.4568 16.3839 43.9502 16.1704 43.4219 16.1704H42.6162C42.7057 15.237 42.7617 14.2922 42.7617 13.3246C42.7617 6.32383 38.1401 0.632141 32.4331 0.632141C25.8197 0.632141 22.6977 9.4201 22.6977 9.4201C22.6977 9.4201 19.8218 0.632141 13.0517 0.632141C7.34471 0.632141 2.72316 6.32382 2.72316 13.3815C2.72316 14.3491 2.72316 15.2939 2.86863 16.2274H2.14127C1.613 16.2274 1.10636 16.4408 0.732815 16.8208C0.35927 17.2008 0.149414 17.7162 0.149414 18.2536C0.149414 18.791 0.35927 19.3064 0.732815 19.6864C1.10636 20.0664 1.613 20.2798 2.14127 20.2798H3.50647C3.78287 21.5299 4.13415 22.7616 4.55835 23.9681L3.10363 24.3323C2.59294 24.4668 2.15447 24.7996 1.88245 25.2594C1.61043 25.7192 1.52658 26.2691 1.6489 26.7911C1.77846 27.3122 2.10518 27.7602 2.55791 28.0373C3.01063 28.3145 3.55268 28.3985 4.06598 28.271L6.14736 27.7473C6.79313 29.0678 7.51427 30.3487 8.30707 31.5835L6.79639 32.7219C6.36566 33.0352 6.07442 33.5093 5.98634 34.0404C5.89827 34.5716 6.02054 35.1166 6.32641 35.5563C6.63236 35.9937 7.09644 36.2898 7.61676 36.3794C8.13708 36.469 8.6711 36.345 9.10157 36.0344L10.6346 34.8961C14.0364 39.2249 18.1112 42.9586 22.6977 45.9493C27.3373 42.9361 31.4549 39.1628 34.8838 34.7823L36.4616 35.9206C36.8921 36.2311 37.4261 36.3552 37.9464 36.2656C38.4668 36.1759 38.9308 35.8799 39.2368 35.4425C39.5409 35.0032 39.6632 34.4599 39.5774 33.9298C39.4916 33.3996 39.2045 32.9249 38.778 32.608L37.2114 31.4697C37.9878 30.2368 38.7012 28.964 39.3487 27.6563L41.4972 28.1913C41.7529 28.2632 42.0202 28.2824 42.2833 28.2477C42.5465 28.2131 42.8001 28.1254 43.0295 27.9896C43.2588 27.8539 43.4592 27.6729 43.6188 27.4573C43.7784 27.2418 43.8941 26.9959 43.9591 26.7342C44.0844 26.212 44.0019 25.6606 43.7294 25.2001C43.4569 24.7396 43.0166 24.4072 42.5043 24.2754L40.9825 23.8997C41.4001 22.695 41.7512 21.4675 42.0343 20.2229H43.4219ZM38.8116 20.4164C38.5856 21.3445 38.3129 22.2602 37.9947 23.1598L37.7149 23.0915C37.2062 22.9628 36.6681 23.0421 36.2163 23.3124C35.7644 23.5827 35.4346 24.0224 35.2978 24.5372C35.2047 24.9895 35.2645 25.4605 35.4677 25.8738C35.6708 26.287 36.0053 26.6183 36.4169 26.8139C35.9229 27.782 35.3814 28.7242 34.7943 29.637C34.3632 29.3504 33.8402 29.2437 33.3338 29.3391C32.8275 29.4345 32.3767 29.7246 32.0751 30.1492C31.7823 30.5706 31.6575 31.0893 31.7261 31.6006C31.7946 32.1119 32.0513 32.5777 32.4443 32.904C31.9743 33.4845 31.4932 34.0423 30.9784 34.657C29.1136 36.7326 27.0729 38.6372 24.8798 40.3487C24.0069 41.0203 23.2908 41.4871 22.7984 41.8513C22.306 41.5212 21.5898 41.0203 20.717 40.3487C18.5244 38.6407 16.4871 36.7358 14.6295 34.657C14.1148 34.0879 13.6448 33.5187 13.186 32.9381C13.5669 32.6136 13.8157 32.1566 13.8839 31.6559C13.9521 31.1552 13.835 30.6466 13.5553 30.2289C13.2454 29.7932 12.7796 29.4989 12.2583 29.4094C11.7371 29.32 11.2021 29.4426 10.7689 29.7508C10.1781 28.8343 9.63287 27.8883 9.13515 26.9163C9.54936 26.7241 9.88633 26.3933 10.0899 25.9791C10.2936 25.5648 10.3515 25.0921 10.2542 24.6397C10.1246 24.1186 9.79788 23.6706 9.34516 23.3935C8.89244 23.1163 8.35039 23.0323 7.83708 23.1598L7.479 23.2509C7.16069 22.3436 6.88804 21.4203 6.66211 20.4847V20.2912H7.03139C7.55966 20.2912 8.0663 20.0777 8.43984 19.6977C8.81339 19.3178 9.02324 18.8024 9.02324 18.265C9.03225 17.9932 8.98739 17.7224 8.89134 17.4686C8.79528 17.2148 8.64999 16.9833 8.46412 16.7879C8.27826 16.5924 8.05562 16.437 7.80947 16.3309C7.56333 16.2249 7.29871 16.1703 7.03139 16.1704H6.02427C5.9907 15.5557 5.91237 14.941 5.91237 14.2922C5.87579 11.812 6.69104 9.39647 8.21755 7.46216C8.88226 6.5948 9.7303 5.89069 10.6988 5.402C11.6674 4.91331 12.7316 4.65257 13.8126 4.63908C20.4484 4.99197 20.7394 14.554 20.7394 14.554C20.7334 14.8211 20.7795 15.0867 20.8748 15.3355C20.9702 15.5844 21.1129 15.8117 21.2949 16.0042C21.4769 16.1968 21.6946 16.3508 21.9353 16.4575C22.176 16.5641 22.4351 16.6213 22.6977 16.6258C23.2259 16.6258 23.7326 16.4123 24.1061 16.0323C24.4797 15.6523 24.6895 15.1369 24.6895 14.5995C24.6895 14.5995 25.1483 5.09442 31.7394 4.696C32.801 4.71456 33.8453 4.97226 34.7973 5.45056C35.7493 5.92886 36.5852 6.61587 37.2449 7.46216C38.7474 9.40572 39.5386 11.8203 39.483 14.2922C39.483 14.8955 39.483 15.5102 39.4158 16.1249H38.4982C37.9689 16.1249 37.4611 16.338 37.0858 16.7177C36.7105 17.0974 36.4981 17.6127 36.4952 18.1511C36.4981 18.6896 36.7105 19.2049 37.0858 19.5846C37.4611 19.9643 37.9689 20.1774 38.4982 20.1774H38.8004L38.8116 20.4164Z" fill="#EFEFEF"/>
</svg>
