<svg width="38" height="34" viewBox="0 0 38 34" fill="none" xmlns="http://www.w3.org/2000/svg">
<g clip-path="url(#clip0_92_919)">
<path d="M21.8602 1.68999C21.7524 1.45055 21.5876 1.24113 21.3802 1.07999C21.3145 0.828914 21.1839 0.599533 21.0016 0.414858C20.8192 0.230182 20.5915 0.0967061 20.3413 0.0278186C20.0911 -0.0410689 19.8271 -0.042946 19.576 0.0223769C19.3248 0.0876998 19.0952 0.217925 18.9102 0.399989L6.03023 12.4C5.95476 12.4808 5.89082 12.5717 5.84023 12.67C5.63573 12.6981 5.44059 12.7734 5.27023 12.89L0.690233 15.54C0.402509 15.724 0.186215 16.0008 0.0771154 16.3244C-0.0319846 16.6481 -0.0273572 16.9993 0.0902328 17.32C0.0923909 17.529 0.14378 17.7346 0.240233 17.92L4.16023 25.92C4.22174 26.0398 4.2991 26.1508 4.39023 26.25C4.61031 26.5579 4.93799 26.7719 5.30839 26.8497C5.67878 26.9275 6.06489 26.8634 6.39023 26.67L7.00023 26.32C7.02932 26.5075 7.08663 26.6896 7.17023 26.86L9.75023 32.64C9.95447 33.0364 10.2853 33.3532 10.6902 33.54L10.8802 33.62H11.0002H11.1402H11.3002H11.4302H11.6202H11.6902C11.8209 33.6015 11.9467 33.5573 12.0602 33.49L16.6902 31.34H16.7502H16.8302C17.2052 31.1081 17.4746 30.7388 17.5811 30.311C17.6876 29.8831 17.6227 29.4306 17.4002 29.05L14.9302 23.54L28.4002 21.87C28.5713 21.844 28.7368 21.79 28.8902 21.71L28.9802 21.66C29.3141 21.4861 29.5715 21.1944 29.7027 20.8416C29.8338 20.4887 29.8294 20.0998 29.6902 19.75L21.8602 1.68999ZM19.5402 3.94999L26.1202 19.13L11.9102 20.89L8.60023 14.15L19.5402 3.94999ZM6.10023 15.95L8.98023 21.82L6.24023 23.37L3.38023 17.54L6.10023 15.95ZM9.49023 25L11.0402 24.12C11.2473 24.1203 11.4519 24.0759 11.6402 23.99H11.8402C11.876 24.1977 11.9399 24.3995 12.0302 24.59L14.1102 29.25L12.0002 30.25L9.93023 25.54C9.81648 25.3238 9.66782 25.1278 9.49023 24.96V25Z" fill="#01A2BE"/>
<path d="M30.0199 9.86005C30.0983 10.0442 30.2124 10.2109 30.3557 10.3505C30.499 10.4901 30.6686 10.5999 30.8547 10.6734C31.0408 10.7469 31.2396 10.7827 31.4397 10.7787C31.6397 10.7747 31.837 10.7309 32.0199 10.65L37.0199 8.76005C37.3886 8.60092 37.6789 8.30186 37.8271 7.92866C37.9752 7.55547 37.9691 7.1387 37.8099 6.77005C37.6508 6.4014 37.3518 6.11106 36.9786 5.96291C36.6054 5.81475 36.1886 5.82092 35.8199 5.98005L30.8199 7.87005C30.4506 8.02857 30.159 8.32695 30.0091 8.69989C29.8592 9.07283 29.8631 9.48997 30.0199 9.86005Z" fill="#01A2BE"/>
<path d="M36.2098 13.72L30.9398 13.12C30.733 13.0862 30.5213 13.0958 30.3184 13.1482C30.1155 13.2006 29.9256 13.2947 29.7611 13.4245C29.5965 13.5543 29.4607 13.7169 29.3624 13.902C29.2641 14.0872 29.2054 14.2907 29.1901 14.4998C29.1747 14.7088 29.2031 14.9188 29.2734 15.1163C29.3436 15.3137 29.4542 15.4944 29.5981 15.6469C29.742 15.7993 29.916 15.92 30.1092 16.0015C30.3023 16.083 30.5103 16.1233 30.7198 16.12L35.9898 16.72C36.367 16.7141 36.7284 16.5672 37.0027 16.3082C37.277 16.0492 37.4444 15.6969 37.472 15.3207C37.4996 14.9444 37.3853 14.5715 37.1517 14.2752C36.9182 13.979 36.5821 13.7809 36.2098 13.72Z" fill="#01A2BE"/>
<path d="M29.2701 6.69997L32.8401 2.77997C33.0974 2.47232 33.2219 2.07508 33.1863 1.67562C33.1506 1.27617 32.9578 0.907233 32.6501 0.649973C32.3425 0.392713 31.9452 0.268204 31.5458 0.303836C31.1463 0.339468 30.7774 0.532322 30.5201 0.839974L26.9401 4.74997C26.8042 4.90187 26.7002 5.07957 26.6343 5.27249C26.5684 5.46542 26.542 5.66962 26.5567 5.87295C26.5713 6.07628 26.6267 6.27459 26.7196 6.45607C26.8124 6.63756 26.9409 6.7985 27.0972 6.92934C27.2535 7.06018 27.4346 7.15823 27.6296 7.21767C27.8246 7.2771 28.0296 7.2967 28.2323 7.2753C28.435 7.2539 28.6314 7.19194 28.8097 7.0931C28.988 6.99426 29.1446 6.86057 29.2701 6.69997Z" fill="#01A2BE"/>
</g>
<defs>
<clipPath id="clip0_92_919">
<rect width="37.88" height="33.75" fill="white"/>
</clipPath>
</defs>
</svg>
