<svg width="23" height="23" viewBox="0 0 23 23" fill="none" xmlns="http://www.w3.org/2000/svg">
<path d="M20.6832 2.31051C19.2678 0.928007 17.3861 0.125594 15.4086 0.061312C13.4312 -0.00296959 11.5013 0.67554 9.99918 1.9632C8.49704 3.25086 7.53152 5.05432 7.29277 7.01837C7.05403 8.98242 7.55938 10.9647 8.70928 12.5747L0.27244 20.993C0.185161 21.0799 0.11591 21.1832 0.0686549 21.2969C0.0213994 21.4107 -0.00292969 21.5326 -0.00292969 21.6558C-0.00292969 21.7789 0.0213994 21.9009 0.0686549 22.0146C0.11591 22.1284 0.185161 22.2317 0.27244 22.3186L0.681276 22.7212C0.768184 22.8085 0.871471 22.8778 0.985214 22.925C1.09896 22.9723 1.22091 22.9966 1.34408 22.9966C1.46725 22.9966 1.58921 22.9723 1.70295 22.925C1.81669 22.8778 1.91998 22.8085 2.00689 22.7212L10.419 14.3092C12.0293 15.4928 14.0277 16.0236 16.0131 15.7949C17.9986 15.5663 19.824 14.5952 21.1232 13.0765C22.4223 11.5578 23.099 9.60397 23.0174 7.60709C22.9358 5.61021 22.1019 3.7181 20.6832 2.31051ZM18.9239 11.757C18.1902 12.4847 17.2574 12.9789 16.2433 13.1773C15.2291 13.3757 14.1789 13.2695 13.225 12.872C12.2711 12.4746 11.4562 11.8037 10.883 10.9438C10.3098 10.084 10.0039 9.07376 10.0039 8.04037C10.0039 7.00699 10.3098 5.99673 10.883 5.1369C11.4562 4.27707 12.2711 3.60616 13.225 3.2087C14.1789 2.81125 15.2291 2.70504 16.2433 2.90346C17.2574 3.10188 18.1902 3.59605 18.9239 4.3237C19.4146 4.81031 19.8041 5.38927 20.0699 6.02718C20.3357 6.66508 20.4725 7.34931 20.4725 8.04037C20.4725 8.73144 20.3357 9.41566 20.0699 10.0536C19.8041 10.6915 19.4146 11.2704 18.9239 11.757Z" fill="#01A2BE"/>
</svg>
