<svg width="35" height="32" viewBox="0 0 35 32" fill="none" xmlns="http://www.w3.org/2000/svg">
<g clip-path="url(#clip0_92_909)">
<path d="M21.0098 31.78C22.0927 29.9662 22.663 27.8924 22.6598 25.78C22.6756 24.2738 22.3941 22.7793 21.8314 21.3821C21.2687 19.9849 20.4359 18.7125 19.3806 17.6377C18.3253 16.5629 17.0683 15.7069 15.6817 15.1187C14.295 14.5305 12.806 14.2217 11.2998 14.21C8.26647 14.2495 5.37283 15.4912 3.25418 17.6623C1.13554 19.8334 -0.0349264 22.7566 -0.000226468 25.79C-0.00341757 27.9024 0.566858 29.9762 1.64977 31.79L21.0098 31.78Z" fill="#01A2BE"/>
<path d="M24.0099 15.12C22.4261 15.1235 20.8636 15.4859 19.4399 16.18C21.8684 17.8738 23.5652 20.4246 24.1886 23.3191C24.812 26.2135 24.3158 29.2367 22.7999 31.78H33.1799C34.2078 30.0637 34.7504 28.1005 34.7499 26.1C34.7793 23.2205 33.6648 20.447 31.6512 18.3884C29.6376 16.3298 26.8894 15.1543 24.0099 15.12Z" fill="#01A2BE"/>
<path d="M17.81 7.15001C17.81 6.61001 17.81 6.08001 17.74 5.54001C17.75 5.50743 17.75 5.47259 17.74 5.44001C17.74 5.24001 17.74 5.04001 17.69 4.84001C17.6955 4.817 17.6955 4.79301 17.69 4.77001C17.6445 3.75041 17.4629 2.74147 17.15 1.77001C17.0589 1.45127 16.9207 1.14793 16.74 0.870007C16.7018 0.786783 16.6474 0.711996 16.58 0.650006C16.374 0.326007 16.0495 0.0954449 15.6757 0.00761519C15.302 -0.0802145 14.9087 -0.0183405 14.58 0.180007C14.1651 0.399336 13.7899 0.686649 13.47 1.03001C13.3644 1.09888 13.2728 1.1871 13.2 1.29001C12.9313 1.55219 12.6775 1.82929 12.44 2.12001C12.145 2.07977 11.8477 2.05973 11.55 2.06001C11.2556 2.05975 10.9616 2.07979 10.67 2.12001C10.4324 1.82929 10.1787 1.55219 9.90999 1.29001C9.83538 1.18866 9.74408 1.10074 9.63999 1.03001C9.32008 0.686649 8.94488 0.399336 8.52999 0.180007C8.20127 -0.0183405 7.808 -0.0802145 7.43426 0.00761519C7.06051 0.0954449 6.73596 0.326007 6.52999 0.650006C6.46259 0.711996 6.4082 0.786783 6.36999 0.870007C6.18929 1.14793 6.0511 1.45127 5.95999 1.77001C5.64164 2.7401 5.45989 3.74979 5.41999 4.77001C5.41872 4.79332 5.41872 4.81669 5.41999 4.84001C5.41999 5.04001 5.41999 5.24001 5.41999 5.44001C5.40997 5.47259 5.40997 5.50743 5.41999 5.54001C5.41999 6.08001 5.35999 6.61001 5.33999 7.15001C5.33003 7.28315 5.33003 7.41686 5.33999 7.55001C5.33999 7.67001 5.33999 7.79001 5.33999 7.92001C5.39479 9.52396 6.0836 11.0407 7.25531 12.1374C8.42702 13.2341 9.98592 13.8213 11.59 13.77C13.184 13.8161 14.7319 13.232 15.8981 12.1444C17.0643 11.0568 17.7549 9.55334 17.82 7.96001C17.82 7.83001 17.82 7.71001 17.82 7.59001C17.8288 7.44332 17.8254 7.29615 17.81 7.15001Z" fill="#01A2BE"/>
<path d="M30.4202 9.06996C30.4202 8.62996 30.4202 8.18996 30.3602 7.74996C30.3652 7.72017 30.3652 7.68975 30.3602 7.65996C30.3602 7.49996 30.3602 7.32996 30.3602 7.16996C30.3602 7.00996 30.3602 7.16996 30.3602 7.10996C30.3199 6.28344 30.1685 5.4661 29.9102 4.67996C29.8398 4.41745 29.7285 4.16771 29.5802 3.93996C29.5522 3.87025 29.5076 3.80845 29.4502 3.75996C29.2799 3.50168 29.0179 3.31772 28.7171 3.24532C28.4164 3.17291 28.0993 3.21746 27.8302 3.36996C27.49 3.55099 27.1824 3.78758 26.9202 4.06996C26.8352 4.12666 26.7608 4.19772 26.7002 4.27996C26.4802 4.49996 26.2702 4.72996 26.0702 4.95996C25.8315 4.92805 25.591 4.91135 25.3502 4.90996C25.106 4.91135 24.8622 4.92805 24.6202 4.95996C24.4202 4.72996 24.2202 4.49996 24.0002 4.27996C23.9369 4.20011 23.8629 4.12944 23.7802 4.06996C23.5144 3.78725 23.2035 3.55069 22.8602 3.36996C22.5925 3.21804 22.2771 3.1738 21.978 3.24625C21.6789 3.3187 21.4186 3.5024 21.2502 3.75996C21.1928 3.80845 21.1482 3.87025 21.1202 3.93996C20.9688 4.16732 20.8541 4.41703 20.7802 4.67996C20.5116 5.46469 20.3501 6.28206 20.3002 7.10996C20.3048 7.12969 20.3048 7.15024 20.3002 7.16996C20.3002 7.32996 20.3002 7.49996 20.3002 7.65996C20.2953 7.68977 20.2953 7.72016 20.3002 7.74996C20.3002 8.18996 20.3002 8.62996 20.2502 9.06996C20.2402 9.17974 20.2402 9.29019 20.2502 9.39996C20.2502 9.49996 20.2502 9.59996 20.2502 9.69996C20.3021 10.9998 20.8586 12.2282 21.8015 13.1244C22.7444 14.0206 23.9994 14.514 25.3002 14.5C26.6146 14.5352 27.8901 14.0512 28.8503 13.1528C29.8104 12.2544 30.378 11.0139 30.4302 9.69996C30.4302 9.59996 30.4302 9.49996 30.4302 9.39996C30.4302 9.29996 30.4202 9.17996 30.4202 9.06996Z" fill="#01A2BE"/>
</g>
<defs>
<clipPath id="clip0_92_909">
<rect width="34.74" height="31.79" fill="white"/>
</clipPath>
</defs>
</svg>
