<svg width="75" height="59" viewBox="0 0 75 59" fill="none" xmlns="http://www.w3.org/2000/svg">
<g clip-path="url(#clip0_129_8591)">
<path d="M35.8566 5.28126C35.7816 5.01744 35.7616 4.74109 35.798 4.46929C35.8345 4.19749 35.9265 3.93603 36.0684 3.70105C36.492 3.03273 37.0319 3.03571 37.4525 3.70105L37.5837 3.91492C37.7776 3.58521 37.9566 3.24957 38.4129 3.27036C38.8693 3.29115 38.9946 3.6268 39.1527 3.94165C39.3254 4.366 39.376 4.82987 39.2988 5.28126C39.5971 5.0763 39.8954 4.92779 40.2265 5.0763C40.3701 5.15327 40.4877 5.27068 40.5646 5.41385C40.6415 5.55702 40.6744 5.7196 40.659 5.88126C40.6731 6.26886 40.5496 6.64902 40.3101 6.95489C40.0706 7.26075 39.7305 7.47273 39.3495 7.55354C39.5225 7.73176 39.6747 7.88027 39.8208 8.03473C40.0027 8.2106 40.1235 8.43957 40.1659 8.68844C40.2083 8.93732 40.1699 9.19317 40.0565 9.41889C39.9422 9.60991 39.7751 9.76414 39.5751 9.86316C39.3752 9.96217 39.1509 10.0018 38.929 9.97731C37.9808 9.89372 37.0282 9.87387 36.0774 9.9179C35.8345 9.92905 35.5949 9.85871 35.397 9.71814C35.199 9.57758 35.0542 9.37493 34.9857 9.14265C34.8871 8.91576 34.871 8.66175 34.9401 8.42432C35.0093 8.18688 35.1593 7.98085 35.3645 7.84166C35.4787 7.74392 35.5864 7.63874 35.6866 7.52681C35.3866 7.45379 35.1129 7.29892 34.8964 7.0796C34.6798 6.86028 34.5289 6.58519 34.4607 6.28522C34.3235 5.85749 34.2668 5.39413 34.6814 5.0971C35.096 4.80007 35.4599 5.0971 35.788 5.35848C35.788 5.39413 35.803 5.4565 35.8596 5.42383C35.9163 5.39116 35.8566 5.32284 35.8566 5.28126ZM39.9461 8.81592C39.9168 8.56253 39.7997 8.32723 39.615 8.15057C39.1146 7.7166 38.6395 7.25446 38.1922 6.76641C37.8701 6.43373 37.2973 6.33868 36.9991 6.60304C36.4413 7.09314 35.8954 7.60106 35.3764 8.13275C35.2449 8.25627 35.1578 8.41948 35.1287 8.59718C35.0996 8.77487 35.13 8.95717 35.2153 9.11592C35.277 9.28927 35.3935 9.438 35.5474 9.53976C35.7012 9.64153 35.884 9.69084 36.0684 9.68028C37.0178 9.58017 37.9762 9.60213 38.92 9.74562C39.0506 9.76097 39.183 9.7482 39.3083 9.7082C39.4335 9.66819 39.5486 9.60188 39.6459 9.51374C39.7432 9.4256 39.8203 9.31769 39.8721 9.1973C39.9239 9.07691 39.9491 8.94685 39.9461 8.81592ZM39.09 4.77333C39.0892 4.40572 38.9803 4.0464 38.7768 3.73967C38.7338 3.67027 38.6737 3.61298 38.6022 3.57324C38.5306 3.53351 38.4501 3.51265 38.3682 3.51265C38.2863 3.51265 38.2057 3.53351 38.1342 3.57324C38.0627 3.61298 38.0026 3.67027 37.9595 3.73967C37.6135 4.19709 37.6613 5.35551 38.0222 5.81888C38.0656 5.89293 38.1288 5.95352 38.2048 5.99392C38.2807 6.03431 38.3664 6.05293 38.4524 6.0477C38.5383 6.04247 38.6211 6.01358 38.6916 5.96427C38.762 5.91496 38.8174 5.84715 38.8514 5.76839C39.03 5.46801 39.1161 5.122 39.099 4.77333H39.09ZM36.0118 4.92779C36.0245 5.10937 36.0721 5.28684 36.1519 5.45056C36.2653 5.68819 36.4055 5.9169 36.7068 5.91987C37.008 5.92284 37.1661 5.67631 37.2765 5.41492C37.3823 5.15378 37.4294 4.87272 37.4145 4.5915C37.3995 4.31029 37.3229 4.03575 37.19 3.78719C36.9752 3.33868 36.5666 3.3268 36.2951 3.73967C36.1014 4.1052 36.0069 4.51472 36.0207 4.92779H36.0118ZM36.0804 6.53175C36.0615 6.2895 35.9879 6.05463 35.8649 5.84475C35.742 5.63487 35.5729 5.45543 35.3705 5.31987C34.9588 5.06442 34.6247 5.24561 34.6098 5.72086C34.6021 5.97095 34.6518 6.2195 34.7552 6.44755C34.8585 6.6756 35.0129 6.87711 35.2064 7.0367C35.2777 7.12595 35.3759 7.19002 35.4865 7.21943C35.5972 7.24885 35.7144 7.24206 35.8209 7.20007C36.0684 7.08423 36.0983 6.85552 36.0893 6.53175H36.0804ZM38.9826 6.53175C38.9826 7.14364 39.266 7.38126 39.6627 7.22086C40.1638 7.02185 40.5576 6.08324 40.3726 5.57234C40.2384 5.22779 40.0087 5.1268 39.6896 5.32581C39.4837 5.45748 39.3127 5.63666 39.1912 5.84815C39.0697 6.05964 39.0012 6.2972 38.9916 6.54066L38.9826 6.53175ZM38.8126 6.14858C38.7202 6.20051 38.6179 6.23276 38.5123 6.24327C38.4067 6.25379 38.3 6.24235 38.1991 6.20968C38.0981 6.17702 38.0051 6.12383 37.9259 6.05349C37.8466 5.98315 37.7829 5.89719 37.7388 5.80106C37.5927 5.55452 37.4972 5.55155 37.3361 5.77433C37.0378 6.17532 36.6829 6.27334 36.1967 5.95254C36.2809 6.2572 36.3211 6.57225 36.316 6.88819C37.193 5.95254 37.9923 6.01789 38.753 6.98621C38.7301 6.70809 38.7532 6.42812 38.8216 6.1575L38.8126 6.14858Z" fill="#1F201F"/>
<path d="M48.4739 7.28322C50.8602 7.49411 53.2464 7.71985 55.5879 8.08223C56.2113 8.18025 56.8377 8.24857 57.4641 8.33471C57.6447 8.38243 57.7998 8.49774 57.897 8.65657C57.9943 8.8154 58.0262 9.00549 57.9861 9.18718C57.9294 9.3357 57.8042 9.31491 57.6878 9.30303C56.4291 9.13471 55.1713 8.96243 53.9146 8.78619C53.1659 8.6852 52.4232 8.57827 51.6625 8.53075C50.5529 8.46243 49.4493 8.34659 48.3427 8.23372C47.9072 8.18916 48.0146 7.80599 48.0026 7.55055C47.9996 7.23272 48.2532 7.22381 48.4739 7.28322ZM57.4641 9.01194C57.5685 9.01194 57.7057 9.03273 57.6998 8.83075C57.6938 8.62877 57.5894 8.55748 57.4015 8.53372C56.4231 8.41193 55.4448 8.29906 54.4724 8.14461C52.5365 7.84758 50.5947 7.72876 48.6409 7.51193C48.5008 7.51193 48.2979 7.36045 48.2532 7.62777C48.2084 7.8951 48.3516 7.98124 48.5843 8.00203C49.0675 8.04659 49.5507 8.09114 50.0309 8.14461C51.4448 8.30203 52.8676 8.35847 54.2725 8.59312C55.3195 8.7654 56.3814 8.87233 57.4641 9.01194Z" fill="#1F201F"/>
<path d="M27.1017 7.54453C27.0778 7.80889 27.0211 8.02275 26.6363 8.05542C24.8466 8.20691 23.057 8.2574 21.2852 8.51285C20.397 8.65251 19.4997 8.72697 18.6006 8.73562C18.2692 8.76612 17.9402 8.81972 17.6163 8.89602C17.3866 8.92869 17.0883 9.0178 17.0525 8.65542C17.0227 8.35839 17.0525 8.06136 17.4373 7.98414C17.8847 7.90988 18.3322 7.85047 18.7856 7.81186C21.2523 7.598 23.7042 7.25344 26.177 7.11978C26.3398 7.11638 26.5022 7.10249 26.6632 7.07819C27.0301 7.00691 27.1196 7.2178 27.1017 7.54453ZM17.5745 8.60493C19.6804 8.50988 21.7505 8.15047 23.8593 8.01087C24.7005 7.9574 25.5387 7.89206 26.3798 7.8178C26.5826 7.79998 26.8869 7.85344 26.8541 7.49701C26.8213 7.14057 26.5349 7.33661 26.3679 7.34255C23.7251 7.44948 21.1122 7.86235 18.4753 8.04651C18.1532 8.07027 17.834 8.13859 17.5149 8.18909C17.3299 8.21582 17.2822 8.34354 17.2882 8.50394C17.2971 8.74453 17.4672 8.61681 17.5745 8.60493Z" fill="#1F201F"/>
<path d="M30.3593 7.40797C30.3026 7.11094 29.9715 7.11094 29.8313 6.90599C29.7538 6.79906 29.5181 6.79312 29.5718 6.60896C29.6255 6.4248 29.8373 6.37133 30.0133 6.38915C30.5621 6.45153 30.8306 6.19311 30.926 5.67628C30.9372 5.57811 30.9853 5.48778 31.0605 5.42335C31.1357 5.35891 31.2326 5.32513 31.3317 5.32876C31.5942 5.32876 31.5047 5.55153 31.5286 5.69113C31.6091 6.13965 31.797 6.42183 32.3309 6.28519C32.4831 6.24658 32.6919 6.1842 32.7933 6.41292C32.8947 6.64163 32.7277 6.75747 32.5547 6.84955C32.1072 7.09015 31.9581 7.40797 32.2564 7.87134C32.3094 7.93468 32.3354 8.01622 32.3287 8.09842C32.322 8.18063 32.2832 8.25694 32.2206 8.31094C32.1517 8.3567 32.0684 8.37563 31.9864 8.36413C31.9045 8.35263 31.8296 8.31149 31.7761 8.24856C31.3735 7.7852 31.0006 7.99609 30.6367 8.29015C30.5055 8.39708 30.3712 8.51589 30.2102 8.40599C30.0491 8.29609 30.1237 8.08817 30.1744 7.9248C30.2251 7.76143 30.2907 7.60104 30.3593 7.40797ZM29.8642 6.62084C30.6725 6.9446 30.7322 7.45252 30.3504 8.15352C30.8843 7.57728 31.4093 7.5149 32.0237 8.03767C31.5644 7.27728 31.9432 6.87331 32.5457 6.505C31.794 6.66539 31.3526 6.41886 31.2273 5.61391C31.108 6.44559 30.6993 6.7545 29.8642 6.62084Z" fill="#1F201F"/>
<path d="M42.9287 6.37127C43.2956 6.46335 43.5014 6.37127 43.5044 5.89899C43.5044 5.73562 43.5432 5.45344 43.8265 5.42077C44.1099 5.3881 44.1695 5.67622 44.1994 5.83661C44.2978 6.39206 44.605 6.57325 45.136 6.49899C45.2158 6.47744 45.301 6.48733 45.3737 6.52659C45.4465 6.56585 45.5013 6.63148 45.5267 6.70988C45.5953 6.92969 45.4074 7.00691 45.2762 7.05444C44.8138 7.26533 44.787 7.57424 45.0107 7.97523C45.0942 8.12672 45.1807 8.31979 45.0107 8.4683C44.8407 8.61682 44.6587 8.45048 44.5484 8.35246C44.1546 8.00197 43.7877 7.87424 43.394 8.35246C43.3406 8.41494 43.2656 8.45513 43.1838 8.46503C43.102 8.47494 43.0194 8.45384 42.9526 8.40593C42.8984 8.35551 42.865 8.28681 42.859 8.21323C42.8529 8.13964 42.8746 8.06644 42.9197 8.00791C43.218 7.56533 43.0778 7.24751 42.6543 6.98315C42.4813 6.87325 42.174 6.79008 42.3172 6.49602C42.4395 6.26137 42.699 6.36236 42.9287 6.37127ZM44.8347 8.2188C44.3515 7.52375 44.605 7.07226 45.2672 6.69206C44.432 6.90889 44.0532 6.50493 43.8265 5.78018C43.8086 6.65345 43.23 6.65345 42.6095 6.62672C43.2896 6.96236 43.5939 7.39008 43.1614 8.14454C43.7877 7.54751 44.3038 7.69008 44.8407 8.2188H44.8347Z" fill="#1F201F"/>
<path d="M39.9461 8.81582C39.9476 8.94689 39.9209 9.07676 39.8676 9.19664C39.8143 9.31652 39.7358 9.4236 39.6374 9.51064C39.539 9.59767 39.4229 9.66263 39.2971 9.7011C39.1712 9.73958 39.0386 9.75067 38.9081 9.73364C37.9677 9.59512 37.0134 9.57715 36.0684 9.68017C35.8875 9.68896 35.7084 9.64015 35.5572 9.54082C35.4059 9.44149 35.2904 9.2968 35.2272 9.1277C35.142 8.96895 35.1115 8.78665 35.1406 8.60896C35.1697 8.43126 35.2568 8.26805 35.3883 8.14453C35.9073 7.61284 36.4532 7.10492 37.011 6.61482C37.3093 6.35046 37.882 6.44551 38.2041 6.77819C38.6515 7.26624 39.1265 7.72838 39.6269 8.16235C39.8048 8.33769 39.9174 8.56819 39.9461 8.81582Z" fill="#039EB6"/>
<path d="M39.0987 4.77322C39.1129 5.1169 39.0269 5.45732 38.8511 5.75342C38.8171 5.83218 38.7617 5.89999 38.6913 5.94931C38.6208 5.99862 38.538 6.0275 38.4521 6.03273C38.3661 6.03797 38.2804 6.01935 38.2045 5.97895C38.1285 5.93855 38.0653 5.87796 38.0219 5.80392C37.649 5.3554 37.6132 4.19698 37.9592 3.7247C38.0023 3.6553 38.0624 3.59801 38.1339 3.55827C38.2054 3.51854 38.286 3.49768 38.3679 3.49768C38.4498 3.49768 38.5303 3.51854 38.6019 3.55827C38.6734 3.59801 38.7335 3.6553 38.7765 3.7247C38.986 4.03465 39.0981 4.39963 39.0987 4.77322Z" fill="#039EB6"/>
<path d="M36.0204 4.92771C36.0093 4.51385 36.107 4.10428 36.3037 3.73958C36.5752 3.32671 36.9838 3.33859 37.1986 3.78711C37.3315 4.03566 37.4082 4.3102 37.4231 4.59142C37.4381 4.87264 37.3909 5.1537 37.2851 5.41484C37.1747 5.67622 37.0405 5.91979 36.7154 5.91979C36.3903 5.91979 36.2739 5.6881 36.1606 5.45048C36.0807 5.28676 36.0331 5.10929 36.0204 4.92771Z" fill="#039EB6"/>
<path d="M36.089 6.53168C36.089 6.85544 36.0651 7.08415 35.8295 7.2C35.723 7.24198 35.6058 7.24877 35.4952 7.21936C35.3845 7.18994 35.2863 7.12588 35.215 7.03663C35.0215 6.87703 34.8672 6.67552 34.7638 6.44747C34.6604 6.21943 34.6107 5.97087 34.6185 5.72078C34.6334 5.24553 34.9675 5.06435 35.3791 5.31979C35.5816 5.45535 35.7506 5.6348 35.8736 5.84467C35.9965 6.05455 36.0702 6.28942 36.089 6.53168Z" fill="#039EB6"/>
<path d="M38.9912 6.54064C39.0033 6.2979 39.0738 6.06161 39.1968 5.85172C39.3199 5.64183 39.4918 5.46449 39.6981 5.3347C40.0173 5.13568 40.247 5.23668 40.3812 5.58123C40.5751 6.09212 40.1724 7.03074 39.6713 7.22975C39.2746 7.39015 39.0002 7.15252 38.9912 6.54064Z" fill="#039EB6"/>
<path d="M35.8563 5.28125C35.8563 5.32283 35.8741 5.39115 35.8563 5.40006C35.8384 5.40897 35.7966 5.37036 35.7847 5.33472C35.8057 5.31341 35.8298 5.29539 35.8563 5.28125Z" fill="#FDFDFD"/>
<path d="M57.4641 9.01193C56.3813 8.87232 55.3195 8.76539 54.2695 8.59014C52.8646 8.35549 51.4418 8.29311 50.0279 8.14163C49.5477 8.08816 49.0645 8.04361 48.5813 7.99905C48.3486 7.97826 48.2114 7.86539 48.2502 7.6248C48.2889 7.3842 48.4977 7.4941 48.6379 7.50895C50.5798 7.72579 52.5335 7.83569 54.4694 8.14163C55.4418 8.29608 56.4201 8.40896 57.3985 8.53074C57.5894 8.55747 57.6968 8.62579 57.6968 8.82777C57.6968 9.02975 57.5685 9.01193 57.4641 9.01193Z" fill="#039EB6"/>
<path d="M17.5746 8.60501C17.4703 8.60501 17.3002 8.74461 17.2764 8.50996C17.2764 8.34956 17.3181 8.21293 17.5031 8.1951C17.8222 8.14461 18.1414 8.07629 18.4635 8.05253C21.1003 7.86837 23.7133 7.45847 26.3561 7.34857C26.5231 7.34857 26.8065 7.11094 26.8423 7.50302C26.8781 7.8951 26.5708 7.80005 26.368 7.82382C25.5268 7.89807 24.6887 7.96342 23.8475 8.01689C21.7506 8.15055 19.6775 8.50996 17.5746 8.60501Z" fill="#039EB6"/>
<path d="M29.8638 6.62087C30.684 6.75453 31.1076 6.44562 31.2269 5.61987C31.3492 6.41888 31.7937 6.66542 32.5453 6.51096C31.9488 6.87928 31.564 7.28324 32.0233 8.04364C31.4089 7.52087 30.8839 7.58324 30.35 8.15948C30.7318 7.45255 30.6721 6.94463 29.8638 6.62087Z" fill="#039EB6"/>
<path d="M44.8409 8.21877C44.304 7.69006 43.788 7.54748 43.1675 8.14451C43.6001 7.39006 43.2958 6.95639 42.6157 6.62669C43.2451 6.65342 43.8089 6.65342 43.8327 5.78015C44.0594 6.50491 44.4293 6.90887 45.2734 6.69203C44.6112 7.07223 44.3577 7.52372 44.8409 8.21877Z" fill="#039EB6"/>
<path d="M37.0881 0C40.6272 0.0449217 44.1607 0.292858 47.6711 0.742576C50.9273 1.15536 54.1513 1.78951 57.3205 2.6406C59.8321 3.32377 62.3913 3.94159 64.6732 5.24853C67.0893 6.63566 69.2548 8.35546 70.7432 10.7466C71.8618 12.5287 72.5329 14.5545 73.1653 16.5713C74.6208 21.3027 75.2207 26.2538 74.9371 31.1941C74.7856 34.6263 74.2116 38.027 73.2279 41.3199C72.6432 43.1727 71.9571 44.9923 71.1728 46.7704C70.5553 48.208 69.574 49.313 68.5777 50.4387C67.307 51.8764 65.7112 52.8744 64.0468 53.816C62.445 54.7071 60.6464 54.9625 58.976 55.616C57.7829 56.0823 56.5062 56.1684 55.2863 56.5071C53.5858 56.9592 51.8569 57.2976 50.1111 57.5199C48.2737 57.7843 46.4303 58.0754 44.563 58.1972C42.2782 58.3487 39.9993 58.5388 37.7025 58.5506C35.895 58.5506 34.0844 58.5922 32.2768 58.5269C30.4692 58.4615 28.5721 58.3516 26.7347 58.1318C24.4141 57.8526 22.0964 57.5378 19.7907 57.1219C16.8524 56.6159 13.9501 55.9214 11.1018 55.0427C9.54174 54.5378 8.21738 53.6288 6.96161 52.6071C5.39265 51.3298 4.02652 49.8714 3.30766 47.9585C2.21701 45.0594 1.39626 42.0666 0.855783 39.0179C0.0824774 34.6299 -0.169819 30.1666 0.104106 25.7199C0.223692 23.8685 0.43874 22.0245 0.748396 20.1951C1.19163 17.5933 1.80643 15.0234 2.5888 12.502C2.91691 11.4238 3.23906 10.2862 3.89528 9.35349C4.67502 8.22385 5.59281 7.19516 6.62753 6.2911C7.88562 5.25494 9.28702 4.40462 10.7886 3.76635C11.6983 3.3505 12.7244 3.27922 13.664 2.95545C15.5568 2.35383 17.4963 1.90876 19.4626 1.62476C21.5953 1.27129 23.734 0.900002 25.8936 0.653467C29.5058 0.228714 33.1299 0.0653467 37.0881 0ZM34.848 58.3368C37.069 58.4052 39.2921 58.3605 41.5086 58.2031C43.8949 58.0605 46.2811 57.7991 48.6674 57.4902C50.6599 57.2318 52.6196 56.816 54.5853 56.4536C56.8178 56.0183 59.0197 55.4399 61.1773 54.7219C61.8557 54.5145 62.5202 54.2644 63.1669 53.9734C66.5911 52.3754 69.3174 50.0674 71.0057 46.616C71.7101 45.1475 72.3082 43.6307 72.7954 42.0773C73.5708 39.667 74.1132 37.1884 74.4151 34.6753C74.6661 32.6901 74.7897 30.691 74.7849 28.6902C74.7668 26.9803 74.6533 25.2727 74.4449 23.5753C74.0697 20.4158 73.3023 17.3149 72.1601 14.3436C71.6351 12.9951 71.1549 11.6169 70.2839 10.4228C68.776 8.4131 66.8654 6.73712 64.6732 5.501C62.3645 4.14357 59.7575 3.53763 57.2161 2.82773C54.2001 2.01201 51.1316 1.40266 48.032 1.00396C45.3326 0.647527 42.6212 0.409902 39.9009 0.29109C37.5504 0.187129 35.2 0.29109 32.8495 0.29109C32.6079 0.29109 32.3663 0.323763 32.1247 0.338614C29.8279 0.48713 27.5401 0.692081 25.2642 0.932675C23.3104 1.14357 21.3865 1.52674 19.4626 1.84159C17.476 2.16535 15.5133 2.68218 13.5507 3.16634C10.5977 3.89407 7.98471 5.13566 5.87288 7.32477C5.16893 8.05546 4.38147 8.7624 3.95791 9.70101C3.00832 11.8185 2.28546 14.0297 1.80133 16.2981C1.24075 18.7163 0.82245 21.165 0.548553 23.6317C0.11927 27.8917 0.175305 32.1863 0.71559 36.4338C1.18616 40.1834 2.07352 43.8694 3.36135 47.4239C3.57428 48.0685 3.86898 48.6833 4.2383 49.2536C6.26621 52.3506 9.40697 54.5579 13.0167 55.4229C16.7906 56.3774 20.6184 57.1064 24.4797 57.6061C27.9249 58.0368 31.3819 58.2447 34.848 58.3368Z" fill="#1F201F"/>
<path d="M34.8484 58.3368C31.3823 58.2447 27.9252 58.0397 24.4801 57.6031C20.6189 57.1044 16.7911 56.3764 13.0171 55.4229C9.39965 54.5627 6.25069 52.3549 4.21779 49.2536C3.84847 48.6833 3.55377 48.0684 3.34084 47.4239C2.05301 43.8693 1.16565 40.1834 0.695082 36.4337C0.154797 32.1863 0.0987621 27.8917 0.528045 23.6317C0.801942 21.165 1.22024 18.7162 1.78082 16.298C2.26495 14.0297 2.98781 11.8185 3.9374 9.701C4.36096 8.77724 5.14843 8.0703 5.85238 7.32476C7.96421 5.1297 10.5772 3.88812 13.5302 3.16633C15.4928 2.68217 17.4555 2.16534 19.4421 1.84158C21.369 1.52375 23.2899 1.14355 25.2437 0.932663C27.5315 0.689098 29.8193 0.484148 32.1042 0.338603C32.3458 0.323751 32.5874 0.291078 32.829 0.291078C35.1794 0.291078 37.5299 0.187117 39.8804 0.291078C42.6007 0.415831 45.3121 0.647515 48.0115 1.00395C51.1156 1.40895 54.1881 2.02524 57.2076 2.84851C59.7579 3.55247 62.3649 4.15841 64.6646 5.52178C66.8602 6.75016 68.7758 8.41904 70.2902 10.4228C71.1612 11.6109 71.6414 12.9951 72.1664 14.3436C73.3063 17.3142 74.0718 20.4141 74.4453 23.5723C74.6538 25.2707 74.7673 26.9793 74.7853 28.6902C74.7872 30.6922 74.6607 32.6923 74.4065 34.6783C74.1046 37.1914 73.5622 39.67 72.7868 42.0803C72.2996 43.6337 71.7015 45.1504 70.9971 46.6189C69.3089 50.0704 66.5826 52.3783 63.1583 53.9764C62.5116 54.2674 61.8471 54.5174 61.1687 54.7249C59.0111 55.4429 56.8092 56.0213 54.5767 56.4566C52.611 56.8189 50.6513 57.2348 48.6588 57.4932C46.2726 57.7902 43.8863 58.0635 41.5 58.2061C39.2865 58.3622 37.0664 58.4058 34.8484 58.3368ZM37.1451 56.9674C38.6365 56.9674 40.1279 57.015 41.6194 56.9674C43.1555 56.9051 44.7006 56.813 46.2218 56.6021C48.3695 56.3051 50.5261 56.0585 52.6677 55.6843C55.0152 55.2744 57.3597 54.8793 59.6654 54.2704C61.9711 53.6615 64.3574 53.0823 66.3022 51.4575C67.4357 50.5189 68.5751 49.5684 69.2283 48.2734C69.9223 46.8786 70.5154 45.4364 71.0031 43.9575C71.5221 42.4159 71.9576 40.8506 72.3215 39.2763C72.6494 37.795 72.8944 36.2966 73.0553 34.7882C73.2812 32.898 73.4076 30.9974 73.4341 29.0941C73.456 26.8183 73.3014 24.5442 72.9718 22.2921C72.6087 19.7428 72.0178 17.2308 71.2059 14.7862C70.7108 13.301 70.2723 11.7654 69.4162 10.4733C67.992 8.24821 65.8744 6.54955 63.388 5.63763C60.7092 4.69066 57.9647 3.93917 55.1763 3.38911C51.932 2.70398 48.6502 2.20809 45.3479 1.90395C42.4295 1.6219 39.4985 1.48806 36.5665 1.50296C33.0318 1.54455 29.5091 1.68712 25.9924 2.07623C23.3078 2.37326 20.6412 2.78316 17.9716 3.1901C15.5817 3.59889 13.2166 4.14033 10.8874 4.81188C9.37806 5.21881 8.22371 6.23169 7.03059 7.16733C6.09545 7.84716 5.3576 8.76126 4.89191 9.81684C4.5326 10.6967 4.22387 11.5961 3.96723 12.5109C3.28612 15.0255 2.74146 17.5747 2.33563 20.1476C2.04931 21.8642 1.8502 23.5941 1.73907 25.3307C1.49973 29.0054 1.59957 32.6941 2.03735 36.3506C2.3673 39.1815 2.91578 41.9828 3.6779 44.7298C4.08058 46.1763 4.39676 47.6763 5.10667 48.9833C5.74591 50.196 6.63031 51.2639 7.70423 52.1196C8.77816 52.9753 10.0183 53.6004 11.3467 53.9556C15.1543 54.9832 19.0295 55.7434 22.9439 56.2308C27.6493 56.8643 32.3991 57.1107 37.1451 56.9674Z" fill="#039EB6"/>
<path d="M37.1448 56.9674C32.3988 57.1107 27.6489 56.8643 22.9436 56.2308C19.0335 55.7468 15.1622 54.9905 11.3583 53.9674C10.0299 53.6123 8.78973 52.9872 7.71581 52.1315C6.64188 51.2757 5.75747 50.2079 5.11824 48.9951C4.40833 47.6882 4.09215 46.1882 3.68947 44.7417C2.92921 41.9936 2.38273 39.1912 2.05488 36.3595C1.61711 32.703 1.51726 29.0143 1.7566 25.3396C1.86774 23.603 2.06684 21.8731 2.35317 20.1565C2.759 17.5836 3.30365 15.0344 3.98477 12.5198C4.24141 11.605 4.55013 10.7056 4.90944 9.82574C5.37513 8.77016 6.11299 7.85606 7.04812 7.17623C8.24125 6.24059 9.39561 5.22771 10.9049 4.82078C13.2341 4.14923 15.5992 3.60779 17.9891 3.19899C20.6587 2.79206 23.3224 2.38216 26.0099 2.08513C29.5266 1.69602 33.0494 1.55345 36.584 1.51186C39.5161 1.49696 42.447 1.6308 45.3654 1.91285C48.6678 2.21699 51.9495 2.71288 55.1938 3.398C57.9822 3.94807 60.7267 4.69956 63.4055 5.64652C65.8841 6.55949 67.9948 8.25455 69.4159 10.4733C70.257 11.7654 70.6955 13.3069 71.2056 14.7862C72.0174 17.2308 72.6084 19.7428 72.9714 22.2921C73.3011 24.5442 73.4557 26.8183 73.4337 29.0941C73.4072 30.9974 73.2808 32.898 73.0549 34.7882C72.8985 36.2923 72.6585 37.7867 72.3361 39.2644C71.9722 40.8387 71.5367 42.404 71.0177 43.9456C70.5299 45.4245 69.9368 46.8667 69.2429 48.2615C68.5896 49.5565 67.4532 50.507 66.3167 51.4456C64.357 53.0466 62.0185 53.6407 59.6651 54.2585C57.3116 54.8763 55.0148 55.2625 52.6674 55.6724C50.5257 56.0466 48.3691 56.2932 46.2215 56.5902C44.7002 56.8011 43.1551 56.8872 41.619 56.9556C40.1306 57.015 38.6362 56.9674 37.1448 56.9674ZM34.9524 56.8278C37.1694 56.8985 39.3885 56.8559 41.6011 56.7001C43.6682 56.5694 45.7383 56.4447 47.7964 56.1565C49.5145 55.916 51.2207 55.6278 52.9358 55.3872C55.1471 55.0778 57.3383 54.6394 59.498 54.0744C61.8664 53.4506 64.2526 52.8862 66.2064 51.2377C67.2772 50.3466 68.3779 49.4169 69.0132 48.1991C69.9977 46.2521 70.7793 44.2097 71.3458 42.104C71.6798 41.0496 71.9556 39.9777 72.172 38.8931C72.4196 37.4228 72.6522 35.9496 72.8193 34.4644C72.9863 32.9793 73.0758 31.5387 73.1474 30.0743C73.204 28.3548 73.1502 26.6335 72.9863 24.9208C72.8622 23.3207 72.6521 21.7283 72.3569 20.1505C71.9022 17.7227 71.2222 15.3422 70.3256 13.0396C69.6993 11.4386 69.0192 9.89109 67.6769 8.70297C66.2153 7.40792 64.6941 6.23762 62.8089 5.64058C58.5994 4.30148 54.2867 3.30805 49.9142 2.67028C47.2297 2.28117 44.5451 1.99602 41.8457 1.84454C38.4786 1.66039 35.104 1.66039 31.7369 1.84454C30.4573 1.91285 29.1687 1.92176 27.904 2.0881C25.816 2.36434 23.7281 2.5485 21.6401 2.86335C19.1643 3.24058 16.6946 3.62672 14.2546 4.17622C13.1838 4.41979 12.1219 4.69603 11.066 4.98712C9.49702 5.42078 8.28301 6.44851 7.05707 7.44356C6.20797 8.07186 5.53606 8.90772 5.10631 9.8703C4.34784 11.702 3.7869 13.6087 3.43295 15.5584C3.16151 17.1772 2.76181 18.7723 2.5381 20.406C2.29649 22.1881 2.08471 23.9703 1.96838 25.7525C1.85592 27.2429 1.83003 28.7384 1.89083 30.2317C1.97733 31.9664 2.02506 33.6951 2.18912 35.4268C2.29849 36.5912 2.44663 37.7486 2.63355 38.8991C2.96031 40.9465 3.40448 42.9735 3.96389 44.9704C4.35165 46.3575 4.64695 47.8011 5.3509 49.0456C5.97516 50.1804 6.8203 51.1799 7.83692 51.9857C8.85354 52.7915 10.0212 53.3875 11.2718 53.7387C14.7539 54.7019 18.3005 55.4166 21.8847 55.8773C26.2126 56.5012 30.5794 56.8188 34.9524 56.8278Z" fill="#1F201F"/>
<path d="M68.1185 21.7546C68.1185 22.408 68.0947 22.408 67.4384 22.3189C66.7822 22.2298 66.0872 22.2952 65.4072 22.2209C64.4616 22.114 63.5041 22.1496 62.5526 22.0962C60.2946 21.9744 58.0426 21.8199 55.7816 21.7991C55.185 21.7991 54.5885 21.7368 53.9919 21.7308C52.6019 21.7308 51.2089 21.6625 49.816 21.6001C48.5035 21.5407 47.1941 21.5764 45.8846 21.5318C39.7758 21.3328 33.655 21.4546 27.5552 21.4605C26.201 21.4605 24.8348 21.4605 23.4836 21.5585C22.5112 21.6328 21.5448 21.5585 20.5784 21.6387C19.2868 21.7338 17.9923 21.6774 16.7007 21.7427C15.2689 21.814 13.8372 21.8734 12.4025 21.9387C10.9677 22.0041 9.53895 22.108 8.10421 22.1229C7.83111 22.1348 7.55908 22.1646 7.2899 22.212C7.02741 22.2506 6.92302 22.114 6.94092 21.8882C6.97969 21.4041 7.03039 20.9259 7.09303 20.4447C7.13181 20.1476 7.39132 20.1476 7.60906 20.1476C9.1482 20.0734 10.6873 20.017 12.2235 19.9219C15.6716 19.708 19.1227 19.5625 22.5739 19.4467C28.4102 19.2486 34.2476 19.1704 40.086 19.212C45.294 19.2417 50.496 19.3724 55.6981 19.6308C59.5996 19.8209 63.5011 20.0229 67.3937 20.3853C67.8143 20.4239 68.029 20.6021 67.9903 21.0179C68.0022 21.2645 68.1842 21.511 68.1185 21.7546ZM42.1382 21.1962L47.385 21.2259H47.5609C48.5045 21.318 49.4531 21.3477 50.4006 21.315C51.9666 21.4457 53.5415 21.4427 55.1134 21.5051C56.9031 21.5793 58.7077 21.6417 60.5064 21.7278C62.6838 21.8348 64.8643 21.9774 67.0447 22.0783C67.9396 22.1199 67.9157 22.0783 67.8143 21.214C67.7666 20.8041 67.6502 20.5843 67.1521 20.5427C63.1134 20.1952 59.0657 19.9783 55.018 19.7882C49.801 19.5447 44.5781 19.4288 39.3582 19.4021C36.1636 19.4021 32.969 19.4348 29.7744 19.4615C28.5813 19.4615 27.3881 19.5031 26.1741 19.5328C20.1757 19.6754 14.1862 19.9991 8.19668 20.3199C7.37044 20.3645 7.37044 20.3526 7.20638 21.1397C7.20638 21.1724 7.19147 21.2021 7.18849 21.2348C7.09005 21.8972 7.10795 21.9298 7.78505 21.9001C10.6694 21.7754 13.5508 21.6031 16.4352 21.517C19.418 21.41 22.4009 21.3536 25.3837 21.2734C25.5448 21.2734 25.7028 21.2377 25.8609 21.2199L29.2643 21.1932C29.4433 21.1932 29.6223 21.1932 29.7983 21.1932C32.5037 21.1724 35.2121 21.1368 37.9175 21.1249C39.3194 21.1397 40.7303 21.1754 42.1382 21.1962Z" fill="#1F201F"/>
<path d="M35.4415 39.7397C33.783 39.7397 32.6138 39.7753 31.4475 39.7397C29.5057 39.6654 27.5698 39.7189 25.6191 39.6328C24.3722 39.5763 23.1254 39.606 21.8816 39.5526C19.555 39.4546 17.2314 39.3209 14.9018 39.2555C13.3537 39.211 11.8056 39.0773 10.2575 38.9793C9.36269 38.9199 8.45294 38.8397 7.54914 38.7981C7.27771 38.7833 7.22103 38.614 7.19419 38.4298C7.1226 37.9516 7.0689 37.4704 7.03013 36.9862C7.00328 36.6536 7.21506 36.606 7.49843 36.6209C9.06441 36.6951 10.6304 36.7783 12.1964 36.8199C14.2008 36.8734 16.2023 36.9951 18.2068 37.0486C19.027 37.0724 19.8533 37.1021 20.6765 37.114C22.4384 37.1338 24.2022 37.1753 25.968 37.2387C29.3535 37.3635 32.739 37.2862 36.1245 37.31C39.343 37.3338 42.5644 37.3427 45.7829 37.2892C48.2258 37.2506 50.6688 37.1674 53.1087 37.0872C54.2094 37.0516 55.31 37.0664 56.4077 37.01C58.618 36.8942 60.8253 36.7456 63.0355 36.6476C63.9095 36.612 64.7805 36.5615 65.6544 36.5496C66.3196 36.5496 66.9729 36.4427 67.635 36.4308C67.9721 36.4308 68.0646 36.5437 68.0079 36.8585C67.9303 37.2892 67.8737 37.7199 67.82 38.1536C67.7842 38.4506 67.6798 38.5872 67.3368 38.6021C65.4486 38.6852 63.5575 38.7684 61.6694 38.8991C59.301 39.0684 56.9357 39.2853 54.5584 39.2971C52.8611 39.2971 51.1579 39.3447 49.4667 39.4813C46.2631 39.7397 43.0536 39.5704 39.8531 39.6892C38.2185 39.7427 36.5839 39.7011 35.4415 39.7397ZM44.0678 37.5149L38.3646 37.5862H35.0835L27.5221 37.5179L25.2641 37.5001C25.1219 37.476 24.9785 37.4591 24.8346 37.4496C22.6452 37.3991 20.4528 37.4199 18.2724 37.2833C16.4469 37.1674 14.6214 37.3041 12.7959 37.0902C11.3284 36.9277 9.851 36.8721 8.37538 36.9239C7.18225 36.9595 7.20313 36.9654 7.39105 38.1625C7.43579 38.4595 7.56107 38.5635 7.85935 38.5724C8.65278 38.5991 9.44621 38.6288 10.2456 38.7001C13.6371 38.9971 17.0435 39.0506 20.4409 39.2348C22.8271 39.3654 25.2134 39.4011 27.5996 39.4189C35.0895 39.4753 42.5823 39.5496 50.0722 39.1932C53.8276 39.015 57.5889 39.009 61.3413 38.6882C63.2443 38.5278 65.1593 38.4744 67.0683 38.3912C67.4412 38.3734 67.6649 38.2813 67.6649 37.8357C67.6691 37.5292 67.7092 37.2242 67.7842 36.9268C67.8319 36.6833 67.7335 36.6565 67.5247 36.6684C66.0372 36.7575 64.5458 36.8397 63.0504 36.9149C61.4338 36.9981 59.8201 37.1437 58.2093 37.1882C54.8238 37.2833 51.4354 37.405 48.0469 37.4496C47.8845 37.4319 47.7203 37.4554 47.5696 37.5179L44.0678 37.5149Z" fill="#1F201F"/>
<path d="M19.0661 26.6436C19.2749 26.5545 19.4629 26.4743 19.6627 26.4C20.2294 26.1802 20.8022 26.0703 21.3182 26.4921C21.7596 26.8485 22.1444 26.6525 22.5501 26.4505C22.8295 26.3036 23.1408 26.2267 23.4569 26.2267C23.7729 26.2267 24.0842 26.3036 24.3636 26.4505C24.631 26.5832 24.8621 26.7785 25.0371 27.0195C25.2122 27.2606 25.326 27.5403 25.3688 27.8347C25.7357 29.6347 25.5926 31.4644 25.5776 33.2882C25.5685 33.5121 25.5293 33.7339 25.4613 33.9476C25.4355 34.1155 25.3444 34.2667 25.2077 34.3683C25.071 34.47 24.8996 34.5141 24.7305 34.4911C24.6819 34.4882 24.633 34.4882 24.5844 34.4911C23.1765 34.4911 23.1914 34.4703 23.4569 33.0713C23.7426 31.766 23.7649 30.417 23.5225 29.103C23.3733 28.3782 23.0512 27.9624 22.6754 28.0812C22.1325 28.2565 22.1951 28.7881 22.1862 29.2159C22.1653 30.6535 22.1862 32.0911 22.1862 33.5258C22.1862 34.3634 22.1176 34.4169 21.2764 34.4169H20.7902C19.9938 34.4169 19.9401 34.2981 20.0505 33.4901C20.2563 31.9486 20.5277 30.404 20.2294 28.8386C20.2029 28.6642 20.1377 28.4978 20.0385 28.3515C20.0007 28.2715 19.9407 28.2039 19.8657 28.1566C19.7908 28.1092 19.7038 28.0841 19.615 28.0841C19.5262 28.0841 19.4392 28.1092 19.3642 28.1566C19.2892 28.2039 19.2293 28.2715 19.1914 28.3515C18.9507 28.7306 18.8139 29.1658 18.7947 29.6139C18.6692 30.9736 18.7771 32.3447 19.1139 33.6684C19.2451 34.2297 19.1437 34.3694 18.565 34.3634H18.1773C17.0885 34.3367 17.0557 34.3367 16.9543 33.2733C16.7784 31.2624 16.7365 29.2422 16.829 27.2258C16.8479 26.8722 16.9556 26.5291 17.1422 26.2277C17.4017 25.803 18.7261 25.6337 19.0751 25.999C19.2869 26.1713 19.0184 26.3733 19.0661 26.6436ZM17.011 30.3149C17.0587 31.206 17.0736 32.1238 17.1631 33.0238C17.2705 34.108 17.2973 34.0872 18.3801 34.1198C18.8066 34.1198 18.9289 34.0218 18.8126 33.5941C18.5497 32.5096 18.4402 31.3939 18.4875 30.2792C18.4875 29.608 18.5203 28.9188 18.8842 28.3099C18.9602 28.1559 19.0805 28.028 19.2297 27.9423C19.379 27.8566 19.5505 27.8171 19.7224 27.8287C20.1012 27.8525 20.2772 28.1258 20.3846 28.4525C20.5083 28.8714 20.5745 29.305 20.5814 29.7416C20.6381 30.8436 20.4472 31.9248 20.3517 33.0089C20.2324 34.3783 19.9968 34.1258 21.3182 34.1971C21.7567 34.2208 21.87 34.0337 21.8968 33.6357C21.9804 32.2812 21.9565 30.9268 21.9446 29.5693C21.9191 29.1824 21.9523 28.7939 22.043 28.4169C22.1235 28.1436 22.2041 27.8763 22.5322 27.8228C22.6846 27.7913 22.8426 27.7999 22.9907 27.8479C23.1387 27.8958 23.2716 27.9813 23.3763 28.0961C23.5378 28.2783 23.6533 28.4962 23.7134 28.7317C23.8325 29.1678 23.8986 29.6166 23.9102 30.0683C23.9456 31.3113 23.8304 32.5539 23.5672 33.7694C23.5344 33.9297 23.4718 34.1377 23.6806 34.1792C24.1042 34.2952 24.5514 34.2952 24.9751 34.1792C25.2734 34.0723 25.2495 33.6684 25.2734 33.3654C25.3961 32.0958 25.4161 30.8184 25.333 29.5456C25.3408 28.8496 25.2132 28.1586 24.9572 27.5109C24.5993 26.6881 23.9281 26.3228 23.09 26.4773C22.8093 26.5564 22.5413 26.6744 22.2936 26.8277C22.0311 26.9584 21.7328 27.107 21.4733 26.8782C20.7455 26.2396 20.0266 26.3852 19.2869 26.8396C19.1527 26.9228 19.0095 27.0476 18.8424 26.9317C18.6754 26.8159 18.747 26.6347 18.7917 26.4921C18.8365 26.3495 18.911 26.1951 18.6903 26.0852C18.5245 25.9985 18.3393 25.9555 18.1521 25.9603C17.9649 25.965 17.7821 26.0173 17.621 26.1123C17.4599 26.2073 17.3258 26.3417 17.2316 26.5028C17.1373 26.6639 17.086 26.8463 17.0826 27.0327C16.9953 28.1245 16.9734 29.2205 17.017 30.3149H17.011Z" fill="#1F201F"/>
<path d="M7.27791 28.1911C8.12503 27.1901 8.91845 26.1831 9.32412 24.9237C9.56573 24.1663 9.6045 24.1514 10.4218 24.1396C10.6664 24.1396 10.908 24.1396 11.1526 24.1188C11.606 24.1188 11.7283 24.2465 11.6477 24.7128C11.4231 25.8398 10.887 26.8819 10.0997 27.7218C9.84611 28.0188 9.63731 28.2208 9.95946 28.6128C10.8707 29.7623 11.4852 31.1167 11.7492 32.5574C11.8231 32.9351 11.8601 33.3191 11.8595 33.7039C11.8595 34.0634 11.6567 34.194 11.3405 34.194C10.8841 34.194 10.4307 34.194 9.97736 34.1584C9.44045 34.1198 9.30921 33.9742 9.30921 33.4247C9.32493 32.441 9.12117 31.4661 8.71264 30.5703C8.31593 29.7208 8.17872 29.7327 7.61198 30.4782C7.49948 30.6125 7.41923 30.7706 7.37737 30.9405C7.3355 31.1103 7.33311 31.2875 7.37037 31.4584C7.45102 32.0961 7.57661 32.7274 7.7462 33.3475C7.90728 33.8435 7.72831 34.0396 7.20631 34.0307C6.93189 34.0307 6.6545 34.0129 6.38008 34.0099C5.66122 34.0099 5.43154 33.7871 5.31223 33.0564C5.1215 31.6321 5.05861 30.1938 5.12431 28.7584C5.14221 27.502 5.16607 26.2425 5.50909 25.0158C5.63437 24.5703 5.86405 24.2732 6.37411 24.2703C6.69924 24.2703 7.02138 24.2198 7.34651 24.2109C7.85657 24.2109 7.98185 24.4336 7.77902 24.9148C7.34651 25.9633 7.28089 27.0653 7.27791 28.1911ZM5.32714 29.593C5.3086 30.6758 5.37542 31.7583 5.52699 32.8307C5.66121 33.7604 5.72386 33.8049 6.6545 33.8138C6.81557 33.8138 6.97962 33.8138 7.14069 33.8138C7.45687 33.8376 7.58215 33.7515 7.49863 33.398C7.35546 32.8039 7.30475 32.1832 7.14964 31.5921C7.07216 31.3106 7.07796 31.0129 7.16633 30.7347C7.25469 30.4565 7.42188 30.2096 7.64777 30.0237C8.19363 29.4831 8.38155 29.5069 8.76932 30.1812C8.87368 30.3633 8.96633 30.5518 9.04672 30.7455C9.38626 31.5858 9.56921 32.4806 9.58661 33.3861C9.58661 33.7218 9.67311 33.9445 10.0818 33.9327C10.4383 33.9238 10.795 33.9387 11.1496 33.9772C11.5582 34.0188 11.6358 33.8436 11.6179 33.4663C11.5404 31.7406 10.8752 30.2495 9.87295 28.8742C9.29727 28.0841 9.31218 28.3574 9.87295 27.6C9.91173 27.5465 9.95349 27.499 9.99525 27.4485C10.6512 26.6637 11.1212 25.7419 11.3703 24.7514C11.433 24.4544 11.3703 24.3148 11.0482 24.3534C10.79 24.3851 10.5294 24.3931 10.2697 24.3772C9.9177 24.3475 9.77154 24.5019 9.64924 24.8257C9.1857 26.1233 8.45639 27.3108 7.50758 28.3128C7.4002 28.4227 7.2958 28.6099 7.11385 28.5297C6.9319 28.4495 6.97068 28.2534 6.97068 28.093C6.98361 27.1892 7.11292 26.2908 7.35546 25.4198C7.65374 24.4396 7.65374 24.4693 6.61572 24.4812C6.5119 24.4674 6.40637 24.4741 6.30518 24.501C6.20398 24.5279 6.10911 24.5744 6.02599 24.6379C5.94286 24.7013 5.87313 24.7805 5.82077 24.8708C5.76842 24.9612 5.73447 25.0609 5.72088 25.1643C5.67613 25.3544 5.61051 25.5356 5.58068 25.7257C5.39527 27.0023 5.3105 28.2914 5.32714 29.5812V29.593Z" fill="#1F201F"/>
<path d="M63.2325 31.9932C63.3817 32.2278 63.7008 32.1506 63.7426 32.4031C63.7743 32.5035 63.7809 32.6102 63.7616 32.7138C63.7424 32.8173 63.698 32.9146 63.6322 32.9971C63.5658 33.0676 63.4802 33.1172 63.3859 33.1399C63.2916 33.1626 63.1927 33.1574 63.1013 33.1248C62.8657 33.0714 62.633 33.0179 62.3944 32.9763C62.2935 32.9527 62.1882 32.9556 62.0889 32.9847C61.9895 33.0139 61.8995 33.0683 61.8276 33.1427C60.4317 34.5149 58.6927 34.9486 56.8075 34.7704C56.2614 34.7339 55.7292 34.5827 55.2459 34.3268C54.7627 34.0708 54.3393 33.7158 54.0037 33.2852C53.9407 33.1819 53.8464 33.1013 53.7343 33.0548C53.6223 33.0084 53.4983 32.9986 53.3803 33.0268C53.0961 33.0877 52.8081 33.1294 52.5183 33.1516C52.2826 33.1694 51.9575 33.312 51.865 32.9704C51.7725 32.6288 51.7785 32.305 52.2528 32.2338C52.1991 32.0229 51.9545 32.0823 51.8889 31.8773C51.7755 31.4526 51.9754 31.1704 52.4318 31.1793C52.4963 31.1749 52.5611 31.1749 52.6256 31.1793C53.0969 31.2595 53.258 31.0724 53.4399 30.6031C53.7531 29.7922 53.7024 29.0229 53.607 28.209C53.5549 27.76 53.5761 27.3057 53.6696 26.8634C53.8367 26.103 54.3109 25.8922 54.9761 26.3169C55.5793 26.7203 56.1259 27.2018 56.6017 27.7486C56.7003 27.8727 56.8322 27.9665 56.9822 28.0191C57.1321 28.0717 57.2939 28.0809 57.4489 28.0456C57.7829 27.9818 58.126 27.9818 58.46 28.0456C58.63 28.0818 58.8071 28.065 58.9672 27.9975C59.1273 27.93 59.2626 27.8151 59.3549 27.6684C59.7542 27.207 60.2195 26.8067 60.7359 26.4803C61.5144 25.9783 62.0961 26.3139 62.1856 27.2318C62.2631 28.0367 62.111 28.8328 62.1438 29.6229C62.1617 30.107 62.4839 30.5882 62.7105 31.0486C62.7434 31.114 63.0088 31.0486 63.1669 31.0664C63.4145 31.0664 63.7635 30.9179 63.8112 31.3219C63.85 31.6813 63.8082 32.0704 63.2325 31.9932ZM61.9768 28.4793C62.0061 28.0826 61.9891 27.6839 61.9261 27.2912C61.7918 26.4476 61.4518 26.2961 60.7329 26.7922C60.2348 27.1537 59.7822 27.5735 59.3847 28.0427C59.3137 28.1515 59.2124 28.2375 59.0933 28.2902C58.9742 28.3429 58.8423 28.3601 58.7136 28.3397C58.3676 28.2502 58.0063 28.237 57.6547 28.3011C56.9418 28.4436 56.5301 28.0783 56.1215 27.612C55.748 27.1867 55.3102 26.8219 54.824 26.5308C54.305 26.2129 53.9947 26.3644 53.9082 26.9526C53.852 27.3021 53.83 27.6562 53.8426 28.01C53.8814 28.9011 54.1409 29.7922 53.6756 30.6833C53.2968 31.4199 53.3773 31.4644 52.5511 31.4318C52.381 31.4318 52.1424 31.2654 52.1305 31.6189C52.1305 31.9159 52.3303 31.9456 52.5481 31.9605C52.7658 31.9753 53.0671 31.9813 53.3236 31.9961C53.4399 31.9961 53.5742 32.014 53.5742 32.1625C53.5742 32.311 53.434 32.2575 53.3534 32.2843C53.0468 32.3896 52.7261 32.4487 52.4019 32.4595C52.2051 32.4595 52.1036 32.5456 52.1036 32.7565C52.1036 32.9674 52.2826 32.9526 52.4258 32.9377C52.7154 32.9208 53.0029 32.878 53.2848 32.81C53.4489 32.7525 53.6279 32.7536 53.7912 32.8133C53.9545 32.8729 54.0919 32.9872 54.1797 33.1367C54.4989 33.5459 54.9016 33.8829 55.3613 34.1256C55.821 34.3683 56.3271 34.5112 56.8463 34.5447C58.3198 34.705 59.7874 34.4615 60.9805 33.508C61.6576 32.9644 62.2751 32.5486 63.1699 32.8456C63.2076 32.8638 63.2495 32.8716 63.2913 32.8683C63.3331 32.865 63.3732 32.8506 63.4075 32.8267C63.4418 32.8028 63.4692 32.7702 63.4866 32.7323C63.5041 32.6944 63.5111 32.6525 63.507 32.611C63.507 32.4179 63.3876 32.3704 63.2296 32.3466C62.973 32.308 62.7165 32.2753 62.463 32.2219C62.3675 32.1981 62.1975 32.2219 62.2035 32.0674C62.2094 31.913 62.3735 31.904 62.5017 31.8862C62.727 31.8697 62.9511 31.8399 63.1729 31.7971C63.3638 31.7437 63.5726 31.7674 63.5308 31.4734C63.4891 31.1793 63.2534 31.2684 63.1192 31.31C62.5674 31.4704 62.293 31.2714 62.2243 30.7159C62.2088 30.6367 62.1858 30.5592 62.1557 30.4842C62.0692 30.1635 61.7769 29.911 61.8575 29.5308C61.9495 29.1881 61.9898 28.8337 61.9768 28.4793Z" fill="#1F201F"/>
<path d="M37.6013 49.4022C37.6283 49.217 37.7117 49.0445 37.8403 48.908C37.9688 48.7715 38.1363 48.6776 38.3201 48.6388C38.4568 48.6101 38.599 48.6247 38.7269 48.6806C38.8548 48.7366 38.9618 48.831 39.033 48.9507C39.1901 49.1941 39.2834 49.4729 39.3045 49.7616C39.3194 50.0319 39.3045 50.3022 39.3045 50.6051C39.4417 50.5246 39.5831 50.4512 39.728 50.3853C39.8113 50.343 39.9033 50.3208 39.9968 50.3204C40.0902 50.32 40.1825 50.3415 40.266 50.3831C40.3496 50.4247 40.4222 50.4853 40.478 50.56C40.5338 50.6347 40.5711 50.7214 40.5871 50.8131C40.8317 51.615 40.1874 52.6487 39.2776 52.8923C39.4267 53.2695 39.8951 53.3972 39.9458 53.8754C39.97 54.0392 39.9604 54.2061 39.9177 54.366C39.8749 54.526 39.7999 54.6755 39.6972 54.8056C39.5945 54.9357 39.4662 55.0436 39.3202 55.1227C39.1742 55.2017 39.0136 55.2504 38.8481 55.2655C37.9453 55.2913 37.0395 55.3121 36.1307 55.3279C35.6624 55.3279 35.036 54.9596 34.9376 54.5616C34.8556 54.3398 34.8458 54.098 34.9095 53.8704C34.9732 53.6427 35.1072 53.4408 35.2926 53.2933L35.6386 52.9962C34.7437 52.5002 34.2456 51.624 34.3619 50.9022C34.4723 50.2368 35.0032 50.2368 35.391 50.4418C35.5163 50.5071 35.6296 50.5962 35.7937 50.7032C35.7937 50.3051 35.7728 49.9546 35.7937 49.6071C35.8414 48.9091 36.429 48.4398 36.9868 48.6269C37.3567 48.7517 37.4312 49.1051 37.6013 49.4022ZM38.7198 55.0754C38.9243 55.0675 39.1223 55.0019 39.2908 54.8862C39.4592 54.7705 39.5912 54.6095 39.6713 54.422C39.8503 54.0032 39.6922 53.6853 39.3731 53.3913C38.9734 53.017 38.5886 52.6249 38.2038 52.2329C38.1242 52.1302 38.0231 52.0462 37.9075 51.9865C37.7919 51.9268 37.6647 51.8929 37.5346 51.8873C37.4045 51.8816 37.2747 51.9043 37.1544 51.9537C37.034 52.0031 36.9259 52.0781 36.8377 52.1735C36.3813 52.5834 35.9428 53.0081 35.4775 53.415C35.3123 53.5337 35.1927 53.7049 35.1385 53.9004C35.0843 54.0959 35.0986 54.304 35.1792 54.4903C35.2537 54.681 35.3887 54.8423 35.5637 54.9495C35.7387 55.0567 35.9441 55.1041 36.1486 55.0844L38.7198 55.0754ZM35.9876 50.0764C35.9592 50.4045 36.0388 50.7329 36.2143 51.0121C36.5125 51.4754 36.9957 51.4606 37.2403 50.9705C37.3816 50.6876 37.4537 50.3754 37.4505 50.0594C37.4474 49.7435 37.3693 49.4328 37.2224 49.1527C37.1859 49.0523 37.1199 48.9651 37.0331 48.9023C36.9463 48.8396 36.8426 48.8042 36.7354 48.8007C36.6282 48.7972 36.5224 48.8257 36.4317 48.8826C36.3409 48.9395 36.2693 49.0222 36.2262 49.12C36.0412 49.4031 35.9571 49.74 35.9876 50.0764ZM37.7325 50.2249C37.7135 50.4496 37.7482 50.6756 37.8339 50.8843C37.9383 51.1279 38.0576 51.3804 38.3529 51.3982C38.6482 51.416 38.8391 51.1725 38.9495 50.917C39.074 50.6462 39.1342 50.3504 39.1254 50.0527C39.1166 49.755 39.0391 49.4633 38.8988 49.2002C38.8033 49.016 38.6751 48.8348 38.4245 48.8467C38.3109 48.8555 38.2027 48.8982 38.1138 48.9692C38.0249 49.0402 37.9596 49.1362 37.9264 49.2447C37.7899 49.5553 37.7237 49.892 37.7325 50.2309V50.2249ZM36.086 52.0339C36.0609 51.7805 35.9848 51.5347 35.8623 51.3112C35.7399 51.0877 35.5735 50.891 35.3731 50.7329C35.3003 50.6555 35.2046 50.6034 35.0999 50.5841C34.9953 50.5649 34.8872 50.5795 34.7914 50.6259C34.7007 50.6821 34.6295 50.7646 34.5874 50.8623C34.5452 50.9601 34.5342 51.0683 34.5558 51.1725C34.6041 51.6768 34.8481 52.1425 35.2359 52.4705C35.3107 52.5494 35.4079 52.6037 35.5145 52.626C35.6212 52.6483 35.7321 52.6375 35.8325 52.5952C36.0353 52.5002 36.0681 52.2834 36.086 52.0398V52.0339ZM40.429 51.1071C40.3962 50.9289 40.4021 50.6972 40.1754 50.5933C40.0752 50.5505 39.9641 50.5396 39.8574 50.5619C39.7506 50.5842 39.6534 50.6387 39.5789 50.718C39.3862 50.8778 39.2283 51.0751 39.115 51.2978C39.0016 51.5205 38.9352 51.7639 38.9197 52.0131C38.8986 52.1257 38.9138 52.242 38.9631 52.3455C39.0124 52.4489 39.0932 52.5343 39.1941 52.5893C39.2855 52.625 39.3856 52.6325 39.4814 52.6108C39.5771 52.5891 39.6641 52.5391 39.731 52.4675C39.9338 52.301 40.1004 52.095 40.2204 51.8621C40.3404 51.6291 40.4114 51.3743 40.429 51.1131V51.1071ZM38.8421 51.4754C38.0696 51.8883 37.825 51.3744 37.5446 50.9408C37.0852 51.6121 36.9301 51.6715 36.1248 51.4576C36.3246 51.7546 36.2739 52.022 36.2978 52.4319C36.4214 52.207 36.5998 52.0168 36.8167 51.8787C37.0335 51.7406 37.2818 51.6592 37.5386 51.6418C38.1352 51.5645 38.3082 52.1259 38.7079 52.3873C38.6906 52.0794 38.7363 51.7712 38.8421 51.4814V51.4754Z" fill="#1F201F"/>
<path d="M66.9852 26.819C67.3157 26.624 67.6817 26.4958 68.062 26.4418C68.9568 26.4091 69.616 26.9913 69.8696 28.0962C70.0933 29.0824 69.9471 30.0834 69.9263 31.0665C69.9518 31.8395 69.8397 32.6108 69.5952 33.3448C69.5619 33.4925 69.4791 33.6245 69.3603 33.719C69.2415 33.8135 69.0939 33.8648 68.9419 33.8646C68.6019 33.8646 68.2648 33.9061 67.9248 33.9151C67.4475 33.9151 67.3282 33.7814 67.4774 33.321C67.9228 32.0441 68.135 30.6981 68.1037 29.3467C68.1191 29.027 68.0369 28.7102 67.8681 28.4378C67.6265 28.0784 67.3521 28.0428 67.0687 28.3814C66.8085 28.7072 66.6387 29.0954 66.5765 29.5071C66.4288 30.5146 66.4409 31.539 66.6123 32.5428C66.6511 32.8398 66.6123 33.122 66.663 33.4071C66.7078 33.8022 66.5199 33.9804 66.1411 34.0012C65.7622 34.022 65.3953 34.0012 65.0225 34.0012C64.7451 34.0012 64.6437 33.8972 64.59 33.6121C64.5075 32.9746 64.4995 32.3297 64.5661 31.6903C64.6288 30.3537 64.5333 29.017 64.6914 27.6804C64.7063 27.5527 64.7063 27.422 64.7272 27.2942C64.9897 25.8091 65.103 26.0259 66.5169 26.0497C66.8748 26.0794 66.9643 26.2695 66.9852 26.819ZM64.7839 31.7111C64.7839 32.0349 64.7839 32.3586 64.7839 32.6824C64.7839 33.8259 64.7839 33.8259 65.9084 33.8111C66.4513 33.8111 66.4751 33.7576 66.4274 33.217C66.2998 32.2084 66.248 31.1917 66.2723 30.1754C66.2745 29.5926 66.4091 29.0179 66.666 28.4942C66.7496 28.3164 66.8883 28.1699 67.0618 28.0763C67.2352 27.9827 67.4342 27.947 67.6295 27.9744C68.059 28.0279 68.1873 28.3784 68.2768 28.7289C68.3518 29.0106 68.381 29.3024 68.3633 29.5933C68.2678 30.8646 68.1724 32.1358 67.7249 33.3477C67.6802 33.4695 67.5788 33.618 67.7995 33.7071C68.4348 33.9566 69.3506 33.5141 69.5057 32.8547C69.7115 31.9636 69.6846 31.0725 69.7503 30.1606C69.8417 29.322 69.7396 28.4737 69.452 27.6804C69.0791 26.7507 68.3961 26.4626 67.4624 26.8309C67.3431 26.8784 67.2298 26.9438 67.1105 26.9972C66.9912 27.0507 66.8868 27.1546 66.7555 27.0507C66.7068 27.0074 66.6737 26.9493 66.6613 26.8855C66.6489 26.8216 66.6579 26.7555 66.6869 26.6972C66.7466 26.5309 66.7734 26.4002 66.5706 26.2903C66.4155 26.2103 66.2433 26.169 66.0687 26.1698C65.8941 26.1707 65.7223 26.2137 65.568 26.2952C65.4137 26.3766 65.2816 26.4942 65.183 26.6377C65.0843 26.7811 65.0221 26.9463 65.0016 27.119C64.7988 28.6457 64.8763 30.1754 64.7839 31.7111Z" fill="#1F201F"/>
<path d="M48.8258 25.9485C49.5427 25.9482 50.234 26.214 50.7646 26.694C51.1673 27.0208 51.2239 27.3178 50.9853 27.799C50.9286 27.9119 50.869 28.0247 50.8034 28.1346C50.3888 28.8564 50.0726 28.9039 49.5118 28.3158C49.2135 28.001 48.9152 27.7218 48.4201 27.8851C48.0443 28.0188 48.0025 28.1822 48.259 28.4792C48.6276 28.8617 49.0755 29.1597 49.5715 29.3525C50.052 29.5676 50.4712 29.8983 50.7914 30.3148C51.4805 31.2059 51.388 32.1891 50.9346 33.1307C50.2098 34.6158 48.3664 34.9129 47.1912 34.3188C46.7284 34.0636 46.364 33.6626 46.155 33.1787C45.9461 32.6948 45.9045 32.1555 46.0368 31.6455C46.0837 31.4261 46.1475 31.2106 46.2277 31.001C46.2814 30.8614 46.3291 30.704 46.5558 30.704C46.7825 30.704 46.8541 30.8881 46.8869 31.0455C46.9301 31.3137 47.0328 31.5688 47.1876 31.7923C47.3424 32.0159 47.5454 32.2022 47.7818 32.3376C48.0517 32.4954 48.3731 32.5413 48.6766 32.4653C48.8134 32.4427 48.9398 32.3782 49.0381 32.2808C49.1365 32.1834 49.202 32.0579 49.2255 31.9218C49.2881 31.6248 49.1002 31.4406 48.8675 31.301C48.3992 31.0218 47.8653 30.8525 47.4179 30.5584C46.4455 29.9228 46.0249 28.9158 46.3948 27.6089C46.6871 26.5752 47.6028 25.9455 48.8258 25.9485ZM46.5588 30.998C46.5141 31.0247 46.4783 31.0366 46.4634 31.0604C46.4233 31.1302 46.3903 31.2039 46.3649 31.2802C46.1114 32.1089 46.0845 32.9168 46.702 33.6059C46.9871 33.93 47.3592 34.1662 47.7746 34.2867C48.1899 34.4072 48.6312 34.407 49.0465 34.2861C49.4796 34.2034 49.8814 34.0036 50.2081 33.7086C50.5348 33.4137 50.7738 33.035 50.8988 32.6139C51.1792 31.7406 51.0897 30.9148 50.4305 30.2376C49.9471 29.8069 49.3998 29.4533 48.8079 29.1891C48.5139 29.0523 48.251 28.8572 48.0353 28.6158C47.6923 28.1851 47.8474 27.7455 48.3843 27.6356C48.6389 27.5742 48.9065 27.5943 49.1491 27.6929C49.3916 27.7916 49.5968 27.9638 49.7355 28.1851C50.0577 28.6366 50.1263 28.6366 50.4514 28.2059C50.59 28.0079 50.7146 27.8004 50.8242 27.5851C50.8812 27.4949 50.9034 27.3872 50.887 27.2819C50.8706 27.1765 50.8165 27.0807 50.7348 27.0119C50.4024 26.6551 49.9772 26.3971 49.5065 26.2666C49.0357 26.136 48.5378 26.138 48.0681 26.2723C47.6553 26.3713 47.2839 26.5963 47.0058 26.9159C46.7277 27.2354 46.5568 27.6335 46.5171 28.0544C46.4067 29.0733 46.7169 29.902 47.6744 30.404C48.1188 30.6386 48.5692 30.8525 49.0107 31.0931C49.1689 31.1683 49.2967 31.2948 49.3731 31.4519C49.4495 31.6089 49.47 31.7872 49.4313 31.9574C49.4048 32.1264 49.3286 32.2837 49.2124 32.4096C49.0961 32.5354 48.9449 32.6241 48.778 32.6644C48.4805 32.7482 48.1645 32.7413 47.8709 32.6444C47.5774 32.5475 47.3198 32.3651 47.1315 32.1208C46.9037 31.7716 46.7119 31.4004 46.5588 31.0129V30.998Z" fill="#1F201F"/>
<path d="M33.5475 30.5674C33.5019 29.2412 33.8995 27.9375 34.678 26.8605C35.2089 26.0882 36.7659 25.7021 37.7801 26.0852C38.1936 26.2246 38.5551 26.4852 38.8171 26.833C39.079 27.1808 39.2291 27.5994 39.2476 28.0337C39.3699 29.1803 38.8897 29.9823 37.9084 30.5258C37.4315 30.7773 36.9322 30.9841 36.4169 31.1437C36.0769 31.2565 35.6474 31.3724 35.716 31.8476C35.7846 32.3229 36.1932 32.4803 36.5929 32.5486C37.5385 32.709 38.1649 32.3169 38.487 31.3932C38.5676 31.1615 38.6302 30.9536 38.9315 31.007C39.2327 31.0605 39.2118 31.2833 39.2297 31.4882C39.2864 32.3496 39.2834 33.214 38.6093 33.8645C37.7741 34.6753 36.7779 34.8536 35.6593 34.5328C34.5408 34.212 34.0337 33.3298 33.7622 32.2813C33.6085 31.7232 33.5361 31.146 33.5475 30.5674ZM38.8658 31.3159C38.6869 31.4347 38.6928 31.5951 38.6332 31.7229C38.4521 32.124 38.1336 32.4479 37.7347 32.6367C37.3358 32.8256 36.8825 32.867 36.4557 32.7536C35.8592 32.6021 35.3968 32.1892 35.4058 31.806C35.4207 31.2357 35.9069 31.1021 36.3006 30.9149C36.8817 30.7145 37.4453 30.4671 37.9859 30.1753C38.8808 29.5813 39.2089 28.7258 38.9136 27.6565C38.657 26.7209 37.8964 26.1714 36.8554 26.1328C36.4978 26.1225 36.1424 26.1924 35.8156 26.3374C35.4887 26.4824 35.1988 26.6987 34.9673 26.9704C34.0546 27.9387 33.801 29.1446 33.7563 30.407C33.7205 31.4852 33.8786 32.5367 34.5288 33.4486C34.8875 33.9343 35.4086 34.2764 35.9982 34.4131C36.5878 34.5498 37.2071 34.4721 37.7443 34.1942C38.2393 33.9203 38.6224 33.4825 38.8273 32.9568C39.0321 32.4311 39.0458 31.8506 38.8658 31.3159Z" fill="#1F201F"/>
<path d="M27.027 29.4328C26.959 27.6679 27.0589 25.9006 27.3253 24.1545C27.4297 23.5426 27.5311 23.4743 28.1575 23.4684C29.5535 23.4684 29.5923 23.51 29.291 24.8644C29.2134 25.203 29.1538 25.5476 29.1001 25.8922C29.0673 26.106 29.1001 26.2575 29.3835 26.1238C30.8928 25.3783 32.3663 26.7743 32.596 28.3575C32.7811 29.6046 32.6791 30.8772 32.2977 32.0793C31.9278 33.2466 30.7615 34.6753 29.1657 34.4942C28.7449 34.4585 28.3218 34.4585 27.901 34.4942C27.4625 34.5149 27.3044 34.2773 27.2328 33.9001C27.117 33.087 27.0503 32.2677 27.033 31.4466C27.0002 30.6595 27.027 29.8783 27.027 29.4328ZM28.7988 34.2417C29.7086 34.3664 30.6094 34.2417 31.2537 33.3803C32.584 31.6248 32.8048 29.6882 32.0889 27.6565C31.6295 26.3555 30.7257 25.9724 29.4043 26.3615C28.9599 26.4922 28.8078 26.3615 28.8495 25.8951C28.8794 25.4952 28.9392 25.098 29.0285 24.707C29.291 23.6733 29.3268 23.7238 28.1814 23.706C27.719 23.706 27.561 23.8664 27.5102 24.3001C27.2061 27.238 27.1612 30.1969 27.376 33.1427C27.4357 34.2328 27.5132 34.2298 28.6318 34.2506L28.7988 34.2417Z" fill="#1F201F"/>
<path d="M42.559 26.6704C42.7771 26.4428 43.0335 26.2548 43.3166 26.115C43.4958 26.0099 43.6989 25.952 43.9067 25.9468C44.1146 25.9416 44.3204 25.9893 44.5046 26.0853C44.6888 26.1813 44.8454 26.3226 44.9595 26.4956C45.0737 26.6687 45.1417 26.8679 45.157 27.0744C45.2137 27.7397 45.0914 28.3249 44.5246 28.7437C44.0802 29.0764 43.7939 28.9813 43.6298 28.4704C43.5761 28.31 43.5672 28.114 43.3315 28.1021C43.2254 28.0907 43.1184 28.1134 43.0261 28.1669C42.9338 28.2203 42.8611 28.3017 42.8185 28.3991C42.5743 28.9247 42.452 29.4983 42.4605 30.0774C42.4374 31.2789 42.5253 32.48 42.723 33.6655C42.8125 34.2982 42.7051 34.4556 42.0698 34.4764H41.5836C40.7424 34.4764 40.6529 34.414 40.5843 33.5556C40.3994 31.3011 40.5515 29.0437 40.5426 26.7863C40.5426 26.1922 40.6679 26.1001 41.2674 26.0912H41.7357C42.2816 26.0882 42.3323 26.112 42.559 26.6704ZM40.7454 30.1397C40.7454 31.1081 40.7275 32.0764 40.7454 33.0447C40.7752 34.2477 40.7901 34.2477 41.9684 34.2328C42.5411 34.2328 42.5828 34.1734 42.4605 33.6031C42.2136 32.3316 42.1374 31.0332 42.2338 29.7417C42.2316 29.2882 42.3272 28.8394 42.5142 28.4259C42.5686 28.2725 42.6691 28.1396 42.8019 28.045C42.9348 27.9504 43.0936 27.8988 43.2569 27.8972C43.4133 27.8961 43.5645 27.9524 43.6818 28.0555C43.799 28.1585 43.8739 28.301 43.8923 28.4556C43.9788 28.7853 44.1548 28.708 44.3546 28.5655C44.6219 28.3519 44.8092 28.0551 44.8866 27.7227C44.964 27.3903 44.9268 27.0416 44.7812 26.7328C44.7255 26.5936 44.6369 26.4699 44.5229 26.3722C44.409 26.2745 44.273 26.2056 44.1265 26.1715C43.9801 26.1374 43.8275 26.139 43.6818 26.1762C43.5361 26.2134 43.4016 26.2852 43.2898 26.3853C43.1078 26.5189 42.9437 26.6823 42.7678 26.8189C42.5918 26.9556 42.3681 27.009 42.3352 26.7833C42.2428 26.1892 41.8192 26.3288 41.4553 26.3259C40.7723 26.3259 40.7514 26.3259 40.7484 27.0358C40.7424 28.0694 40.7454 29.1061 40.7454 30.1397Z" fill="#1F201F"/>
<path d="M48.3843 52.6309C48.086 52.6547 47.8116 52.6874 47.8086 52.2596C47.8057 51.8319 47.922 51.6804 48.3515 51.6656C50.5648 51.5141 52.7601 51.223 54.9585 50.9349C55.6803 50.8428 56.3992 50.7299 57.115 50.623C57.2731 50.5992 57.5923 50.4686 57.5744 50.7596C57.5744 50.9943 57.6967 51.3864 57.297 51.4844C56.8156 51.61 56.3277 51.7091 55.8354 51.7814C53.5744 52.0785 51.3194 52.4468 49.0406 52.5775C48.8247 52.6209 48.6044 52.6389 48.3843 52.6309ZM48.265 52.4022H48.3157C50.7945 52.2062 53.2583 51.8586 55.7251 51.5408C56.1725 51.4844 56.6199 51.3775 57.0614 51.3062C57.1017 51.3051 57.1413 51.295 57.1772 51.2767C57.2131 51.2585 57.2445 51.2325 57.2691 51.2006C57.2937 51.1687 57.3108 51.1318 57.3192 51.0925C57.3277 51.0533 57.3272 51.0126 57.3179 50.9735C57.297 50.7151 57.124 50.8369 56.9957 50.8547C56.3395 50.9497 55.6863 51.0596 55.0301 51.1517C53.1688 51.3715 51.3194 51.6804 49.4462 51.7903C49.0585 51.8111 48.6737 51.8587 48.2859 51.8973C48.0652 51.9181 48.0473 52.0695 48.0503 52.2448C48.0532 52.42 48.1218 52.429 48.265 52.4022Z" fill="#1F201F"/>
<path d="M26.6153 52.8239C25.273 52.6308 23.9099 52.6605 22.5616 52.4496C21.5863 52.2981 20.593 52.2536 19.6116 52.1526C18.9286 52.0754 18.2515 51.9773 17.5744 51.8556C17.2045 51.7902 17.2761 51.4397 17.2761 51.1932C17.2761 50.8961 17.5445 50.9823 17.7235 51.0061C20.7063 51.3744 23.6742 51.6744 26.672 51.8674C26.9702 51.8882 27.188 51.9684 27.2178 52.3278C27.2387 52.7764 27.018 52.8892 26.6153 52.8239ZM26.2335 52.5268C26.3767 52.5268 26.5318 52.5476 26.669 52.5655C26.8062 52.5833 26.9374 52.6367 26.9494 52.4259C26.9494 52.2714 26.9345 52.1288 26.7436 52.1021C26.6481 52.0872 26.5497 52.0754 26.4453 52.0694C23.5669 51.915 20.7093 51.5615 17.8428 51.2585C17.7265 51.2585 17.5445 51.0862 17.4908 51.3328C17.4372 51.5793 17.5565 51.6447 17.7891 51.6684C18.3499 51.7219 18.9107 51.808 19.4714 51.8793C21.7235 52.1556 23.9725 52.3902 26.2245 52.5239L26.2335 52.5268Z" fill="#1F201F"/>
<path d="M13.005 30.0061C12.9878 29.0714 13.0196 28.1364 13.1005 27.2051C13.19 26.3942 13.2824 26.2962 14.0729 26.2813C15.1765 26.2575 15.2153 26.3377 15.0244 27.4694C14.8768 28.6142 14.8768 29.7731 15.0244 30.9179C15.1079 31.8298 15.266 32.7328 15.4152 33.6358C15.4838 34.0605 15.2839 34.2744 14.8454 34.2833C14.5859 34.2833 14.3294 34.2625 14.0699 34.2566C13.3212 34.2328 13.2854 34.1942 13.1572 33.4397C12.9603 32.2902 13.02 31.1467 13.005 30.0061ZM13.3033 30.5556C13.3033 30.9269 13.3033 31.2952 13.3033 31.6665C13.3033 32.0378 13.3033 32.409 13.3331 32.7774C13.4793 34.2863 13.3719 33.9833 14.6217 34.0249C15.2034 34.0427 15.272 33.9595 15.1616 33.3863C14.7381 31.2239 14.5114 29.0556 14.8335 26.8516C14.8544 26.7268 14.8872 26.6051 14.7202 26.5278C14.5829 26.4533 14.4292 26.414 14.2729 26.4133C14.1166 26.4126 13.9626 26.4507 13.8247 26.5241C13.6868 26.5974 13.5695 26.7038 13.4831 26.8335C13.3968 26.9633 13.3442 27.1124 13.3302 27.2674C13.2065 28.3594 13.1935 29.461 13.2914 30.5556H13.3033Z" fill="#1F201F"/>
<path d="M30.3051 51.517C30.663 51.6476 30.8002 51.41 30.8062 51.0833C30.8062 50.8011 30.8987 50.611 31.191 50.5872C31.4833 50.5635 31.4654 50.8694 31.4893 51.0328C31.4977 51.1229 31.5256 51.2102 31.5711 51.2886C31.6166 51.3669 31.6786 51.4346 31.7529 51.4868C31.8272 51.539 31.9119 51.5746 32.0013 51.5911C32.0907 51.6076 32.1826 51.6046 32.2708 51.5823C32.4646 51.5585 32.7271 51.514 32.8017 51.7872C32.8763 52.0605 32.6615 52.1882 32.4796 52.2476C31.9934 52.4051 32.1246 52.6724 32.2558 53.008C32.3185 53.1714 32.5332 53.4001 32.2976 53.5694C32.062 53.7387 31.8442 53.5694 31.701 53.4179C31.4028 53.1209 31.1701 53.014 30.833 53.3764C30.7696 53.4607 30.6798 53.5217 30.5777 53.5496C30.4756 53.5776 30.3672 53.571 30.2693 53.5308C30.0217 53.3853 30.1858 53.1358 30.2454 53.014C30.487 52.5328 30.1649 52.3397 29.8726 52.0902C29.7443 51.9833 29.449 51.9417 29.5594 51.6833C29.6697 51.4249 29.9322 51.4902 30.1559 51.5021L30.3051 51.517ZM32.5601 51.7932C31.7458 51.9952 31.3163 51.6714 31.1373 50.8813C31.1015 51.7486 30.5885 51.8556 29.8129 51.6952C30.1649 51.9922 30.4602 52.1467 30.6034 52.3902C30.7465 52.6338 30.4363 52.9457 30.499 53.4001C30.9673 52.6635 31.4743 52.8684 32.0828 53.2605C31.4594 52.4526 32.1007 52.2001 32.5601 51.7932ZM32.0709 53.3377H32.0471V53.3674L32.0709 53.3377Z" fill="#1F201F"/>
<path d="M44.8586 53.0704C44.8586 53.4596 44.6021 53.5487 44.4291 53.3675C43.9548 52.8744 43.573 53.0704 43.1674 53.4209C43.051 53.519 42.9019 53.5903 42.7677 53.4833C42.6334 53.3764 42.6931 53.1863 42.7677 53.0526C43.066 52.6011 42.9795 52.2714 42.4694 52.0665C42.3083 52.0011 42.1711 51.9091 42.2069 51.713C42.2427 51.517 42.4604 51.5675 42.5887 51.4962C42.6181 51.481 42.6516 51.4758 42.6842 51.4813C43.2807 51.6001 43.5164 51.2675 43.6178 50.7477C43.6476 50.5992 43.7013 50.4061 43.9161 50.4001C44.1308 50.3942 44.1785 50.614 44.2143 50.7774C44.3038 51.2556 44.5395 51.4873 45.0555 51.3714C45.1748 51.3447 45.3538 51.2883 45.4373 51.4724C45.5208 51.6566 45.3955 51.7695 45.2613 51.8734C45.192 51.9403 45.1161 52 45.0346 52.0516C44.9604 52.0726 44.8924 52.1112 44.8364 52.1641C44.7804 52.217 44.7382 52.2826 44.7133 52.3553C44.6883 52.428 44.6815 52.5056 44.6933 52.5816C44.7051 52.6575 44.7352 52.7294 44.7811 52.7912C44.8162 52.8815 44.8421 52.975 44.8586 53.0704ZM43.8624 50.7863C43.7938 51.5764 43.2658 51.7665 42.5559 51.7784C43.3374 52.0962 43.3135 52.6041 43.0033 53.2635C43.5164 52.7437 43.9996 52.5803 44.5961 53.1655C44.1577 52.3457 44.6707 51.9774 45.2911 51.5883C44.2084 51.5615 44.2084 51.5615 43.8624 50.7863Z" fill="#1F201F"/>
<path d="M15.3582 24.6149C15.3599 24.7701 15.3286 24.9238 15.2664 25.066C15.2041 25.2082 15.1124 25.3357 14.9972 25.44C14.8819 25.5444 14.7458 25.6233 14.5978 25.6715C14.4497 25.7198 14.2931 25.7363 14.1382 25.7199C13.4939 25.6783 13.1747 25.3367 13.2254 24.7516C13.2634 24.4729 13.4029 24.2179 13.6174 24.035C13.8319 23.8521 14.1064 23.754 14.3887 23.7595C14.9167 23.7773 15.382 24.1902 15.3582 24.6149ZM14.2456 25.506C14.3542 25.5143 14.4635 25.4999 14.5663 25.4638C14.669 25.4277 14.7632 25.3707 14.8426 25.2963C14.922 25.222 14.985 25.132 15.0275 25.0321C15.0701 24.9321 15.0913 24.8245 15.0897 24.7159C15.0948 24.6192 15.079 24.5225 15.0432 24.4324C15.0074 24.3423 14.9526 24.2609 14.8824 24.1938C14.8122 24.1267 14.7283 24.0755 14.6364 24.0436C14.5445 24.0117 14.4468 23.9999 14.35 24.009C14.2364 24.005 14.1231 24.0234 14.0166 24.0631C13.9101 24.1027 13.8125 24.1629 13.7294 24.2401C13.6463 24.3174 13.5793 24.4102 13.5322 24.5132C13.4852 24.6163 13.459 24.7275 13.4551 24.8407C13.467 25.2417 13.7743 25.5001 14.2456 25.5001V25.506Z" fill="#1F201F"/>
<path d="M25.855 21.2258C25.6969 21.2436 25.5388 21.2763 25.3777 21.2793C22.3949 21.3595 19.4121 21.4159 16.4293 21.5228C13.5479 21.6238 10.6665 21.7812 7.77911 21.906C7.10499 21.9357 7.0871 21.906 7.18255 21.2406C7.18255 21.208 7.18255 21.1783 7.20044 21.1456C7.3645 20.3585 7.3645 20.3703 8.19074 20.3258C14.1802 20.005 20.1697 19.6812 26.1682 19.5387C27.3613 19.509 28.5544 19.4763 29.7685 19.4674C32.9631 19.4406 36.1576 19.3931 39.3522 19.408C44.5752 19.4347 49.7921 19.5505 55.012 19.7941C59.0597 19.9842 63.1074 20.201 67.1462 20.5486C67.6443 20.5901 67.7606 20.8099 67.8083 21.2198C67.9098 22.1109 67.9187 22.1258 67.0388 22.0842C64.8583 21.9832 62.6779 21.8406 60.5004 21.7337C58.7107 21.6476 56.9032 21.5852 55.1075 21.5109C53.5356 21.4486 51.9606 21.4515 50.3946 21.3208C50.2843 21.1842 50.1292 21.2228 49.989 21.2228C49.1777 21.2228 48.3663 21.2228 47.555 21.2228H47.379C47.341 21.1835 47.2941 21.1538 47.2422 21.1362C47.1903 21.1186 47.1349 21.1137 47.0807 21.1218H42.3679C42.2904 21.1336 42.215 21.1567 42.1442 21.1901C40.7363 21.1694 39.3254 21.1337 37.9175 21.1367C35.2121 21.1367 32.5037 21.1842 29.7983 21.205C29.6223 21.205 29.4433 21.205 29.2644 21.205C28.2651 21.0387 27.2599 21.1723 26.2577 21.1307C26.0996 21.1307 25.9445 21.1307 25.7864 21.1515C25.7951 21.1739 25.805 21.1957 25.8162 21.2169C25.8162 21.2169 25.8401 21.2199 25.855 21.2258Z" fill="#039EB6"/>
<path d="M42.1382 21.196C42.209 21.1625 42.2844 21.1395 42.3619 21.1277H47.0747C47.129 21.1196 47.1843 21.1245 47.2362 21.1421C47.2881 21.1597 47.335 21.1894 47.373 21.2287L42.1382 21.196Z" fill="#05A3C6"/>
<path d="M25.8548 21.2257C25.8548 21.2257 25.8191 21.2257 25.8101 21.2109C25.7989 21.1897 25.789 21.1678 25.7803 21.1455C25.9384 21.1455 26.0935 21.1188 26.2516 21.1247C27.2538 21.1663 28.259 21.0326 29.2582 21.199L25.8548 21.2257Z" fill="#05A3C6"/>
<path d="M47.561 21.2317C48.3724 21.2317 49.1837 21.2317 49.995 21.2317C50.1352 21.2317 50.2933 21.1931 50.4007 21.3297C49.453 21.3595 48.5044 21.3268 47.561 21.2317Z" fill="#05A3C6"/>
<path d="M40.4619 37.601C40.3336 37.7495 40.1636 37.693 40.0055 37.693C37.4582 37.693 34.9109 37.693 32.3635 37.693C32.2114 37.693 32.0354 37.7495 31.9102 37.601L35.0779 37.5831H38.359L40.4619 37.601Z" fill="#05A3C6"/>
<path d="M35.0776 37.6011L31.9098 37.6189H27.5489C27.5344 37.597 27.5233 37.5729 27.5161 37.5476L35.0776 37.6011Z" fill="#B34C93"/>
<path d="M67.5009 36.6564C66.0134 36.7455 64.522 36.8277 63.0266 36.903C61.41 36.9861 59.7963 37.1317 58.1855 37.1762C54.8 37.2713 51.4116 37.3931 48.0231 37.4376C47.8607 37.4199 47.6966 37.4434 47.5458 37.5059C47.4742 37.6247 47.3549 37.601 47.2475 37.601H44.0291C44.0442 37.5783 44.0553 37.5532 44.0619 37.5267L38.3587 37.598L40.4467 37.6158C40.3185 37.7643 40.1484 37.7079 39.9903 37.7079C37.443 37.7079 34.8957 37.7079 32.3484 37.7079C32.1962 37.7079 32.0203 37.7643 31.895 37.6158H27.5341H25.2015C25.1599 37.6113 25.1195 37.5992 25.0822 37.5802L25.2433 37.5178C25.1011 37.4937 24.9577 37.4768 24.8138 37.4673C22.6244 37.4168 20.432 37.4376 18.2516 37.301C16.4261 37.1851 14.6006 37.3218 12.7751 37.1079C11.3076 36.9454 9.83018 36.8898 8.35457 36.9416C7.16144 36.9772 7.18232 36.9832 7.37024 38.1802C7.41498 38.4772 7.54025 38.5812 7.83853 38.5901C8.63196 38.6168 9.42539 38.6465 10.2248 38.7178C13.6163 39.0148 17.0226 39.0683 20.4201 39.2525C22.8063 39.3832 25.1926 39.4188 27.5788 39.4366C35.0687 39.4931 42.5615 39.5673 50.0514 39.2109C53.8068 39.0327 57.5681 39.0267 61.3205 38.7059C63.2235 38.5455 65.1385 38.4921 67.0475 38.4089C67.4203 38.3911 67.6441 38.299 67.6441 37.8535C67.6483 37.5469 67.6883 37.2419 67.7634 36.9445C67.8081 36.6713 67.7097 36.6445 67.5009 36.6564Z" fill="#05A3C6"/>
<path d="M44.0352 37.6011C44.0503 37.5784 44.0614 37.5533 44.068 37.5269H47.5549C47.4833 37.6457 47.364 37.6219 47.2566 37.6219L44.0352 37.6011Z" fill="#05A3C6"/>
<path d="M27.5162 37.5178C27.5234 37.5431 27.5345 37.5672 27.549 37.5891H25.2165C25.1749 37.5846 25.1344 37.5725 25.0972 37.5535L25.2582 37.4911L27.5162 37.5178Z" fill="#05A3C6"/>
<path d="M17.017 30.315C16.9801 29.2183 17.009 28.1203 17.1035 27.0269C17.1069 26.8405 17.1582 26.6581 17.2525 26.497C17.3467 26.3359 17.4808 26.2015 17.6419 26.1065C17.803 26.0115 17.9858 25.9592 18.173 25.9545C18.3602 25.9497 18.5454 25.9927 18.7112 26.0794C18.9319 26.1774 18.8603 26.3289 18.8126 26.4863C18.7649 26.6437 18.6963 26.8101 18.8633 26.9259C19.0304 27.0418 19.1616 26.9259 19.3078 26.8338C20.0475 26.3794 20.7664 26.2398 21.4942 26.8724C21.7537 27.1012 22.052 26.9526 22.3144 26.822C22.5621 26.6686 22.8302 26.5506 23.1109 26.4715C23.949 26.3051 24.6202 26.6823 24.9781 27.5051C25.234 28.1528 25.3617 28.8438 25.3539 29.5398C25.437 30.8126 25.417 32.09 25.2943 33.3596C25.2555 33.6566 25.2943 34.0665 24.996 34.1735C24.5723 34.2894 24.1251 34.2894 23.7015 34.1735C23.4927 34.1319 23.5553 33.924 23.5881 33.7636C23.8513 32.5481 23.9665 31.3055 23.9311 30.0626C23.9195 29.6108 23.8534 29.162 23.7343 28.7259C23.6742 28.4904 23.5587 28.2725 23.3972 28.0903C23.2925 27.9755 23.1596 27.89 23.0116 27.8421C22.8635 27.7941 22.7055 27.7855 22.5531 27.817C22.225 27.8705 22.1444 28.1378 22.0639 28.4111C21.9732 28.7881 21.94 29.1766 21.9655 29.5635C21.9655 30.921 22.0012 32.2754 21.9177 33.6299C21.8909 34.0279 21.7775 34.224 21.3391 34.1913C20.0177 34.123 20.2533 34.3754 20.3726 33.0032C20.4681 31.9101 20.6709 30.8289 20.6023 29.7358C20.5954 29.2992 20.5292 28.8656 20.4054 28.4467C20.2981 28.1259 20.1221 27.8526 19.7433 27.8229C19.5714 27.8113 19.3999 27.8508 19.2506 27.9365C19.1013 28.0222 18.9811 28.1501 18.9051 28.3041C18.5412 28.8982 18.5203 29.6022 18.5084 30.2734C18.4611 31.3881 18.5706 32.5038 18.8335 33.5883C18.9498 34.016 18.8335 34.1259 18.401 34.114C17.3182 34.0814 17.2914 34.1141 17.184 33.018C17.0796 32.1239 17.0647 31.218 17.017 30.315Z" fill="#05A3C6"/>
<path d="M5.32704 29.5813C5.31304 28.2893 5.40081 26.9982 5.58953 25.7199C5.61936 25.5298 5.68498 25.3486 5.72972 25.1585C5.74332 25.0551 5.77726 24.9554 5.82961 24.865C5.88197 24.7747 5.95171 24.6955 6.03483 24.6321C6.11795 24.5686 6.21283 24.5221 6.31402 24.4952C6.41522 24.4683 6.52075 24.4616 6.62457 24.4753C7.65364 24.4753 7.64767 24.4338 7.3643 25.414C7.12176 26.285 6.99245 27.1834 6.97952 28.0872C6.97952 28.2476 6.95864 28.4466 7.12269 28.5239C7.28675 28.6011 7.42098 28.4169 7.51643 28.307C8.46419 27.3076 9.19344 26.1232 9.65809 24.8288C9.78038 24.505 9.92655 24.3506 10.2785 24.3803C10.5382 24.3962 10.7988 24.3882 11.057 24.3565C11.3941 24.3179 11.4418 24.4694 11.3792 24.7545C11.13 25.745 10.66 26.6668 10.0041 27.4516C9.96234 27.5021 9.92058 27.5496 9.8818 27.6031C9.31208 28.3605 9.28523 28.0872 9.8818 28.8773C10.884 30.2526 11.5492 31.7437 11.6267 33.4694C11.6446 33.8466 11.5671 34.0219 11.1584 33.9803C10.8039 33.9418 10.4471 33.9269 10.0906 33.9358C9.68195 33.9358 9.6044 33.7249 9.59545 33.3892C9.57805 32.4837 9.3951 31.5889 9.05556 30.7486C8.97517 30.5548 8.88252 30.3664 8.77816 30.1843C8.39039 29.51 8.20247 29.4862 7.65662 30.0268C7.43072 30.2127 7.26354 30.4596 7.17517 30.7378C7.0868 31.016 7.08101 31.3137 7.15848 31.5952C7.31359 32.1892 7.3643 32.8041 7.50748 33.4011C7.591 33.7546 7.46571 33.8407 7.14954 33.8169C6.98846 33.8169 6.82442 33.8169 6.66334 33.8169C5.7327 33.8169 5.67007 33.7635 5.53584 32.8338C5.38049 31.7568 5.31068 30.6692 5.32704 29.5813Z" fill="#05A3C6"/>
<path d="M61.9769 28.4793C62.005 28.8366 61.9788 29.1961 61.8993 29.5457C61.8068 29.9259 62.0992 30.1783 62.1976 30.4991C62.2277 30.574 62.2506 30.6516 62.2662 30.7308C62.3258 31.2803 62.6003 31.4793 63.161 31.3249C63.2953 31.2833 63.5309 31.1882 63.5727 31.4882C63.6144 31.7882 63.4056 31.7585 63.2147 31.812C62.993 31.8548 62.7689 31.8846 62.5436 31.9011C62.4183 31.9189 62.2453 31.9011 62.2453 32.0823C62.2453 32.2635 62.4094 32.213 62.5048 32.2368C62.7584 32.2902 63.0149 32.3229 63.2714 32.3615C63.4295 32.3853 63.5697 32.4328 63.5488 32.6259C63.553 32.6674 63.546 32.7093 63.5285 32.7472C63.511 32.7851 63.4837 32.8177 63.4494 32.8416C63.415 32.8655 63.3749 32.8798 63.3331 32.8832C63.2914 32.8865 63.2495 32.8787 63.2117 32.8605C62.3169 32.5635 61.6995 32.9793 61.0224 33.5229C59.8292 34.4764 58.3617 34.711 56.8882 34.5595C56.3654 34.5278 55.8555 34.3852 55.3925 34.1414C54.9295 33.8976 54.5242 33.5581 54.2036 33.1457C54.1158 32.9962 53.9785 32.8818 53.8152 32.8222C53.6519 32.7626 53.4728 32.7614 53.3088 32.8189C53.0268 32.887 52.7393 32.9297 52.4497 32.9467C52.3066 32.9467 52.1515 32.9882 52.1276 32.7655C52.1037 32.5427 52.2201 32.4684 52.4259 32.4684C52.75 32.4576 53.0708 32.3985 53.3774 32.2932C53.4579 32.2665 53.5981 32.311 53.5981 32.1714C53.5981 32.0318 53.4639 32.011 53.3476 32.0051C53.091 32.0051 52.8315 31.9872 52.572 31.9694C52.3125 31.9516 52.1425 31.9308 52.1544 31.6278C52.1544 31.2744 52.405 31.4348 52.575 31.4407C53.4072 31.4734 53.3207 31.4407 53.6995 30.6922C54.1678 29.8011 53.9054 28.91 53.8666 28.0189C53.854 27.6652 53.8759 27.311 53.9322 26.9615C54.0187 26.3674 54.3289 26.2219 54.8479 26.5397C55.3342 26.8308 55.7719 27.1956 56.1454 27.6209C56.5541 28.0872 56.9657 28.4526 57.6786 28.31C58.0302 28.246 58.3916 28.2591 58.7375 28.3486C58.8662 28.369 58.9982 28.3518 59.1173 28.2991C59.2364 28.2464 59.3376 28.1604 59.4087 28.0516C59.8061 27.5825 60.2588 27.1626 60.7569 26.8011C61.4757 26.3051 61.8158 26.4565 61.95 27.3001C62.0044 27.6909 62.0134 28.0865 61.9769 28.4793ZM56.1097 31.8031C56.1978 31.8059 56.2856 31.7909 56.3677 31.7589C56.4499 31.7268 56.5246 31.6785 56.5874 31.6168C56.6501 31.5551 56.6997 31.4814 56.7329 31.4001C56.7662 31.3187 56.7825 31.2315 56.7808 31.1437C56.7772 31.0627 56.7569 30.9832 56.7213 30.9103C56.6857 30.8373 56.6355 30.7724 56.5737 30.7196C56.512 30.6667 56.44 30.627 56.3622 30.6029C56.2845 30.5787 56.2026 30.5707 56.1216 30.5793C55.9494 30.5817 55.7851 30.6516 55.6644 30.774C55.5437 30.8964 55.4765 31.0613 55.4773 31.2328C55.4895 31.3903 55.5618 31.5373 55.6794 31.6434C55.797 31.7494 55.951 31.8066 56.1097 31.8031ZM59.6145 31.7585C60.0231 31.7585 60.4079 31.4288 60.3721 31.111C60.3667 30.9571 60.3015 30.8113 60.1902 30.7043C60.0789 30.5974 59.9302 30.5376 59.7755 30.5377C59.687 30.5315 59.5982 30.5438 59.5146 30.5737C59.4311 30.6036 59.3548 30.6505 59.2905 30.7114C59.2263 30.7724 59.1754 30.846 59.1413 30.9276C59.1072 31.0091 59.0906 31.0969 59.0925 31.1853C59.0875 31.3297 59.1393 31.4703 59.2367 31.5773C59.3342 31.6843 59.4697 31.7493 59.6145 31.7585Z" fill="#05A3C6"/>
<path d="M38.7199 55.0754H36.1577C35.9532 55.0951 35.7478 55.0478 35.5728 54.9405C35.3978 54.8333 35.2627 54.672 35.1883 54.4813C35.1077 54.2951 35.0933 54.087 35.1475 53.8915C35.2018 53.696 35.3214 53.5247 35.4865 53.4061C35.9489 52.9992 36.3814 52.5744 36.8467 52.1645C36.935 52.0692 37.0431 51.9942 37.1634 51.9447C37.2838 51.8953 37.4135 51.8726 37.5436 51.8783C37.6737 51.8839 37.801 51.9178 37.9166 51.9775C38.0321 52.0372 38.1333 52.1213 38.2128 52.2239C38.5976 52.616 38.9824 53.0081 39.3821 53.3823C39.6804 53.6793 39.8504 53.9942 39.6804 54.413C39.601 54.6035 39.4682 54.7673 39.2979 54.8847C39.1276 55.0022 38.927 55.0684 38.7199 55.0754Z" fill="#039EB6"/>
<path d="M35.9875 50.0765C35.9571 49.74 36.0412 49.4032 36.2262 49.12C36.2693 49.0222 36.3409 48.9395 36.4316 48.8826C36.5224 48.8257 36.6282 48.7972 36.7354 48.8007C36.8426 48.8042 36.9463 48.8396 37.0331 48.9024C37.1199 48.9651 37.1858 49.0523 37.2224 49.1527C37.3693 49.4328 37.4474 49.7435 37.4505 50.0595C37.4536 50.3754 37.3816 50.6876 37.2403 50.9705C36.9957 51.4606 36.5036 51.4755 36.2142 51.0121C36.0387 50.733 35.9592 50.4046 35.9875 50.0765Z" fill="#039EB6"/>
<path d="M37.7326 50.2308C37.7247 49.8939 37.7909 49.5593 37.9265 49.2506C37.9597 49.142 38.025 49.046 38.1139 48.975C38.2028 48.904 38.311 48.8613 38.4246 48.8525C38.6752 48.8525 38.8034 49.0218 38.8989 49.206C39.0392 49.4691 39.1167 49.7608 39.1255 50.0585C39.1343 50.3563 39.0741 50.652 38.9496 50.9228C38.8392 51.1783 38.6722 51.4248 38.353 51.404C38.0339 51.3832 37.9384 51.1337 37.834 50.8902C37.7483 50.6814 37.7136 50.4555 37.7326 50.2308Z" fill="#039EB6"/>
<path d="M36.0861 52.0398C36.0861 52.2833 36.0354 52.5002 35.8206 52.6012C35.7203 52.6435 35.6093 52.6542 35.5027 52.6319C35.3961 52.6096 35.2988 52.5553 35.2241 52.4764C34.8363 52.1484 34.5923 51.6827 34.544 51.1784C34.5224 51.0742 34.5334 50.966 34.5755 50.8682C34.6177 50.7705 34.6889 50.688 34.7796 50.6318C34.8753 50.5854 34.9834 50.5708 35.0881 50.59C35.1928 50.6093 35.2885 50.6614 35.3613 50.7388C35.5639 50.8958 35.7325 51.092 35.857 51.3156C35.9816 51.5392 36.0595 51.7855 36.0861 52.0398Z" fill="#039EB6"/>
<path d="M40.4289 51.113C40.414 51.3741 40.3457 51.6295 40.2283 51.8634C40.1108 52.0973 39.9467 52.3049 39.7458 52.4734C39.679 52.5451 39.592 52.595 39.4962 52.6167C39.4005 52.6384 39.3004 52.6309 39.2089 52.5952C39.1081 52.5402 39.0272 52.4549 38.9779 52.3514C38.9287 52.2479 38.9135 52.1316 38.9345 52.019C38.95 51.7698 39.0165 51.5264 39.1298 51.3037C39.2432 51.081 39.4011 50.8837 39.5937 50.7239C39.6683 50.6446 39.7655 50.5901 39.8722 50.5678C39.979 50.5455 40.09 50.5564 40.1903 50.5992C40.4021 50.7031 40.3961 50.9348 40.4289 51.113Z" fill="#039EB6"/>
<path d="M64.7837 31.711C64.8761 30.1813 64.7837 28.6457 64.9895 27.1189C65.009 26.9435 65.0716 26.7757 65.1716 26.63C65.2717 26.4844 65.4062 26.3656 65.5633 26.284C65.7204 26.2024 65.8953 26.1606 66.0725 26.1622C66.2497 26.1638 66.4237 26.2088 66.5793 26.2932C66.7822 26.3882 66.7553 26.5338 66.6957 26.7001C66.6667 26.7584 66.6577 26.8245 66.6701 26.8884C66.6824 26.9522 66.7155 27.0103 66.7643 27.0536C66.8955 27.1575 67.0059 27.0536 67.1192 27.0001C67.2326 26.9466 67.3519 26.8813 67.4712 26.8338C68.4048 26.4655 69.0879 26.7536 69.4607 27.6833C69.7484 28.4766 69.8504 29.3249 69.759 30.1635C69.6934 31.0546 69.7202 31.9724 69.5144 32.8575C69.3593 33.517 68.4436 33.9595 67.8082 33.71C67.5875 33.6209 67.6889 33.4724 67.7337 33.3506C68.1811 32.1387 68.2765 30.8674 68.372 29.5962C68.3897 29.3053 68.3605 29.0135 68.2855 28.7318C68.196 28.3813 68.0678 28.0308 67.6382 27.9773C67.4429 27.9499 67.2439 27.9856 67.0705 28.0792C66.8971 28.1727 66.7584 28.3192 66.6748 28.4971C66.4151 29.0191 66.2775 29.5929 66.2721 30.1754C66.2476 31.1926 66.2995 32.2103 66.4272 33.2199C66.4749 33.7546 66.4511 33.814 65.9082 33.814C64.7688 33.814 64.7688 33.814 64.7837 32.6853C64.7866 32.3585 64.7837 32.0348 64.7837 31.711Z" fill="#B34C93"/>
<path d="M46.5586 31.0129C46.7116 31.4004 46.9035 31.7716 47.1313 32.1208C47.3196 32.3651 47.5772 32.5475 47.8707 32.6444C48.1642 32.7413 48.4802 32.7483 48.7778 32.6644C48.9447 32.6241 49.0958 32.5355 49.2121 32.4096C49.3284 32.2838 49.4046 32.1264 49.431 31.9575C49.4668 31.789 49.4449 31.6134 49.3686 31.4589C49.2924 31.3043 49.1662 31.1797 49.0104 31.105C48.572 30.8644 48.1156 30.6505 47.6741 30.4159C46.7167 29.9139 46.4064 29.0852 46.5168 28.0664C46.5566 27.6454 46.7275 27.2473 47.0056 26.9278C47.2837 26.6083 47.6551 26.3832 48.0679 26.2842C48.5376 26.1499 49.0355 26.1479 49.5062 26.2785C49.977 26.4091 50.4022 26.6671 50.7345 27.0238C50.8162 27.0926 50.8703 27.1885 50.8867 27.2938C50.9032 27.3991 50.8809 27.5068 50.824 27.5971C50.7144 27.8124 50.5898 28.0198 50.4511 28.2179C50.126 28.6485 50.0574 28.6485 49.7353 28.1971C49.5966 27.9757 49.3914 27.8035 49.1488 27.7048C48.9063 27.6062 48.6387 27.5862 48.3841 27.6476C47.8471 27.7575 47.692 28.1971 48.0351 28.6278C48.2508 28.8692 48.5136 29.0642 48.8076 29.201C49.3995 29.4652 49.9469 29.8189 50.4303 30.2495C51.0895 30.9387 51.179 31.7644 50.8986 32.6258C50.7735 33.0469 50.5346 33.4256 50.2079 33.7206C49.8812 34.0155 49.4793 34.2153 49.0462 34.2981C48.631 34.419 48.1897 34.4192 47.7743 34.2987C47.3589 34.1782 46.9868 33.9419 46.7017 33.6179C46.0843 32.9288 46.1052 32.1327 46.3647 31.2921C46.3901 31.2158 46.4231 31.1421 46.4631 31.0723C46.478 31.0664 46.5079 31.0396 46.5586 31.0129Z" fill="#B34C93"/>
<path d="M38.8661 31.316C39.0486 31.8501 39.0375 32.431 38.8348 32.9578C38.6321 33.4846 38.2506 33.9242 37.7564 34.2001C37.2179 34.4769 36.5977 34.5526 36.008 34.4137C35.4183 34.2748 34.8979 33.9304 34.541 33.4427C33.8907 32.5308 33.7326 31.4793 33.7684 30.4011C33.8132 29.1387 34.0667 27.9328 34.9794 26.9645C35.211 26.6928 35.5009 26.4765 35.8277 26.3315C36.1545 26.1865 36.5099 26.1166 36.8676 26.1268C37.9086 26.1625 38.6573 26.7209 38.9257 27.6506C39.224 28.7199 38.8989 29.5843 37.9981 30.1694C37.4574 30.4612 36.8938 30.7086 36.3128 30.909C35.9071 31.0902 35.4179 31.2239 35.4179 31.8001C35.4179 32.1833 35.8862 32.5962 36.4679 32.7477C36.8946 32.861 37.3479 32.8196 37.7468 32.6308C38.1457 32.442 38.4642 32.1181 38.6453 31.717C38.6931 31.5952 38.6871 31.4348 38.8661 31.316ZM35.6804 29.6526C36.3 29.5278 36.8901 29.2869 37.4194 28.9427C37.4905 28.8835 37.5492 28.8109 37.5919 28.7289C37.6347 28.647 37.6607 28.5575 37.6685 28.4655C37.6762 28.3735 37.6656 28.2809 37.6372 28.193C37.6088 28.1051 37.5631 28.0238 37.5029 27.9536C37.3578 27.7693 37.1531 27.6408 36.9236 27.5899C36.6942 27.539 36.454 27.5689 36.2442 27.6744C35.9495 27.8422 35.703 28.0823 35.5281 28.372C35.3532 28.6616 35.2557 28.991 35.2449 29.3288C35.2539 29.5605 35.3284 29.7031 35.6804 29.6526Z" fill="#05A3C6"/>
<path d="M28.7989 34.2417H28.6259C27.5073 34.2209 27.4327 34.2239 27.3701 33.1338C27.1553 30.188 27.2002 27.2292 27.5043 24.2912C27.555 23.8605 27.7131 23.6971 28.1755 23.6971C29.3209 23.715 29.2851 23.6645 29.0226 24.6981C28.9333 25.0892 28.8734 25.4863 28.8436 25.8863C28.7959 26.3585 28.954 26.4803 29.3984 26.3526C30.7258 25.9635 31.6296 26.3526 32.083 27.6476C32.7988 29.6793 32.5781 31.616 31.2478 33.3714C30.6094 34.2328 29.7086 34.3665 28.7989 34.2417ZM28.7124 29.5724C28.6951 30.0903 28.729 30.6087 28.8138 31.1199C28.8364 31.2796 28.8743 31.4368 28.9271 31.5892C29.1449 32.2457 29.7564 32.415 30.2962 31.9694C30.5341 31.7717 30.7058 31.5064 30.7884 31.209C30.9946 30.5454 31.0537 29.8451 30.9614 29.1566C30.9283 28.6401 30.7574 28.1417 30.4663 27.713C30.3518 27.5549 30.1933 27.4338 30.0104 27.3646C29.8275 27.2954 29.6281 27.2813 29.4372 27.3239C29.0077 27.4011 28.8794 27.7338 28.8138 28.0902C28.7214 28.5816 28.6873 29.082 28.7124 29.5813V29.5724Z" fill="#05A3C6"/>
<path d="M40.7452 30.1396C40.7452 29.106 40.7452 28.0604 40.7452 27.0357C40.7452 26.3406 40.769 26.3198 41.4521 26.3258C41.816 26.3258 42.2396 26.1832 42.332 26.7832C42.3648 27.0089 42.6065 26.9466 42.7645 26.8188C42.9226 26.6911 43.1046 26.5218 43.2865 26.3852C43.3984 26.2851 43.5329 26.2133 43.6786 26.1761C43.8243 26.1389 43.9768 26.1373 44.1233 26.1714C44.2697 26.2056 44.4058 26.2744 44.5197 26.3721C44.6337 26.4699 44.7223 26.5936 44.7779 26.7327C44.9236 27.0415 44.9608 27.3902 44.8834 27.7226C44.806 28.055 44.6187 28.3518 44.3514 28.5654C44.1516 28.7079 43.9756 28.7852 43.8891 28.4555C43.8707 28.3009 43.7958 28.1584 43.6785 28.0554C43.5613 27.9523 43.4101 27.896 43.2537 27.8971C43.0904 27.8987 42.9316 27.9503 42.7987 28.0449C42.6659 28.1395 42.5654 28.2724 42.511 28.4258C42.324 28.8393 42.2284 29.2881 42.2306 29.7416C42.1341 31.0331 42.2104 32.3315 42.4573 33.603C42.5796 34.1733 42.5378 34.2208 41.9651 34.2327C40.7869 34.2505 40.772 34.2505 40.7422 33.0446C40.7213 32.0763 40.7422 31.108 40.7422 30.1396H40.7452Z" fill="#B34C93"/>
<path d="M48.2649 52.4022C48.1217 52.4289 48.0561 52.3695 48.0501 52.224C48.0442 52.0784 48.0651 51.8972 48.2858 51.8764C48.6736 51.8378 49.0583 51.7903 49.4461 51.7695C51.3193 51.6596 53.1687 51.3507 55.0299 51.1309C55.6862 51.0537 56.3394 50.9438 56.9956 50.8339C57.1239 50.816 57.2939 50.6943 57.3178 50.9527C57.3271 50.9918 57.3276 51.0324 57.3191 51.0717C57.3107 51.111 57.2935 51.1479 57.269 51.1798C57.2444 51.2116 57.213 51.2376 57.1771 51.2559C57.1411 51.2742 57.1016 51.2842 57.0612 51.2853C56.6138 51.3566 56.1664 51.4636 55.7249 51.52C53.2582 51.8378 50.7943 52.1853 48.3156 52.3814L48.2649 52.4022Z" fill="#039EB6"/>
<path d="M26.2249 52.5239C23.9639 52.3902 21.7148 52.1585 19.4688 51.8763C18.908 51.805 18.3472 51.7189 17.7865 51.6654C17.5568 51.6417 17.4464 51.5466 17.4882 51.3298C17.5299 51.113 17.7238 51.2437 17.8401 51.2555C20.7066 51.5526 23.5642 51.912 26.4426 52.0664C26.538 52.0664 26.6365 52.0843 26.7409 52.0991C26.9318 52.1288 26.9556 52.2684 26.9467 52.4229C26.9467 52.6338 26.7916 52.5773 26.6663 52.5625C26.541 52.5476 26.377 52.5357 26.2249 52.5239Z" fill="#039EB6"/>
<path d="M13.2913 30.5555C13.1909 29.4682 13.1999 28.3736 13.3182 27.2881C13.3322 27.1331 13.3848 26.984 13.4711 26.8542C13.5575 26.7244 13.6748 26.6181 13.8127 26.5447C13.9506 26.4714 14.1046 26.4333 14.2609 26.434C14.4172 26.4346 14.5709 26.474 14.7082 26.5485C14.8752 26.6257 14.8424 26.7475 14.8215 26.8723C14.4994 29.0703 14.7261 31.2386 15.1496 33.4069C15.26 33.9802 15.1914 34.0634 14.6097 34.0456C13.3599 34.004 13.4673 34.3069 13.3211 32.798C13.2853 32.4297 13.2973 32.0584 13.2913 31.6871C13.2854 31.3158 13.2913 30.9267 13.2913 30.5555Z" fill="#05A3C6"/>
<path d="M32.5607 51.7932C32.1013 52.2002 31.46 52.4526 32.0834 53.2606C31.4868 52.8685 30.9678 52.6665 30.4995 53.4002C30.4369 52.9457 30.756 52.6487 30.6039 52.3903C30.4518 52.1318 30.1654 51.9952 29.8135 51.6952C30.589 51.8556 31.1021 51.7487 31.1378 50.8813C31.3168 51.6714 31.7463 51.9952 32.5607 51.7932Z" fill="#039EB6"/>
<path d="M32.0713 53.3379L32.0474 53.3529V53.3229L32.0713 53.3379Z" fill="#039EB6"/>
<path d="M43.8621 50.7863C44.2081 51.5734 44.2081 51.5734 45.2909 51.5734C44.6705 51.9595 44.1574 52.3308 44.5959 53.1506C43.9993 52.5566 43.5161 52.7288 43.0031 53.2486C43.3014 52.6041 43.3372 52.0962 42.5557 51.7635C43.2715 51.7665 43.7935 51.5764 43.8621 50.7863Z" fill="#039EB6"/>
<path d="M14.2459 25.5001C13.7746 25.5001 13.4674 25.2417 13.4614 24.8348C13.4653 24.7216 13.4915 24.6104 13.5385 24.5073C13.5856 24.4043 13.6526 24.3115 13.7357 24.2342C13.8188 24.157 13.9164 24.0968 14.0229 24.0572C14.1294 24.0175 14.2427 23.9991 14.3563 24.0031C14.4531 23.994 14.5508 24.0058 14.6427 24.0377C14.7346 24.0696 14.8185 24.1208 14.8887 24.1879C14.9589 24.255 15.0137 24.3364 15.0495 24.4265C15.0853 24.5166 15.1012 24.6133 15.096 24.71C15.0976 24.8191 15.0763 24.9273 15.0334 25.0277C14.9905 25.128 14.927 25.2184 14.8469 25.2928C14.7668 25.3672 14.6719 25.4241 14.5684 25.4598C14.4649 25.4955 14.3551 25.5093 14.2459 25.5001Z" fill="#05A3C6"/>
<path d="M35.6801 29.6524C35.3281 29.7029 35.2536 29.5604 35.2446 29.3287C35.2554 28.9909 35.3529 28.6614 35.5278 28.3718C35.7027 28.0822 35.9493 27.842 36.2439 27.6742C36.4538 27.5687 36.6939 27.5389 36.9234 27.5898C37.1529 27.6407 37.3575 27.7692 37.5026 27.9534C37.5628 28.0236 37.6085 28.105 37.6369 28.1929C37.6653 28.2807 37.676 28.3734 37.6682 28.4653C37.6604 28.5573 37.6344 28.6469 37.5917 28.7288C37.5489 28.8107 37.4902 28.8833 37.4191 28.9425C36.8899 29.2868 36.2997 29.5277 35.6801 29.6524ZM35.4862 29.4089C36.0635 29.3534 36.62 29.1653 37.1119 28.8594C37.4967 28.6425 37.5533 28.2653 37.2371 28.0425C37.0992 27.918 36.9222 27.8449 36.7362 27.8357C36.5502 27.8264 36.3667 27.8817 36.217 27.992C35.7099 28.3396 35.6115 28.8475 35.4862 29.4089Z" fill="#1F201F"/>
<path d="M28.7128 29.5814C28.6882 29.0841 28.7223 28.5856 28.8142 28.0962C28.8799 27.7398 29.0081 27.4071 29.4376 27.3299C29.6286 27.2873 29.8279 27.3014 30.0108 27.3706C30.1938 27.4398 30.3523 27.5609 30.4667 27.719C30.7578 28.1477 30.9288 28.646 30.9619 29.1625C31.0541 29.8511 30.9951 30.5514 30.7889 31.215C30.7062 31.5124 30.5346 31.7777 30.2967 31.9754C29.7568 32.421 29.1453 32.2517 28.9276 31.5952C28.8748 31.4428 28.8368 31.2856 28.8142 31.1259C28.7297 30.6156 28.6957 30.0983 28.7128 29.5814ZM28.9455 29.519C28.9455 30.2467 28.9306 30.9418 29.1781 31.5982C29.2527 31.7913 29.3332 31.9962 29.6047 31.9873C29.7259 31.9956 29.8473 31.9726 29.957 31.9206C30.0667 31.8685 30.1611 31.7892 30.2311 31.6903C30.6863 30.9286 30.8505 30.029 30.6934 29.1566C30.6248 28.7051 30.598 28.2031 30.2341 27.8318C30.1507 27.721 30.0387 27.6348 29.91 27.5825C29.7813 27.5301 29.6407 27.5137 29.5033 27.5348C29.205 27.5912 29.1036 27.8318 29.0379 28.0843C28.9658 28.556 28.9348 29.033 28.9455 29.5101V29.519Z" fill="#1F201F"/>
</g>
<defs>
<clipPath id="clip0_129_8591">
<rect width="75" height="58.5714" fill="white"/>
</clipPath>
</defs>
</svg>
