<svg width="40" height="39" viewBox="0 0 40 39" fill="none" xmlns="http://www.w3.org/2000/svg">
<path d="M38.7998 18.13L21.0998 0.419989C20.9082 0.232477 20.6701 0.099369 20.41 0.0343427C20.1498 -0.0306837 19.8771 -0.0252834 19.6198 0.0499887C19.364 -0.0244378 19.093 -0.0293916 18.8346 0.0356368C18.5763 0.100665 18.3399 0.233329 18.1498 0.419989L14.6898 3.87999V2.64999C14.6872 2.24859 14.5258 1.86454 14.2411 1.58164C13.9563 1.29875 13.5712 1.13998 13.1698 1.13999C13.0402 1.12537 12.9094 1.12537 12.7798 1.13999C12.6503 1.12409 12.5193 1.12409 12.3898 1.13999H9.05979C8.85851 1.13601 8.65844 1.17206 8.47121 1.24604C8.28397 1.32001 8.1133 1.43045 7.9691 1.57093C7.82489 1.71141 7.71003 1.87914 7.63119 2.06438C7.55234 2.24962 7.51108 2.44867 7.50979 2.64999V11.02L0.43979 18.13C0.156009 18.4138 -0.00341797 18.7987 -0.00341797 19.2C-0.00341796 19.6013 0.156009 19.9862 0.43979 20.27C0.723572 20.5538 1.10846 20.7132 1.50979 20.7132C1.91112 20.7132 2.29601 20.5538 2.57979 20.27L3.78979 19.06V36.36C3.78979 36.36 3.78979 36.44 3.78979 36.48C3.78979 36.52 3.78979 36.56 3.78979 36.6C3.79241 36.9997 3.95234 37.3822 4.23496 37.6648C4.51757 37.9474 4.90012 38.1074 5.29979 38.11H33.9798C34.3812 38.1127 34.7674 37.9564 35.054 37.6754C35.3407 37.3944 35.5045 37.0114 35.5098 36.61C35.5098 36.61 35.5098 36.53 35.5098 36.49C35.5098 36.45 35.5098 36.41 35.5098 36.37V19.09L36.6798 20.27C36.9657 20.5497 37.3498 20.7064 37.7498 20.7064C38.1498 20.7064 38.5339 20.5497 38.8198 20.27C38.9594 20.1284 39.0696 19.9606 39.1442 19.7763C39.2188 19.5919 39.2562 19.3947 39.2544 19.1958C39.2525 18.997 39.2114 18.8005 39.1334 18.6176C39.0554 18.4347 38.942 18.269 38.7998 18.13ZM10.5798 4.15999H11.6598V6.90999L10.5798 7.98999V4.15999ZM32.5098 35.1H24.7998C25.9998 34.76 26.3398 33.31 26.3098 32.27C26.3098 31.07 26.9698 31.17 26.9698 31.17C26.9698 31.17 27.6498 31.33 27.6198 30.02C27.5898 28.71 25.5598 29.02 25.5598 29.02C25.5598 29.02 24.0298 29.35 24.1298 31.89C24.2098 33.89 23.0698 33.89 22.5598 33.81C22.5371 33.276 22.3794 32.7564 22.1013 32.3C21.8232 31.8435 21.4339 31.4651 20.9698 31.2C21.368 30.9807 21.701 30.6596 21.9346 30.2696C22.1683 29.8796 22.2943 29.4346 22.2998 28.98V28.82C22.3048 28.7601 22.3048 28.6999 22.2998 28.64C22.2998 28.4 22.2998 28.16 22.2998 27.92C22.2998 27.92 22.2998 27.92 22.2998 27.87C22.3048 27.7801 22.3048 27.6899 22.2998 27.6C22.2717 27.1513 22.1877 26.7079 22.0498 26.28C22.0106 26.1382 21.9499 26.0033 21.8698 25.88C21.8664 25.8591 21.8584 25.8393 21.8463 25.822C21.8341 25.8046 21.8183 25.7903 21.7998 25.78C21.7091 25.6375 21.5666 25.536 21.4023 25.4968C21.2381 25.4576 21.065 25.4838 20.9198 25.57C20.734 25.6648 20.5678 25.7937 20.4298 25.95C20.3832 25.9787 20.3424 26.016 20.3098 26.06C20.1884 26.1757 20.0749 26.2993 19.9698 26.43L19.5098 26.36H19.1098C19.0047 26.2293 18.8911 26.1057 18.7698 25.99C18.7372 25.946 18.6964 25.9087 18.6498 25.88C18.5118 25.7237 18.3455 25.5948 18.1598 25.5C18.0146 25.4138 17.8415 25.3876 17.6773 25.4268C17.513 25.466 17.3705 25.5675 17.2798 25.71C17.2613 25.7203 17.2454 25.7346 17.2333 25.752C17.2212 25.7693 17.2132 25.7891 17.2098 25.81C17.1297 25.9333 17.069 26.0682 17.0298 26.21C16.8918 26.6379 16.8079 27.0813 16.7798 27.53C16.7748 27.6199 16.7748 27.7101 16.7798 27.8C16.7798 27.8 16.7798 27.8 16.7798 27.85C16.7798 28.09 16.7798 28.33 16.7798 28.57C16.7748 28.6299 16.7748 28.6901 16.7798 28.75V28.91C16.7871 29.3869 16.9265 29.8525 17.1824 30.255C17.4384 30.6575 17.801 30.9811 18.2298 31.19C16.6298 32.05 16.6598 34.33 16.7198 35.07H6.80979V16.04L19.6198 3.22999L32.5098 16.07V35.1Z" fill="#01A2BE"/>
</svg>
