<svg width="40" height="40" viewBox="0 0 40 40" fill="none" xmlns="http://www.w3.org/2000/svg">
<path d="M19.9 39.8C30.8905 39.8 39.8 30.8905 39.8 19.9C39.8 8.90953 30.8905 0 19.9 0C8.90954 0 0 8.90953 0 19.9C0 30.8905 8.90954 39.8 19.9 39.8Z" fill="#01A2BE"/>
<path d="M19.9705 22.98C19.9789 23.4733 19.8655 23.961 19.6404 24.4C19.429 24.7973 19.1277 25.1398 18.7605 25.4C18.3627 25.6828 17.9197 25.8959 17.4505 26.03C16.9326 26.1724 16.3976 26.2431 15.8605 26.24H9.71045V13.51H16.5205C16.9385 13.504 17.3513 13.6038 17.7205 13.8C18.0731 13.9833 18.3858 14.2349 18.6404 14.54C18.8855 14.8405 19.0813 15.1781 19.2205 15.54C19.3586 15.9181 19.4296 16.3175 19.4305 16.72C19.4297 17.3344 19.2676 17.9379 18.9604 18.47C18.6504 19.0102 18.1731 19.435 17.6005 19.68C18.2884 19.8836 18.8896 20.309 19.3105 20.89C19.7551 21.4947 19.9872 22.2296 19.9705 22.98ZM12.1805 15.65V18.86H15.4805C15.6784 18.8625 15.8748 18.8258 16.0584 18.752C16.2421 18.6782 16.4093 18.5687 16.5505 18.43C16.7011 18.2722 16.8178 18.0851 16.8934 17.8805C16.9691 17.6759 17.0021 17.4579 16.9904 17.24C17.0144 16.8159 16.8707 16.3993 16.5905 16.08C16.4648 15.9403 16.3103 15.8296 16.1376 15.7553C15.965 15.6811 15.7783 15.6452 15.5905 15.65H12.1805ZM17.4705 22.51C17.4696 22.2855 17.4325 22.0626 17.3604 21.85C17.2838 21.6508 17.1758 21.4651 17.0405 21.3C16.9127 21.1505 16.7563 21.028 16.5805 20.94C16.3974 20.8479 16.1954 20.7999 15.9904 20.8H12.1805V24.16H15.8605C16.0802 24.1585 16.2975 24.1143 16.5005 24.03C16.6916 23.9476 16.8648 23.8288 17.0105 23.68C17.152 23.5232 17.2669 23.3441 17.3505 23.15C17.4306 22.9462 17.4713 22.729 17.4705 22.51Z" fill="white"/>
<path d="M25.3104 26.26C24.6255 26.275 23.9447 26.1491 23.3104 25.89C22.7493 25.6603 22.2403 25.3196 21.8142 24.8882C21.388 24.4569 21.0534 23.9439 20.8304 23.38C20.6017 22.8112 20.4862 22.2031 20.4904 21.59C20.485 20.9648 20.597 20.344 20.8204 19.76C21.0384 19.1869 21.3719 18.6648 21.8003 18.2261C22.2287 17.7874 22.7427 17.4416 23.3104 17.21C23.9447 16.95 24.625 16.8207 25.3104 16.83C25.9961 16.8182 26.6769 16.9475 27.3104 17.21C28.2042 17.6139 28.9497 18.2868 29.4427 19.1348C29.9357 19.9827 30.1516 20.9634 30.0604 21.94C30.073 22.0564 30.073 22.1737 30.0604 22.29H23.0604C23.0863 22.6203 23.1745 22.9426 23.3204 23.24C23.5852 23.7746 24.0425 24.189 24.6004 24.4C24.8777 24.508 25.1729 24.5622 25.4704 24.56C25.9294 24.5639 26.3813 24.4466 26.7804 24.22C27.1627 24.0368 27.465 23.7203 27.6304 23.33L29.6304 23.88C29.274 24.5962 28.7138 25.1911 28.0204 25.59C27.199 26.0661 26.2591 26.2985 25.3104 26.26ZM27.6704 20.77C27.6384 20.1457 27.3661 19.558 26.9104 19.13C26.4776 18.7238 25.904 18.5015 25.3104 18.51C25.0089 18.5095 24.7101 18.5672 24.4304 18.68C24.1635 18.7864 23.9191 18.9425 23.7104 19.14C23.4966 19.3419 23.3235 19.5829 23.2004 19.85C23.0635 20.1389 22.982 20.451 22.9604 20.77H27.6704Z" fill="white"/>
<path d="M22.3101 14.14H28.3101V15.65H22.3101V14.14Z" fill="white"/>
</svg>
