<svg width="40" height="40" viewBox="0 0 40 40" fill="none" xmlns="http://www.w3.org/2000/svg">
<path d="M19.9 39.8C30.8905 39.8 39.8 30.8905 39.8 19.9C39.8 8.90953 30.8905 0 19.9 0C8.90954 0 0 8.90953 0 19.9C0 30.8905 8.90954 39.8 19.9 39.8Z" fill="#01A2BE"/>
<path d="M25.3901 13.24C25.148 13.2381 24.9107 13.3082 24.7086 13.4415C24.5064 13.5748 24.3485 13.7652 24.2549 13.9885C24.1614 14.2118 24.1364 14.458 24.1831 14.6956C24.2299 14.9331 24.3463 15.1514 24.5175 15.3227C24.6887 15.4939 24.907 15.6103 25.1446 15.657C25.3822 15.7038 25.6283 15.6788 25.8516 15.5852C26.075 15.4916 26.2654 15.3337 26.3987 15.1316C26.532 14.9294 26.6021 14.6922 26.6001 14.45C26.6001 14.1291 26.4726 13.8214 26.2457 13.5944C26.0188 13.3675 25.711 13.24 25.3901 13.24Z" fill="white"/>
<path d="M19.9901 14.8C18.9815 14.8 17.9954 15.0991 17.1567 15.6595C16.3181 16.2199 15.6644 17.0164 15.2784 17.9483C14.8923 18.8802 14.7913 19.9056 14.9881 20.8949C15.1849 21.8843 15.6707 22.793 16.3839 23.5062C17.0971 24.2195 18.0059 24.7052 18.9952 24.902C19.9845 25.0988 21.0099 24.9978 21.9418 24.6118C22.8737 24.2258 23.6702 23.5721 24.2306 22.7334C24.791 21.8947 25.0901 20.9087 25.0901 19.9C25.0875 18.5482 24.5493 17.2525 23.5935 16.2967C22.6376 15.3408 21.3419 14.8026 19.9901 14.8ZM19.9901 23.17C19.343 23.172 18.7098 22.9819 18.1707 22.6238C17.6317 22.2657 17.211 21.7556 16.9619 21.1583C16.7129 20.561 16.6467 19.9032 16.7718 19.2682C16.8968 18.6332 17.2075 18.0496 17.6644 17.5913C18.1213 17.133 18.7039 16.8206 19.3385 16.6936C19.9731 16.5666 20.6311 16.6308 21.2292 16.878C21.8273 17.1252 22.3386 17.5443 22.6984 18.0822C23.0581 18.6202 23.2501 19.2528 23.2501 19.9C23.2501 20.7655 22.907 21.5957 22.2959 22.2087C21.6848 22.8217 20.8557 23.1673 19.9901 23.17Z" fill="white"/>
<path d="M24.04 30.26H15.77C14.1186 30.2574 12.5355 29.6001 11.3677 28.4324C10.1999 27.2646 9.54269 25.6815 9.54005 24.03V15.76C9.53873 14.9406 9.69883 14.1289 10.0112 13.3713C10.3236 12.6137 10.7821 11.9251 11.3606 11.3447C11.9391 10.7644 12.6263 10.3036 13.3829 9.98883C14.1394 9.67402 14.9506 9.51132 15.77 9.51001H24.04C25.6889 9.51265 27.2694 10.1688 28.4353 11.3347C29.6012 12.5006 30.2574 14.0812 30.26 15.73V24C30.2627 24.8195 30.1039 25.6314 29.7927 26.3895C29.4816 27.1476 29.0241 27.8369 28.4465 28.4182C27.869 28.9995 27.1825 29.4614 26.4265 29.7774C25.6704 30.0934 24.8595 30.2574 24.04 30.26ZM15.77 11.51C14.6366 11.51 13.5495 11.9596 12.7472 12.7601C11.9448 13.5605 11.4927 14.6466 11.49 15.78V24.05C11.49 25.1851 11.941 26.2738 12.7436 27.0764C13.5463 27.8791 14.6349 28.33 15.77 28.33H24.04C25.1734 28.3274 26.2595 27.8753 27.06 27.0729C27.8605 26.2705 28.31 25.1834 28.31 24.05V15.76C28.3021 14.6318 27.8491 13.5524 27.0494 12.7565C26.2498 11.9606 25.1683 11.5126 24.04 11.51H15.77Z" fill="white"/>
</svg>
