<svg width="221" height="243" viewBox="0 0 221 243" fill="none" xmlns="http://www.w3.org/2000/svg">
<path d="M219.551 133.096C219.684 130.749 219.684 128.397 219.551 126.05C219.551 116.568 218.761 107.085 218.3 97.6688C218.434 97.0392 218.434 96.3887 218.3 95.7591C218.236 92.2131 217.972 88.6736 217.51 85.1572V83.9719C216.651 66.1929 213.419 48.6086 207.897 31.6869C206.344 26.0036 203.9 20.6026 200.655 15.6854C200.037 14.1605 199.093 12.7893 197.889 11.6685C194.2 6.1666 188.573 2.2572 182.13 0.719474C175.687 -0.818254 168.901 0.128609 163.125 3.37137C155.753 7.24552 149.078 12.3194 143.372 18.3852C141.529 19.6257 139.923 21.1869 138.631 22.9947C133.972 27.6178 129.576 32.4984 125.463 37.6134C115.085 36.2089 104.566 36.2089 94.1879 37.6134C90.0748 32.4984 85.6784 27.6178 81.0194 22.9947C79.7277 21.1869 78.122 19.6257 76.2788 18.3852C70.5599 12.3338 63.8871 7.26186 56.5261 3.37137C50.75 0.128609 43.9642 -0.818254 37.5212 0.719474C31.0781 2.2572 25.451 6.1666 21.7615 11.6685C20.5573 12.7893 19.6134 14.1605 18.9961 15.6854C15.751 20.6026 13.3064 26.0036 11.7534 31.6869C6.23232 48.6086 2.99933 66.1929 2.14048 83.9719V85.1572C1.67839 88.6736 1.4146 92.2131 1.35037 95.7591C1.21709 96.3887 1.21709 97.0392 1.35037 97.6688C0.889478 107.085 0.296898 116.568 0.0993714 126.05C-0.0331238 128.397 -0.0331238 130.749 0.0993714 133.096C0.0993714 135.269 0.0993714 137.376 0.0993714 139.681C0.0993714 196.773 49.5469 243 110.517 243C171.487 243 221 196.905 221 139.681C220.078 137.376 219.947 135.269 219.551 133.096ZM174.186 85.1572L87.9329 171.487C85.839 173.299 83.1628 174.296 80.3939 174.296C77.6251 174.296 74.9489 173.299 72.855 171.487L44.5429 143.105C42.93 141.168 42.113 138.69 42.2573 136.174C42.4016 133.657 43.4963 131.289 45.3199 129.549C47.1436 127.808 49.5601 126.826 52.0805 126.8C54.601 126.774 57.0373 127.706 58.8965 129.409L80.6244 151.139L160.293 71.0653C161.219 70.14 162.317 69.4061 163.526 68.9053C164.735 68.4045 166.03 68.1468 167.339 68.1468C168.647 68.1468 169.943 68.4045 171.151 68.9053C172.36 69.4061 173.459 70.14 174.384 71.0653C175.309 71.9906 176.043 73.0891 176.543 74.298C177.044 75.507 177.302 76.8027 177.302 78.1113C177.302 79.4198 177.044 80.7156 176.543 81.9245C176.043 83.1335 175.309 84.2319 174.384 85.1572H174.186Z" fill="#01A2BE"/>
</svg>
