<svg width="40" height="40" viewBox="0 0 40 40" fill="none" xmlns="http://www.w3.org/2000/svg">
<g clip-path="url(#clip0_129_8660)">
<path d="M26.0801 13.54C26.0801 12.98 26.0301 12.42 26.0101 11.86C26.0154 11.8202 26.0154 11.7798 26.0101 11.74C26.0101 11.53 26.0101 11.32 26.0101 11.11C26.0142 11.0868 26.0142 11.0631 26.0101 11.04C25.9599 9.98578 25.7682 8.9431 25.4401 7.94C25.3515 7.58568 25.2063 7.24799 25.0101 6.94C24.9722 6.84823 24.9141 6.76619 24.8401 6.69999C24.7311 6.52788 24.5894 6.37892 24.4228 6.26164C24.2563 6.14435 24.0683 6.06104 23.8695 6.01646C23.6708 5.97188 23.4652 5.96691 23.2645 6.00184C23.0639 6.03676 22.8721 6.11089 22.7001 6.21999C22.2683 6.45278 21.8767 6.75325 21.5401 7.11C21.4292 7.18743 21.3313 7.28193 21.2501 7.38999C20.9713 7.66211 20.7076 7.9492 20.4601 8.24999C19.8426 8.17002 19.2175 8.17002 18.6001 8.24999C18.3525 7.9492 18.0888 7.66211 17.8101 7.38999C17.7288 7.28193 17.6309 7.18743 17.5201 7.11C17.1834 6.75325 16.7918 6.45278 16.3601 6.21999C16.0186 6.02519 15.6158 5.96743 15.2333 6.05841C14.8509 6.14938 14.5173 6.3823 14.3001 6.70999C14.2261 6.77619 14.168 6.85823 14.1301 6.94999C13.9338 7.25799 13.7886 7.59567 13.7001 7.94999C13.3719 8.9531 13.1802 9.99578 13.1301 11.05C13.1259 11.0731 13.1259 11.0968 13.1301 11.12C13.1301 11.33 13.1301 11.54 13.1301 11.75C13.1247 11.7898 13.1247 11.8302 13.1301 11.87C13.1301 12.43 13.0701 12.99 13.0601 13.55C13.0601 13.69 13.0601 13.83 13.0601 13.97C13.0601 14.11 13.0601 14.22 13.0601 14.35C13.1201 16.0149 13.832 17.5895 15.0423 18.7344C16.2526 19.8792 17.8644 20.5026 19.5301 20.47C21.2111 20.5239 22.8448 19.9088 24.0728 18.7596C25.3008 17.6103 26.0227 16.0209 26.0801 14.34C26.0801 14.21 26.0801 14.08 26.0801 13.96C26.0801 13.84 26.0801 13.68 26.0801 13.54Z" fill="#01A2BE"/>
<path d="M19.8702 0C15.9384 0 12.0948 1.16594 8.82551 3.35038C5.55626 5.53483 3.00819 8.63966 1.50352 12.2723C-0.00115204 15.9048 -0.394842 19.9021 0.372232 23.7584C1.13931 27.6147 3.03269 31.157 5.81296 33.9373C8.59323 36.7176 12.1355 38.6109 15.9918 39.378C19.8482 40.1451 23.8454 39.7514 27.478 38.2467C31.1106 36.7421 34.2154 34.194 36.3999 30.9247C38.5843 27.6555 39.7502 23.8119 39.7502 19.88C39.7502 17.2693 39.236 14.6842 38.237 12.2723C37.2379 9.8603 35.7736 7.66875 33.9275 5.82272C32.0815 3.97669 29.8899 2.51234 27.478 1.51327C25.066 0.514211 22.4809 0 19.8702 0ZM27.2502 33.59C27.5113 32.7959 27.6462 31.9659 27.6502 31.13V29.43C27.6423 27.3567 26.8145 25.3707 25.3475 23.9056C23.8806 22.4405 21.8935 21.6153 19.8202 21.61H19.3302C17.2613 21.6205 15.2805 22.4485 13.8194 23.9133C12.3583 25.3781 11.5355 27.3611 11.5302 29.43V31.13C11.5343 31.8061 11.6285 32.4787 11.8102 33.13C8.8842 31.3455 6.62964 28.6444 5.39706 25.4465C4.16448 22.2485 4.02292 18.733 4.99439 15.4463C5.96587 12.1596 7.99595 9.28594 10.7691 7.27201C13.5422 5.25807 16.9029 4.2167 20.3289 4.30977C23.7549 4.40284 27.0542 5.62515 29.7138 7.78668C32.3735 9.9482 34.2446 12.9279 35.0362 16.2624C35.8277 19.597 35.4955 23.0997 34.0911 26.226C32.6867 29.3523 30.2889 31.927 27.2702 33.55L27.2502 33.59Z" fill="#01A2BE"/>
</g>
<defs>
<clipPath id="clip0_129_8660">
<rect width="39.75" height="39.75" fill="white"/>
</clipPath>
</defs>
</svg>
