<svg width="41" height="40" viewBox="0 0 41 40" fill="none" xmlns="http://www.w3.org/2000/svg">
<g clip-path="url(#clip0_106_3624)">
<path d="M38.3298 2.99002H12.9098C12.5471 2.10506 11.9294 1.34799 11.1352 0.815158C10.341 0.282322 9.4062 -0.00219727 8.4498 -0.00219727C7.49341 -0.00219727 6.55864 0.282322 5.76443 0.815158C4.97022 1.34799 4.35248 2.10506 3.9898 2.99002H2.0998C1.86343 2.99002 1.62936 3.03658 1.41097 3.12703C1.19259 3.21749 0.994158 3.35008 0.827013 3.51723C0.659867 3.68437 0.52728 3.8828 0.436821 4.10119C0.346363 4.31957 0.299805 4.55364 0.299805 4.79002C0.299805 5.0264 0.346363 5.26046 0.436821 5.47885C0.52728 5.69723 0.659867 5.89566 0.827013 6.06281C0.994158 6.22995 1.19259 6.36254 1.41097 6.453C1.62936 6.54346 1.86343 6.59002 2.0998 6.59002H3.9098C4.22234 7.37892 4.73719 8.07157 5.40253 8.59822C6.06787 9.12488 6.86022 9.46696 7.6998 9.59002V6.44002C7.40853 6.30902 7.15787 6.10208 6.97409 5.84088C6.79032 5.57968 6.68021 5.27384 6.6553 4.95544C6.6304 4.63704 6.69162 4.31781 6.83254 4.03121C6.97346 3.74461 7.1889 3.5012 7.45626 3.32651C7.72362 3.15182 8.03306 3.05228 8.35212 3.03833C8.67119 3.02438 8.98814 3.09653 9.26972 3.24721C9.55131 3.3979 9.78717 3.62157 9.95257 3.89478C10.118 4.16798 10.2068 4.48066 10.2098 4.80002C10.2106 5.14664 10.1097 5.48587 9.91949 5.77563C9.72927 6.0654 9.45817 6.29294 9.1398 6.43002V9.58002C9.9765 9.45562 10.7656 9.11278 11.4275 8.58607C12.0894 8.05936 12.6007 7.36741 12.9098 6.58002H38.3298C38.8072 6.58002 39.265 6.39038 39.6026 6.05281C39.9402 5.71524 40.1298 5.25741 40.1298 4.78002C40.1298 4.30263 39.9402 3.84479 39.6026 3.50723C39.265 3.16966 38.8072 2.98002 38.3298 2.98002V2.99002Z" fill="#EFEFEF"/>
<path d="M1.8 18.32H27.24C27.6027 17.435 28.2204 16.678 29.0146 16.1451C29.8088 15.6123 30.7436 15.3278 31.7 15.3278C32.6564 15.3278 33.5912 15.6123 34.3854 16.1451C35.1796 16.678 35.7973 17.435 36.16 18.32H38.02C38.4974 18.32 38.9552 18.5096 39.2928 18.8472C39.6304 19.1847 39.82 19.6426 39.82 20.12C39.82 20.5974 39.6304 21.0552 39.2928 21.3928C38.9552 21.7303 38.4974 21.92 38.02 21.92H36.19C35.8801 22.7087 35.3672 23.4015 34.7034 23.9283C34.0397 24.4551 33.2485 24.7972 32.41 24.92V21.76C32.7027 21.6305 32.955 21.4245 33.1405 21.1638C33.326 20.903 33.4377 20.597 33.464 20.278C33.4902 19.9591 33.43 19.6389 33.2896 19.3513C33.1492 19.0637 32.9339 18.8193 32.6663 18.6438C32.3987 18.4682 32.0888 18.3681 31.769 18.3539C31.4493 18.3397 31.1317 18.4119 30.8496 18.563C30.5675 18.7141 30.3313 18.9384 30.166 19.2124C30.0006 19.4864 29.9122 19.8 29.91 20.12C29.915 20.4666 30.0195 20.8044 30.211 21.0934C30.4024 21.3823 30.6728 21.6102 30.99 21.75V24.9C30.1537 24.7746 29.365 24.4314 28.7033 23.9048C28.0415 23.3782 27.53 22.6868 27.22 21.9H1.8C1.56362 21.9 1.32956 21.8534 1.11117 21.763C0.892784 21.6725 0.694353 21.5399 0.527207 21.3728C0.360062 21.2056 0.227475 21.0072 0.137017 20.7888C0.0465583 20.5704 0 20.3364 0 20.1C0 19.8636 0.0465583 19.6295 0.137017 19.4111C0.227475 19.1928 0.360062 18.9943 0.527207 18.8272C0.694353 18.66 0.892784 18.5274 1.11117 18.437C1.32956 18.3465 1.56362 18.3 1.8 18.3V18.32Z" fill="#EFEFEF"/>
<path d="M38.02 33.23H19.91C19.5543 32.3349 18.9381 31.5672 18.1411 31.0263C17.3442 30.4854 16.4032 30.1963 15.44 30.1963C14.4768 30.1963 13.5358 30.4854 12.7389 31.0263C11.9419 31.5672 11.3257 32.3349 10.97 33.23H1.8C1.32261 33.23 0.864773 33.4196 0.527208 33.7572C0.189642 34.0948 0 34.5526 0 35.03C0 35.5074 0.189642 35.9652 0.527208 36.3028C0.864773 36.6404 1.32261 36.83 1.8 36.83H10.91C11.2424 37.6455 11.7901 38.3554 12.4946 38.8839C13.1991 39.4123 14.034 39.7393 14.91 39.83V36.87H14.84C14.5451 36.7239 14.2935 36.5033 14.11 36.23V36.12C14.0467 36.0116 13.9931 35.8979 13.95 35.78C13.8983 35.6115 13.8713 35.4363 13.87 35.26C13.8516 35.013 13.8843 34.7649 13.9661 34.5311C14.048 34.2974 14.1772 34.083 14.3457 33.9015C14.5141 33.7199 14.7183 33.5751 14.9453 33.4761C15.1723 33.377 15.4173 33.3259 15.665 33.3259C15.9127 33.3259 16.1577 33.377 16.3847 33.4761C16.6117 33.5751 16.8159 33.7199 16.9843 33.9015C17.1528 34.083 17.282 34.2974 17.3639 34.5311C17.4457 34.7649 17.4784 35.013 17.46 35.26C17.4594 35.4331 17.4325 35.6051 17.38 35.77C17.3397 35.8971 17.2825 36.0181 17.21 36.13C17.2154 36.1598 17.2154 36.1902 17.21 36.22C17.0262 36.4992 16.7706 36.7238 16.47 36.87V39.77C17.2388 39.5957 17.9538 39.237 18.5531 38.7248C19.1524 38.2126 19.6181 37.5623 19.91 36.83H38.02C38.4974 36.83 38.9552 36.6404 39.2928 36.3028C39.6304 35.9652 39.82 35.5074 39.82 35.03C39.82 34.5526 39.6304 34.0948 39.2928 33.7572C38.9552 33.4196 38.4974 33.23 38.02 33.23Z" fill="#EFEFEF"/>
</g>
<defs>
<clipPath id="clip0_106_3624">
<rect width="40.13" height="39.81" fill="white"/>
</clipPath>
</defs>
</svg>
