<svg width="39" height="34" viewBox="0 0 39 34" fill="none" xmlns="http://www.w3.org/2000/svg">
<g clip-path="url(#clip0_92_914)">
<path d="M29.0743 15.4057C28.1503 15.4004 27.247 15.6677 26.4874 16.1713C25.7278 16.6748 25.1488 17.3901 24.8291 18.2198C25.1459 19.0521 25.7239 19.7702 26.4839 20.2758C27.244 20.7813 28.1488 21.0495 29.0743 21.0435C30.0458 21.0578 31.0001 20.7976 31.8177 20.2953C32.6353 19.793 33.28 19.071 33.6708 18.2198C33.2774 17.3711 32.6319 16.6519 31.8146 16.1515C30.9973 15.6512 30.0444 15.3918 29.0743 15.4057ZM29.255 19.3916C29.0188 19.3916 28.7879 19.3245 28.5915 19.1989C28.3951 19.0733 28.242 18.8948 28.1516 18.686C28.0612 18.4772 28.0376 18.2473 28.0837 18.0256C28.1297 17.8039 28.2435 17.6003 28.4105 17.4404C28.5775 17.2806 28.7903 17.1717 29.022 17.1276C29.2537 17.0835 29.4938 17.1062 29.712 17.1927C29.9303 17.2792 30.1168 17.4257 30.248 17.6136C30.3792 17.8016 30.4493 18.0226 30.4493 18.2486C30.4493 18.5517 30.3235 18.8425 30.0995 19.0568C29.8755 19.2711 29.5717 19.3916 29.255 19.3916Z" fill="#01A2BE"/>
<path d="M38.5383 25.9418L35.8988 23.4254C35.7803 23.3216 35.6447 23.2372 35.4974 23.1757C36.6564 21.7765 37.2848 20.0422 37.2799 18.2567C37.275 16.4712 36.6371 14.7401 35.4704 13.3467C34.3038 11.9533 32.6775 10.9801 30.8577 10.5863C29.0379 10.1925 27.1323 10.4014 25.4527 11.1788C23.7731 11.9563 22.419 13.2562 21.6118 14.866C20.8046 16.4758 20.5922 18.3001 21.0094 20.0404C21.4265 21.7807 22.4485 23.334 23.9081 24.4462C25.3677 25.5584 27.1785 26.1636 29.0442 26.1627C30.5902 26.1658 32.1049 25.746 33.4099 24.9525C33.4806 25.151 33.5973 25.3315 33.7511 25.4808L36.3805 27.9972C36.6711 28.2422 37.0483 28.3723 37.4354 28.3611C37.8225 28.3498 38.1907 28.198 38.4652 27.9366C38.7397 27.6751 38.9 27.3234 38.9136 26.953C38.9272 26.5826 38.793 26.2211 38.5383 25.9418ZM29.2349 23.7232C28.1074 23.7232 27.0053 23.4032 26.0679 22.8038C25.1304 22.2043 24.3998 21.3523 23.9684 20.3555C23.5369 19.3586 23.424 18.2618 23.644 17.2035C23.8639 16.1453 24.4068 15.1732 25.2041 14.4103C26.0013 13.6473 27.017 13.1278 28.1228 12.9173C29.2286 12.7068 30.3747 12.8148 31.4164 13.2277C32.458 13.6406 33.3483 14.3398 33.9747 15.237C34.601 16.1341 34.9354 17.1888 34.9354 18.2678C34.9367 18.983 34.7908 19.6913 34.506 20.3525C34.2213 21.0137 33.8032 21.6148 33.2758 22.1214C32.7483 22.6279 32.1217 23.0301 31.4318 23.305C30.7419 23.5798 30.0022 23.7219 29.255 23.7232H29.2349Z" fill="#01A2BE"/>
<path d="M30.5844 27.5266H29.8317C29.5318 27.5265 29.2437 27.6392 29.0298 27.8404C28.8158 28.0416 28.6929 28.3152 28.6876 28.6023V31.0706H3.17606L5.18326 8.25029H9.7898V9.9599C9.58363 10.1713 9.43352 10.4269 9.35209 10.7054C9.27067 10.9838 9.2603 11.2769 9.32188 11.56C9.38345 11.8431 9.51516 12.1079 9.70593 12.3321C9.89669 12.5563 10.1409 12.7334 10.4181 12.8485C10.6953 12.9636 10.9973 13.0133 11.2987 12.9934C11.6001 12.9735 11.8922 12.8847 12.1502 12.7343C12.4083 12.5839 12.6249 12.3765 12.7817 12.1293C12.9385 11.8822 13.0311 11.6026 13.0515 11.3141C13.0512 11.0454 12.9868 10.7803 12.8634 10.539C12.7399 10.2977 12.5605 10.0865 12.3389 9.92148C12.3389 9.38363 12.3389 8.84577 12.3389 8.31753H19.8158V9.9599C19.583 10.1611 19.4063 10.4147 19.3016 10.6978C19.197 10.9808 19.1678 11.2843 19.2166 11.5809C19.2654 11.8775 19.3907 12.1577 19.5812 12.3963C19.7717 12.6348 20.0213 12.8242 20.3075 12.9471C20.5937 13.0701 20.9074 13.1229 21.2202 13.1006C21.5331 13.0784 21.8352 12.9818 22.0992 12.8197C22.3633 12.6576 22.5809 12.435 22.7325 12.1721C22.884 11.9092 22.9646 11.6144 22.9671 11.3141C22.9639 11.0628 22.9071 10.8147 22.8001 10.5851C22.6931 10.3555 22.5382 10.1493 22.3449 9.97911V8.2695H26.2288V8.67289C26.2288 8.96328 26.3493 9.24178 26.5639 9.44711C26.7785 9.65245 27.0695 9.76781 27.3729 9.76781H28.1156C28.419 9.76781 28.71 9.65245 28.9246 9.44711C29.1392 9.24178 29.2597 8.96328 29.2597 8.67289V7.29945C29.2645 7.24191 29.2645 7.1841 29.2597 7.12657C29.2701 7.02115 29.2701 6.91503 29.2597 6.80962C29.2571 6.42576 29.0966 6.05833 28.8129 5.78689C28.5293 5.51546 28.1454 5.36185 27.7443 5.35933H22.3449V4.92713C22.3327 4.47374 22.209 4.02949 21.9836 3.63052C21.568 2.88126 21.0215 2.20559 20.3678 1.63278C19.7283 1.05763 18.9674 0.620299 18.1365 0.350248C17.3055 0.0801974 16.4237 -0.0163038 15.5505 0.067244C14.612 0.142907 13.7017 0.412158 12.8823 0.856489C12.0628 1.30082 11.3536 1.90969 10.8034 2.64126C10.1221 3.41232 9.76444 4.39813 9.79983 5.40736H4.09937H3.95887C3.5681 5.37432 3.17906 5.48662 2.87255 5.72092C2.56604 5.95523 2.36563 6.29353 2.31296 6.66555L0.00467281 32.4441C-0.0252532 32.808 0.0893569 33.1694 0.325622 33.4561C0.561887 33.7427 0.902424 33.9335 1.27925 33.9904H1.36957H1.40972H1.62047H30.5844C30.8871 33.9879 31.1766 33.8717 31.3906 33.6669C31.6045 33.4622 31.7259 33.1851 31.7285 32.8955V28.6023C31.7208 28.316 31.5971 28.0438 31.3836 27.8432C31.1702 27.6425 30.8837 27.529 30.5844 27.5266ZM12.8207 4.05312C12.921 3.93787 13.0013 3.82261 13.1017 3.71696C13.5618 3.17668 14.174 2.77378 14.8658 2.55592C15.5577 2.33807 16.3002 2.31435 17.0057 2.48758C17.5779 2.63834 18.1101 2.90385 18.5669 3.2665C19.0237 3.62914 19.3947 4.08062 19.6552 4.59097C19.7585 4.76708 19.8138 4.96529 19.8158 5.16724V5.36894H12.3389C12.3353 4.89015 12.5056 4.42501 12.8207 4.05312Z" fill="#01A2BE"/>
</g>
<defs>
<clipPath id="clip0_92_914">
<rect width="39" height="34" fill="white"/>
</clipPath>
</defs>
</svg>
